SplineFontDB: 3.2
FontName: UtoSerifDevanagari-Regular
FullName: Uto Serif Devanagari Regular
FamilyName: Uto Serif Devanagari
Weight: Regular
Copyright: Copyright 2022 The Noto Project Authors (https://github.com/notofonts/devanagari)
Version: 2.005; ttfautohint (v1.8.4.7-5d5b)
ItalicAngle: 0
UnderlinePosition: -125
UnderlineWidth: 50
Ascent: 800
Descent: 200
InvalidEm: 0
sfntRevision: 0x00020148
LayerCount: 2
Layer: 0 1 "+BBcEMAQ0BD0EOAQ5 +BD8EOwQwBD0A" 1
Layer: 1 1 "+BB8ENQRABDUENAQ9BDgEOQAA +BD8EOwQwBD0A" 0
XUID: [1021 59 1751208496 25026]
StyleMap: 0x0040
FSType: 0
OS2Version: 4
OS2_WeightWidthSlopeOnly: 1
OS2_UseTypoMetrics: 1
CreationTime: 1555073790
ModificationTime: 1716109518
PfmFamily: 17
TTFWeight: 400
TTFWidth: 5
LineGap: 0
VLineGap: 0
Panose: 2 2 5 2 6 5 5 2 2 4
OS2TypoAscent: 930
OS2TypoAOffset: 0
OS2TypoDescent: -625
OS2TypoDOffset: 0
OS2TypoLinegap: 0
OS2WinAscent: 1407
OS2WinAOffset: 0
OS2WinDescent: 792
OS2WinDOffset: 0
HheadAscent: 930
HheadAOffset: 0
HheadDescent: -625
HheadDOffset: 0
OS2SubXSize: 650
OS2SubYSize: 600
OS2SubXOff: 0
OS2SubYOff: 75
OS2SupXSize: 650
OS2SupYSize: 600
OS2SupXOff: 0
OS2SupYOff: 350
OS2StrikeYSize: 50
OS2StrikeYPos: 374
OS2CapHeight: 715
OS2XHeight: 623
OS2Vendor: 'GOOG'
OS2CodePages: 00000001.00000000
OS2UnicodeRanges: 80008023.00002046.00000000.00000000
Lookup: 4 0 0 "+BB8EPgQ0BEEEQgQwBD0EPgQyBDoEMAAA +BDsEOAQzBDAEQgRDBEAESwAA lookup 0" { "+BB8EPgQ0BEEEQgQwBD0EPgQyBDoEMAAA +BDsEOAQzBDAEQgRDBEAESwAA lookup 0 subtable"  } []
Lookup: 1 0 0 "+BBUENAQ4BD0EOARHBD0EMARP +BD8EPgQ0BEEEQgQwBD0EPgQyBDoEMAAA lookup 1" { "+BBUENAQ4BD0EOARHBD0EMARP +BD8EPgQ0BEEEQgQwBD0EPgQyBDoEMAAA lookup 1 subtable"  } []
Lookup: 1 0 0 "+BBUENAQ4BD0EOARHBD0EMARP +BD8EPgQ0BEEEQgQwBD0EPgQyBDoEMAAA lookup 2" { "+BBUENAQ4BD0EOARHBD0EMARP +BD8EPgQ0BEEEQgQwBD0EPgQyBDoEMAAA lookup 2 subtable"  } []

StartChar: .notdef
Encoding: 1114112 -1 0
Width: 596
GlyphClass: 1
Flags: W
LayerCount: 2
Fore
SplineSet
93 0 m 1,0,-1
 93 714 l 1,1,-1
 503 714 l 1,2,-1
 503 0 l 1,3,-1
 93 0 l 1,0,-1
144 51 m 1,4,-1
 453 51 l 1,5,-1
 453 663 l 1,6,-1
 144 663 l 1,7,-1
 144 51 l 1,4,-1
EndSplineSet
EndChar

StartChar: uni0905
Encoding: 2309 2309 5
Width: 686
GlyphClass: 2
Flags: W
AnchorPoint: "+BBEENQQ3BEsEPARPBD0EPQQ+BDUA--9" 242 -34 basechar 0
AnchorPoint: "+BBEENQQ3BEsEPARPBD0EPQQ+BDUA--8" 359 0 basechar 0
AnchorPoint: "+BBEENQQ3BEsEPARPBD0EPQQ+BDUA--2" 601 623 basechar 0
AnchorPoint: "+BBEENQQ3BEsEPARPBD0EPQQ+BDUA--0" 581 623 basechar 0
LayerCount: 2
Fore
SplineSet
251 83 m 0,0,1
 195 83 195 83 149.5 115 c 128,-1,2
 104 147 104 147 70 199.5 c 128,-1,3
 36 252 36 252 13 313 c 1,4,-1
 54 331 l 1,5,6
 86 252 86 252 130 205 c 128,-1,7
 174 158 174 158 235 158 c 0,8,9
 273 158 273 158 297 181.5 c 128,-1,10
 321 205 321 205 321 238 c 0,11,12
 321 267 321 267 309.5 295 c 128,-1,13
 298 323 298 323 276 343 c 1,14,15
 248 332 248 332 210 321 c 1,16,-1
 174 393 l 1,17,18
 250 413 250 413 289 436.5 c 128,-1,19
 328 460 328 460 328 497 c 0,20,21
 328 525 328 525 309.5 540 c 128,-1,22
 291 555 291 555 263 555 c 256,23,24
 235 555 235 555 202.5 545.5 c 128,-1,25
 170 536 170 536 138 521 c 1,26,-1
 100 596 l 1,27,28
 133 612 133 612 165.5 619.5 c 128,-1,29
 198 627 198 627 226 627 c 0,30,31
 258 627 258 627 286.5 614.5 c 128,-1,32
 315 602 315 602 343 571 c 0,33,34
 363 549 363 549 374 520.5 c 128,-1,35
 385 492 385 492 385 467 c 0,36,37
 385 400 385 400 316 362 c 1,38,39
 340 352 340 352 366.5 345.5 c 128,-1,40
 393 339 393 339 420 339 c 0,41,42
 449 339 449 339 476.5 347 c 128,-1,43
 504 355 504 355 526 373 c 1,44,-1
 526 555 l 1,45,-1
 444 555 l 1,46,-1
 405 612 l 1,47,-1
 405 623 l 1,48,-1
 686 623 l 1,49,-1
 726 564 l 1,50,-1
 726 555 l 1,51,-1
 601 555 l 1,52,-1
 601 -6 l 1,53,-1
 591 -6 l 1,54,-1
 526 42 l 1,55,-1
 526 285 l 1,56,57
 500 274 500 274 467 274 c 0,58,59
 438 274 438 274 410 283.5 c 128,-1,60
 382 293 382 293 356 310 c 1,61,62
 374 286 374 286 381.5 260.5 c 128,-1,63
 389 235 389 235 389 207 c 0,64,65
 389 148 389 148 350 115.5 c 128,-1,66
 311 83 311 83 251 83 c 0,0,1
EndSplineSet
EndChar

StartChar: uni0907
Encoding: 2311 2311 7
Width: 460
GlyphClass: 2
Flags: W
AnchorPoint: "+BBEENQQ3BEsEPARPBD0EPQQ+BDUA--9" 95 -89 basechar 0
AnchorPoint: "+BBEENQQ3BEsEPARPBD0EPQQ+BDUA--8" 244 -128 basechar 0
AnchorPoint: "+BBEENQQ3BEsEPARPBD0EPQQ+BDUA--2" 356 623 basechar 0
AnchorPoint: "+BBEENQQ3BEsEPARPBD0EPQQ+BDUA--0" 336 623 basechar 0
LayerCount: 2
Fore
SplineSet
336 -147 m 1,0,1
 297 -121 297 -121 254 -76.5 c 128,-1,2
 211 -32 211 -32 179 9 c 1,3,4
 120 15 120 15 91.5 34 c 128,-1,5
 63 53 63 53 63 80 c 0,6,7
 63 100 63 100 77 111.5 c 128,-1,8
 91 123 91 123 112 123 c 0,9,10
 134 123 134 123 155 110 c 128,-1,11
 176 97 176 97 194 74 c 1,12,-1
 194 74 l 1,13,14
 271 74 271 74 320 104.5 c 128,-1,15
 369 135 369 135 369 179 c 0,16,17
 369 209 369 209 349 223.5 c 128,-1,18
 329 238 329 238 303 238 c 0,19,20
 283 238 283 238 251 229 c 128,-1,21
 219 220 219 220 175 191 c 1,22,23
 147 208 147 208 119 234 c 128,-1,24
 91 260 91 260 72.5 292.5 c 128,-1,25
 54 325 54 325 54 360 c 0,26,27
 54 411 54 411 90.5 439.5 c 128,-1,28
 127 468 127 468 196 468 c 0,29,30
 228 468 228 468 281 463 c 1,31,-1
 281 555 l 1,32,-1
 0 555 l 1,33,-1
 -40 612 l 1,34,-1
 -40 623 l 1,35,-1
 460 623 l 1,36,-1
 500 564 l 1,37,-1
 500 555 l 1,38,-1
 356 555 l 1,39,-1
 356 405 l 1,40,41
 334 407 334 407 316 408.5 c 128,-1,42
 298 410 298 410 278 410 c 0,43,44
 190 410 190 410 153.5 386 c 128,-1,45
 117 362 117 362 117 327 c 0,46,47
 117 310 117 310 126 295.5 c 128,-1,48
 135 281 135 281 150 270 c 1,49,50
 184 291 184 291 217 300 c 128,-1,51
 250 309 250 309 272 309 c 0,52,53
 302 309 302 309 328.5 298 c 128,-1,54
 355 287 355 287 382 258 c 0,55,56
 426 210 426 210 426 156 c 0,57,58
 426 113 426 113 401.5 79.5 c 128,-1,59
 377 46 377 46 333.5 26.5 c 128,-1,60
 290 7 290 7 232 7 c 1,61,62
 256 -14 256 -14 295 -38.5 c 128,-1,63
 334 -63 334 -63 387 -86 c 1,64,-1
 336 -147 l 1,0,1
EndSplineSet
EndChar

StartChar: uni0909
Encoding: 2313 2313 9
Width: 489
GlyphClass: 2
Flags: W
AnchorPoint: "+BBEENQQ3BEsEPARPBD0EPQQ+BDUA--9" 285 -105 basechar 0
AnchorPoint: "+BBEENQQ3BEsEPARPBD0EPQQ+BDUA--8" 250 13 basechar 0
AnchorPoint: "+BBEENQQ3BEsEPARPBD0EPQQ+BDUA--2" 293 623 basechar 0
AnchorPoint: "+BBEENQQ3BEsEPARPBD0EPQQ+BDUA--0" 273 623 basechar 0
LayerCount: 2
Fore
SplineSet
285 13 m 0,0,1
 240 13 240 13 193.5 38.5 c 128,-1,2
 147 64 147 64 102.5 121.5 c 128,-1,3
 58 179 58 179 19 275 c 1,4,-1
 60 292 l 1,5,6
 75 259 75 259 95.5 224 c 128,-1,7
 116 189 116 189 141.5 159.5 c 128,-1,8
 167 130 167 130 198 112 c 128,-1,9
 229 94 229 94 266 94 c 0,10,11
 316 94 316 94 341 121 c 128,-1,12
 366 148 366 148 366 185 c 0,13,14
 366 219 366 219 351.5 251 c 128,-1,15
 337 283 337 283 312 307 c 1,16,17
 274 289 274 289 221 277 c 1,18,-1
 183 353 l 1,19,20
 260 370 260 370 305 400 c 128,-1,21
 350 430 350 430 350 474 c 0,22,23
 350 520 350 520 316 555 c 1,24,-1
 0 555 l 1,25,-1
 -40 612 l 1,26,-1
 -40 623 l 1,27,-1
 489 623 l 1,28,-1
 529 564 l 1,29,-1
 529 555 l 1,30,-1
 370 555 l 1,31,32
 389 534 389 534 400.5 504.5 c 128,-1,33
 412 475 412 475 412 441 c 0,34,35
 412 373 412 373 349 329 c 1,36,37
 391 292 391 292 415 247 c 128,-1,38
 439 202 439 202 439 159 c 0,39,40
 439 86 439 86 394 49.5 c 128,-1,41
 349 13 349 13 285 13 c 0,0,1
EndSplineSet
EndChar

StartChar: uni090A
Encoding: 2314 2314 10
Width: 690
GlyphClass: 2
Flags: W
AnchorPoint: "+BBEENQQ3BEsEPARPBD0EPQQ+BDUA--9" 285 -105 basechar 0
AnchorPoint: "+BBEENQQ3BEsEPARPBD0EPQQ+BDUA--8" 345 10 basechar 0
AnchorPoint: "+BBEENQQ3BEsEPARPBD0EPQQ+BDUA--2" 337 623 basechar 0
AnchorPoint: "+BBEENQQ3BEsEPARPBD0EPQQ+BDUA--0" 317 623 basechar 0
LayerCount: 2
Fore
SplineSet
285 13 m 0,0,1
 240 13 240 13 193.5 38.5 c 128,-1,2
 147 64 147 64 102.5 121.5 c 128,-1,3
 58 179 58 179 19 275 c 1,4,-1
 60 292 l 1,5,6
 75 259 75 259 95.5 224 c 128,-1,7
 116 189 116 189 141.5 159.5 c 128,-1,8
 167 130 167 130 198 112 c 128,-1,9
 229 94 229 94 266 94 c 0,10,11
 316 94 316 94 341 121 c 128,-1,12
 366 148 366 148 366 185 c 0,13,14
 366 219 366 219 351.5 251 c 128,-1,15
 337 283 337 283 312 307 c 1,16,17
 274 289 274 289 221 277 c 1,18,-1
 183 353 l 1,19,20
 260 370 260 370 305 400 c 128,-1,21
 350 430 350 430 350 474 c 0,22,23
 350 520 350 520 316 555 c 1,24,-1
 0 555 l 1,25,-1
 -40 612 l 1,26,-1
 -40 623 l 1,27,-1
 690 623 l 1,28,-1
 730 564 l 1,29,-1
 730 555 l 1,30,-1
 370 555 l 1,31,32
 389 534 389 534 400.5 504.5 c 128,-1,33
 412 475 412 475 412 441 c 0,34,35
 412 373 412 373 349 329 c 1,36,37
 369 311 369 311 386 291 c 1,38,39
 411 309 411 309 443 324 c 128,-1,40
 475 339 475 339 506 339 c 256,41,42
 537 339 537 339 563 326 c 128,-1,43
 589 313 589 313 611 290 c 0,44,45
 632 268 632 268 644.5 239 c 128,-1,46
 657 210 657 210 657 177 c 0,47,48
 657 137 657 137 632 87 c 128,-1,49
 607 37 607 37 572 -2 c 1,50,-1
 501 42 l 1,51,52
 544 84 544 84 569.5 130 c 128,-1,53
 595 176 595 176 595 220 c 0,54,55
 595 243 595 243 580.5 259.5 c 128,-1,56
 566 276 566 276 540 276 c 0,57,58
 509 276 509 276 480 261 c 128,-1,59
 451 246 451 246 425 226 c 1,60,61
 439 192 439 192 439 159 c 0,62,63
 439 86 439 86 394 49.5 c 128,-1,64
 349 13 349 13 285 13 c 0,0,1
EndSplineSet
EndChar

StartChar: uni090B
Encoding: 2315 2315 11
Width: 809
GlyphClass: 2
Flags: W
AnchorPoint: "+BBEENQQ3BEsEPARPBD0EPQQ+BDUA--9" 265 -19 basechar 0
AnchorPoint: "+BBEENQQ3BEsEPARPBD0EPQQ+BDUA--8" 407 0 basechar 0
AnchorPoint: "+BBEENQQ3BEsEPARPBD0EPQQ+BDUA--2" 458 623 basechar 0
AnchorPoint: "+BBEENQQ3BEsEPARPBD0EPQQ+BDUA--0" 438 623 basechar 0
LayerCount: 2
Fore
SplineSet
143 75 m 1,0,-1
 86 143 l 1,1,-1
 356 290 l 1,2,3
 320 335 320 335 290.5 355.5 c 128,-1,4
 261 376 261 376 218 376 c 0,5,6
 190 376 190 376 158 364 c 128,-1,7
 126 352 126 352 92 333 c 1,8,-1
 41 413 l 1,9,10
 79 432 79 432 117 444 c 128,-1,11
 155 456 155 456 187 456 c 0,12,13
 223 456 223 456 253 445 c 128,-1,14
 283 434 283 434 313.5 406.5 c 128,-1,15
 344 379 344 379 382 329 c 1,16,-1
 382 555 l 1,17,-1
 0 555 l 1,18,-1
 -40 612 l 1,19,-1
 -40 623 l 1,20,-1
 809 623 l 1,21,-1
 849 564 l 1,22,-1
 849 555 l 1,23,-1
 458 555 l 1,24,-1
 458 310 l 1,25,26
 505 313 505 313 535.5 330 c 128,-1,27
 566 347 566 347 581 369 c 1,28,29
 576 377 576 377 573 387.5 c 128,-1,30
 570 398 570 398 570 410 c 0,31,32
 570 436 570 436 587.5 453.5 c 128,-1,33
 605 471 605 471 632 471 c 0,34,35
 664 471 664 471 682 449 c 128,-1,36
 700 427 700 427 700 399 c 0,37,38
 700 379 700 379 691 362 c 128,-1,39
 682 345 682 345 666 331 c 1,40,-1
 744 234 l 1,41,42
 667 202 667 202 634 168.5 c 128,-1,43
 601 135 601 135 601 109 c 0,44,45
 601 90 601 90 614 77 c 128,-1,46
 627 64 627 64 649 64 c 0,47,48
 685 64 685 64 716 76.5 c 128,-1,49
 747 89 747 89 769 106 c 1,50,-1
 807 42 l 1,51,52
 762 6 762 6 704 6 c 0,53,54
 665 6 665 6 636.5 19 c 128,-1,55
 608 32 608 32 582 57 c 0,56,57
 563 76 563 76 553.5 96 c 128,-1,58
 544 116 544 116 544 144 c 0,59,60
 544 179 544 179 570.5 208.5 c 128,-1,61
 597 238 597 238 655 267 c 1,62,-1
 625 302 l 1,63,64
 590 284 590 284 549 274.5 c 128,-1,65
 508 265 508 265 473 265 c 0,66,67
 468 265 468 265 463.5 265.5 c 128,-1,68
 459 266 459 266 458 266 c 1,69,-1
 458 -6 l 1,70,-1
 448 -6 l 1,71,-1
 382 42 l 1,72,-1
 382 225 l 1,73,-1
 143 75 l 1,0,-1
EndSplineSet
EndChar

StartChar: uni0960
Encoding: 2400 2400 12
Width: 815
GlyphClass: 2
Flags: W
AnchorPoint: "+BBEENQQ3BEsEPARPBD0EPQQ+BDUA--9" 265 -19 basechar 0
AnchorPoint: "+BBEENQQ3BEsEPARPBD0EPQQ+BDUA--8" 407 -40 basechar 0
AnchorPoint: "+BBEENQQ3BEsEPARPBD0EPQQ+BDUA--2" 458 623 basechar 0
AnchorPoint: "+BBEENQQ3BEsEPARPBD0EPQQ+BDUA--0" 438 623 basechar 0
LayerCount: 2
Fore
SplineSet
143 75 m 1,0,-1
 86 143 l 1,1,-1
 356 290 l 1,2,3
 320 335 320 335 290.5 355.5 c 128,-1,4
 261 376 261 376 218 376 c 0,5,6
 190 376 190 376 158 364 c 128,-1,7
 126 352 126 352 92 333 c 1,8,-1
 41 413 l 1,9,10
 79 432 79 432 117 444 c 128,-1,11
 155 456 155 456 187 456 c 0,12,13
 223 456 223 456 253 445 c 128,-1,14
 283 434 283 434 313.5 406.5 c 128,-1,15
 344 379 344 379 382 329 c 1,16,-1
 382 555 l 1,17,-1
 0 555 l 1,18,-1
 -40 612 l 1,19,-1
 -40 623 l 1,20,-1
 815 623 l 1,21,-1
 855 564 l 1,22,-1
 855 555 l 1,23,-1
 458 555 l 1,24,-1
 458 310 l 1,25,26
 505 313 505 313 536 329.5 c 128,-1,27
 567 346 567 346 582 368 c 1,28,29
 577 376 577 376 574.5 387.5 c 128,-1,30
 572 399 572 399 572 407 c 0,31,32
 572 436 572 436 589 453.5 c 128,-1,33
 606 471 606 471 634 471 c 0,34,35
 665 471 665 471 682.5 449 c 128,-1,36
 700 427 700 427 700 399 c 0,37,38
 700 379 700 379 691 362 c 128,-1,39
 682 345 682 345 667 331 c 1,40,-1
 746 234 l 1,41,42
 677 208 677 208 640.5 182.5 c 128,-1,43
 604 157 604 157 604 125 c 0,44,45
 604 112 604 112 611.5 100.5 c 128,-1,46
 619 89 619 89 635 84 c 1,47,48
 652 104 652 104 680 118.5 c 128,-1,49
 708 133 708 133 743 144 c 1,50,-1
 777 81 l 1,51,52
 730 65 730 65 700 46 c 128,-1,53
 670 27 670 27 670 1 c 0,54,55
 670 -12 670 -12 680 -19 c 128,-1,56
 690 -26 690 -26 703 -26 c 0,57,58
 723 -26 723 -26 744 -19 c 128,-1,59
 765 -12 765 -12 783.5 -2 c 128,-1,60
 802 8 802 8 811 16 c 1,61,-1
 844 -50 l 1,62,63
 817 -66 817 -66 790 -75.5 c 128,-1,64
 763 -85 763 -85 734 -85 c 0,65,66
 712 -85 712 -85 692 -74.5 c 128,-1,67
 672 -64 672 -64 652 -47 c 0,68,69
 633 -29 633 -29 622.5 -11 c 128,-1,70
 612 7 612 7 612 26 c 0,71,72
 612 39 612 39 616 51 c 1,73,74
 609 54 609 54 603 57.5 c 128,-1,75
 597 61 597 61 591 65 c 0,76,77
 570 80 570 80 557.5 101.5 c 128,-1,78
 545 123 545 123 545 148 c 0,79,80
 545 179 545 179 561.5 201.5 c 128,-1,81
 578 224 578 224 603 240 c 128,-1,82
 628 256 628 256 655 268 c 1,83,-1
 626 303 l 1,84,85
 591 284 591 284 549.5 274.5 c 128,-1,86
 508 265 508 265 473 265 c 0,87,88
 469 265 469 265 464.5 265.5 c 128,-1,89
 460 266 460 266 458 266 c 1,90,-1
 458 -6 l 1,91,-1
 448 -6 l 1,92,-1
 382 42 l 1,93,-1
 382 225 l 1,94,-1
 143 75 l 1,0,-1
EndSplineSet
EndChar

StartChar: uni090C
Encoding: 2316 2316 13
Width: 660
GlyphClass: 2
Flags: W
AnchorPoint: "+BBEENQQ3BEsEPARPBD0EPQQ+BDUA--9" 240 -136 basechar 0
AnchorPoint: "+BBEENQQ3BEsEPARPBD0EPQQ+BDUA--8" 330 -93 basechar 0
AnchorPoint: "+BBEENQQ3BEsEPARPBD0EPQQ+BDUA--2" 508 623 basechar 0
AnchorPoint: "+BBEENQQ3BEsEPARPBD0EPQQ+BDUA--0" 488 623 basechar 0
LayerCount: 2
Fore
SplineSet
236 -11 m 1,0,1
 206 14 206 14 173.5 45.5 c 128,-1,2
 141 77 141 77 112.5 114.5 c 128,-1,3
 84 152 84 152 66.5 193.5 c 128,-1,4
 49 235 49 235 49 279 c 0,5,6
 49 348 49 348 89 383.5 c 128,-1,7
 129 419 129 419 185 419 c 0,8,9
 254 419 254 419 319 364 c 1,10,11
 339 389 339 389 368 404 c 128,-1,12
 397 419 397 419 433 421 c 1,13,-1
 433 555 l 1,14,-1
 0 555 l 1,15,-1
 -40 612 l 1,16,-1
 -40 623 l 1,17,-1
 660 623 l 1,18,-1
 700 564 l 1,19,-1
 700 555 l 1,20,-1
 508 555 l 1,21,-1
 508 406 l 1,22,23
 527 397 527 397 541.5 384.5 c 128,-1,24
 556 372 556 372 566 360 c 0,25,26
 588 335 588 335 597.5 311 c 128,-1,27
 607 287 607 287 607 258 c 0,28,29
 607 224 607 224 592.5 196.5 c 128,-1,30
 578 169 578 169 556.5 145.5 c 128,-1,31
 535 122 535 122 513.5 100 c 128,-1,32
 492 78 492 78 477.5 56 c 128,-1,33
 463 34 463 34 463 8 c 0,34,35
 463 -50 463 -50 526 -50 c 0,36,37
 554 -50 554 -50 580.5 -39 c 128,-1,38
 607 -28 607 -28 629 -11 c 1,39,-1
 672 -79 l 1,40,41
 642 -96 642 -96 618 -104.5 c 128,-1,42
 594 -113 594 -113 563 -113 c 0,43,44
 531 -113 531 -113 501 -98.5 c 128,-1,45
 471 -84 471 -84 448 -62 c 0,46,47
 423 -38 423 -38 407.5 -10 c 128,-1,48
 392 18 392 18 392 42 c 0,49,50
 392 77 392 77 406.5 103.5 c 128,-1,51
 421 130 421 130 442.5 152 c 128,-1,52
 464 174 464 174 485.5 195 c 128,-1,53
 507 216 507 216 521.5 240 c 128,-1,54
 536 264 536 264 536 295 c 0,55,56
 536 322 536 322 519 344.5 c 128,-1,57
 502 367 502 367 469 367 c 0,58,59
 428 367 428 367 396.5 333.5 c 128,-1,60
 365 300 365 300 365 233 c 0,61,62
 365 223 365 223 365.5 213 c 128,-1,63
 366 203 366 203 367 195 c 1,64,-1
 285 212 l 1,65,66
 282 227 282 227 282 249 c 0,67,68
 282 291 282 291 297 326 c 1,69,70
 265 345 265 345 231 345 c 0,71,72
 190 345 190 345 160.5 317.5 c 128,-1,73
 131 290 131 290 131 240 c 0,74,75
 131 173 131 173 170.5 122 c 128,-1,76
 210 71 210 71 268 24 c 1,77,-1
 236 -11 l 1,0,1
EndSplineSet
EndChar

StartChar: uni0961
Encoding: 2401 2401 14
Width: 661
GlyphClass: 2
Flags: W
AnchorPoint: "+BBEENQQ3BEsEPARPBD0EPQQ+BDUA--9" 240 -136 basechar 0
AnchorPoint: "+BBEENQQ3BEsEPARPBD0EPQQ+BDUA--8" 330 -93 basechar 0
AnchorPoint: "+BBEENQQ3BEsEPARPBD0EPQQ+BDUA--2" 508 623 basechar 0
AnchorPoint: "+BBEENQQ3BEsEPARPBD0EPQQ+BDUA--0" 488 623 basechar 0
LayerCount: 2
Fore
SplineSet
236 -11 m 1,0,1
 206 14 206 14 173.5 45.5 c 128,-1,2
 141 77 141 77 112.5 114.5 c 128,-1,3
 84 152 84 152 66.5 193.5 c 128,-1,4
 49 235 49 235 49 279 c 0,5,6
 49 348 49 348 89 383.5 c 128,-1,7
 129 419 129 419 185 419 c 0,8,9
 254 419 254 419 319 364 c 1,10,11
 339 389 339 389 368.5 404 c 128,-1,12
 398 419 398 419 434 421 c 1,13,-1
 434 555 l 1,14,-1
 0 555 l 1,15,-1
 -40 612 l 1,16,-1
 -40 623 l 1,17,-1
 661 623 l 1,18,-1
 701 564 l 1,19,-1
 701 555 l 1,20,-1
 508 555 l 1,21,-1
 508 406 l 1,22,23
 527 397 527 397 542 385 c 128,-1,24
 557 373 557 373 567 360 c 0,25,26
 607 311 607 311 607 265 c 0,27,28
 607 233 607 233 588.5 207 c 128,-1,29
 570 181 570 181 546 159 c 128,-1,30
 522 137 522 137 503.5 116.5 c 128,-1,31
 485 96 485 96 485 74 c 0,32,33
 485 64 485 64 491 54 c 128,-1,34
 497 44 497 44 509 40 c 1,35,36
 527 59 527 59 554.5 73 c 128,-1,37
 582 87 582 87 616 97 c 1,38,-1
 650 35 l 1,39,40
 603 19 603 19 572.5 -0.5 c 128,-1,41
 542 -20 542 -20 542 -45 c 0,42,43
 542 -59 542 -59 552.5 -65.5 c 128,-1,44
 563 -72 563 -72 576 -72 c 0,45,46
 605 -72 605 -72 636.5 -58 c 128,-1,47
 668 -44 668 -44 683 -31 c 1,48,-1
 717 -97 l 1,49,50
 689 -114 689 -114 662 -123 c 128,-1,51
 635 -132 635 -132 607 -132 c 0,52,53
 584 -132 584 -132 564 -122 c 128,-1,54
 544 -112 544 -112 525 -94 c 256,55,56
 506 -76 506 -76 495.5 -58 c 128,-1,57
 485 -40 485 -40 485 -21 c 0,58,59
 485 -6 485 -6 489 7 c 1,60,61
 484 10 484 10 478 14 c 128,-1,62
 472 18 472 18 465 22 c 0,63,64
 419 52 419 52 419 104 c 0,65,66
 419 137 419 137 436.5 161.5 c 128,-1,67
 454 186 454 186 477 207 c 128,-1,68
 500 228 500 228 517.5 250 c 128,-1,69
 535 272 535 272 535 301 c 0,70,71
 535 327 535 327 517.5 347 c 128,-1,72
 500 367 500 367 469 367 c 0,73,74
 428 367 428 367 396.5 333.5 c 128,-1,75
 365 300 365 300 365 233 c 0,76,77
 365 223 365 223 365.5 213 c 128,-1,78
 366 203 366 203 367 195 c 1,79,-1
 285 212 l 1,80,81
 282 227 282 227 282 249 c 0,82,83
 282 291 282 291 297 326 c 1,84,85
 265 345 265 345 231 345 c 0,86,87
 190 345 190 345 160.5 317.5 c 128,-1,88
 131 290 131 290 131 240 c 0,89,90
 131 173 131 173 170.5 122 c 128,-1,91
 210 71 210 71 268 24 c 1,92,-1
 236 -11 l 1,0,1
EndSplineSet
EndChar

StartChar: uni090F
Encoding: 2319 2319 15
Width: 531
GlyphClass: 2
Flags: W
AnchorPoint: "+BBEENQQ3BEsEPARPBD0EPQQ+BDUA--9" 232 -45 basechar 0
AnchorPoint: "+BBEENQQ3BEsEPARPBD0EPQQ+BDUA--8" 285 -145 basechar 0
AnchorPoint: "+BBEENQQ3BEsEPARPBD0EPQQ+BDUA--2" 447 623 basechar 0
AnchorPoint: "+BBEENQQ3BEsEPARPBD0EPQQ+BDUA--0" 286 623 basechar 0
LayerCount: 2
Fore
SplineSet
394 210 m 1,0,-1
 326 254 l 1,1,2
 346 274 346 274 359 301 c 128,-1,3
 372 328 372 328 372 373 c 2,4,-1
 372 555 l 1,5,-1
 161 555 l 1,6,-1
 161 298 l 2,7,8
 161 262 161 262 166 240 c 128,-1,9
 171 218 171 218 190.5 199 c 128,-1,10
 210 180 210 180 252 153 c 2,11,-1
 354 89 l 2,12,13
 404 58 404 58 430.5 24 c 128,-1,14
 457 -10 457 -10 457 -52 c 0,15,16
 457 -81 457 -81 446.5 -107 c 128,-1,17
 436 -133 436 -133 422 -156 c 1,18,-1
 341 -123 l 1,19,20
 377 -71 377 -71 377 -30 c 0,21,22
 377 -1 377 -1 357.5 19 c 128,-1,23
 338 39 338 39 298 64 c 2,24,-1
 197 127 l 2,25,26
 161 150 161 150 136.5 171 c 128,-1,27
 112 192 112 192 99 221 c 128,-1,28
 86 250 86 250 86 295 c 2,29,-1
 86 555 l 1,30,-1
 0 555 l 1,31,-1
 -40 612 l 1,32,-1
 -40 623 l 1,33,-1
 531 623 l 1,34,-1
 571 564 l 1,35,-1
 571 555 l 1,36,-1
 447 555 l 1,37,-1
 447 356 l 2,38,39
 447 304 447 304 431 269 c 128,-1,40
 415 234 415 234 394 210 c 1,0,-1
EndSplineSet
EndChar

StartChar: uni093E
Encoding: 2366 2366 31
Width: 246
GlyphClass: 2
Flags: W
AnchorPoint: "+BBEENQQ3BEsEPARPBD0EPQQ+BDUA--9" 116 -134 basechar 0
AnchorPoint: "+BBEENQQ3BEsEPARPBD0EPQQ+BDUA--8" -30 -6 basechar 0
AnchorPoint: "+BBEENQQ3BEsEPARPBD0EPQQ+BDUA--7" 161 0 basechar 0
AnchorPoint: "+BBEENQQ3BEsEPARPBD0EPQQ+BDUA--2" 161 623 basechar 0
AnchorPoint: "+BBEENQQ3BEsEPARPBD0EPQQ+BDUA--0" 15 623 basechar 0
LayerCount: 2
Fore
SplineSet
151 -6 m 1,0,-1
 86 42 l 1,1,-1
 86 555 l 1,2,-1
 0 555 l 1,3,-1
 -40 613 l 1,4,-1
 -40 623 l 1,5,-1
 246 623 l 1,6,-1
 286 564 l 1,7,-1
 286 555 l 1,8,-1
 161 555 l 1,9,-1
 161 -6 l 1,10,-1
 151 -6 l 1,0,-1
EndSplineSet
EndChar

StartChar: uni0940
Encoding: 2368 2368 33
Width: 246
GlyphClass: 2
Flags: W
AnchorPoint: "+BBEENQQ3BEsEPARPBD0EPQQ+BDUA--9" 121 -125 basechar 0
AnchorPoint: "+BBEENQQ3BEsEPARPBD0EPQQ+BDUA--8" -30 -6 basechar 0
AnchorPoint: "+BBEENQQ3BEsEPARPBD0EPQQ+BDUA--7" 161 0 basechar 0
AnchorPoint: "+BBEENQQ3BEsEPARPBD0EPQQ+BDUA--3" 188 623 basechar 0
LayerCount: 2
Fore
SplineSet
151 -6 m 1,0,-1
 86 42 l 1,1,-1
 86 555 l 1,2,-1
 0 555 l 1,3,-1
 -40 613 l 1,4,-1
 -40 623 l 1,5,-1
 111 623 l 1,6,7
 83 715 83 715 42 767 c 128,-1,8
 1 819 1 819 -51 819 c 0,9,10
 -89 819 -89 819 -111 797 c 128,-1,11
 -133 775 -133 775 -133 733 c 0,12,13
 -133 705 -133 705 -118.5 670.5 c 128,-1,14
 -104 636 -104 636 -79 611 c 1,15,-1
 -119 611 l 1,16,17
 -139 626 -139 626 -158.5 650 c 128,-1,18
 -178 674 -178 674 -191 704.5 c 128,-1,19
 -204 735 -204 735 -204 768 c 0,20,21
 -204 821 -204 821 -171.5 858 c 128,-1,22
 -139 895 -139 895 -81 895 c 0,23,24
 -29 895 -29 895 10 868.5 c 128,-1,25
 49 842 49 842 77 800.5 c 128,-1,26
 105 759 105 759 124 712 c 128,-1,27
 143 665 143 665 155 623 c 1,28,-1
 246 623 l 1,29,-1
 286 564 l 1,30,-1
 286 555 l 1,31,-1
 161 555 l 1,32,-1
 161 -6 l 1,33,-1
 151 -6 l 1,0,-1
EndSplineSet
Substitution2: "+BBUENAQ4BD0EOARHBD0EMARP +BD8EPgQ0BEEEQgQwBD0EPgQyBDoEMAAA lookup 224 subtable" uni0940.03
Substitution2: "+BBUENAQ4BD0EOARHBD0EMARP +BD8EPgQ0BEEEQgQwBD0EPgQyBDoEMAAA lookup 223 subtable" uni0940.02
Substitution2: "+BBUENAQ4BD0EOARHBD0EMARP +BD8EPgQ0BEEEQgQwBD0EPgQyBDoEMAAA lookup 222 subtable" uni0940.01
EndChar

StartChar: uni0941
Encoding: 2369 2369 34
Width: 0
GlyphClass: 4
Flags: W
AnchorPoint: "+BBEENQQ3BEsEPARPBD0EPQQ+BDUA--20" -83 0 mark 0
AnchorPoint: "+BBEENQQ3BEsEPARPBD0EPQQ+BDUA--14" -83 0 mark 0
AnchorPoint: "+BBEENQQ3BEsEPARPBD0EPQQ+BDUA--12" -151 -276 basemark 0
AnchorPoint: "+BBEENQQ3BEsEPARPBD0EPQQ+BDUA--10" -83 0 mark 0
AnchorPoint: "+BBEENQQ3BEsEPARPBD0EPQQ+BDUA--7" -83 0 mark 0
LayerCount: 2
Fore
SplineSet
-127 -271 m 0,0,1
 -186 -271 -186 -271 -237.5 -245 c 128,-1,2
 -289 -219 -289 -219 -332 -178.5 c 128,-1,3
 -375 -138 -375 -138 -410 -93 c 1,4,-1
 -361 -52 l 1,5,6
 -334 -95 -334 -95 -302.5 -132.5 c 128,-1,7
 -271 -170 -271 -170 -234 -193.5 c 128,-1,8
 -197 -217 -197 -217 -153 -217 c 0,9,10
 -118 -217 -118 -217 -90.5 -201.5 c 128,-1,11
 -63 -186 -63 -186 -46.5 -161 c 128,-1,12
 -30 -136 -30 -136 -30 -108 c 0,13,14
 -30 -61 -30 -61 -80 -61 c 0,15,16
 -102 -61 -102 -61 -123.5 -68.5 c 128,-1,17
 -145 -76 -145 -76 -174 -97 c 1,18,-1
 -222 -33 l 1,19,20
 -197 -16 -197 -16 -172 -5.5 c 128,-1,21
 -147 5 -147 5 -119 5 c 0,22,23
 -89 5 -89 5 -62 -8 c 128,-1,24
 -35 -21 -35 -21 -16 -42 c 0,25,26
 4 -63 4 -63 15 -89.5 c 128,-1,27
 26 -116 26 -116 26 -143 c 0,28,29
 26 -203 26 -203 -17 -237 c 128,-1,30
 -60 -271 -60 -271 -127 -271 c 0,0,1
EndSplineSet
Substitution2: "+BBUENAQ4BD0EOARHBD0EMARP +BD8EPgQ0BEEEQgQwBD0EPgQyBDoEMAAA lookup 204 subtable" uni0941.short
Substitution2: "+BBUENAQ4BD0EOARHBD0EMARP +BD8EPgQ0BEEEQgQwBD0EPgQyBDoEMAAA lookup 196 subtable" uni0941.short
Substitution2: "+BBUENAQ4BD0EOARHBD0EMARP +BD8EPgQ0BEEEQgQwBD0EPgQyBDoEMAAA lookup 190 subtable" uni0941.short
Substitution2: "+BBUENAQ4BD0EOARHBD0EMARP +BD8EPgQ0BEEEQgQwBD0EPgQyBDoEMAAA lookup 189 subtable" uni0941.01
Substitution2: "+BBUENAQ4BD0EOARHBD0EMARP +BD8EPgQ0BEEEQgQwBD0EPgQyBDoEMAAA lookup 79 subtable" uni093C
Substitution2: "+BBUENAQ4BD0EOARHBD0EMARP +BD8EPgQ0BEEEQgQwBD0EPgQyBDoEMAAA lookup 72 subtable" uni093C0941
EndChar

StartChar: uni0942
Encoding: 2370 2370 35
Width: 0
GlyphClass: 4
Flags: W
AnchorPoint: "+BBEENQQ3BEsEPARPBD0EPQQ+BDUA--20" -83 0 mark 0
AnchorPoint: "+BBEENQQ3BEsEPARPBD0EPQQ+BDUA--14" -83 0 mark 0
AnchorPoint: "+BBEENQQ3BEsEPARPBD0EPQQ+BDUA--12" -161 -276 basemark 0
AnchorPoint: "+BBEENQQ3BEsEPARPBD0EPQQ+BDUA--10" -83 0 mark 0
AnchorPoint: "+BBEENQQ3BEsEPARPBD0EPQQ+BDUA--7" -83 0 mark 0
LayerCount: 2
Fore
SplineSet
-92 -275 m 0,0,1
 -123 -275 -123 -275 -153 -257.5 c 128,-1,2
 -183 -240 -183 -240 -207 -216 c 0,3,4
 -228 -195 -228 -195 -240.5 -171.5 c 128,-1,5
 -253 -148 -253 -148 -253 -118 c 0,6,7
 -253 -87 -253 -87 -238 -59 c 128,-1,8
 -223 -31 -223 -31 -193.5 -13 c 128,-1,9
 -164 5 -164 5 -121 5 c 0,10,11
 -65 5 -65 5 -18.5 -30 c 128,-1,12
 28 -65 28 -65 76 -122 c 128,-1,13
 124 -179 124 -179 182 -247 c 1,14,-1
 136 -278 l 1,15,16
 88 -214 88 -214 49.5 -167 c 128,-1,17
 11 -120 11 -120 -23.5 -93.5 c 128,-1,18
 -58 -67 -58 -67 -95 -67 c 0,19,20
 -136 -67 -136 -67 -161.5 -89.5 c 128,-1,21
 -187 -112 -187 -112 -187 -150 c 0,22,23
 -187 -181 -187 -181 -171.5 -197 c 128,-1,24
 -156 -213 -156 -213 -130 -213 c 0,25,26
 -108 -213 -108 -213 -83.5 -206.5 c 128,-1,27
 -59 -200 -59 -200 -25 -177 c 1,28,-1
 0 -252 l 1,29,30
 -25 -263 -25 -263 -45.5 -269 c 128,-1,31
 -66 -275 -66 -275 -92 -275 c 0,0,1
EndSplineSet
Substitution2: "+BBUENAQ4BD0EOARHBD0EMARP +BD8EPgQ0BEEEQgQwBD0EPgQyBDoEMAAA lookup 204 subtable" uni0942.short
Substitution2: "+BBUENAQ4BD0EOARHBD0EMARP +BD8EPgQ0BEEEQgQwBD0EPgQyBDoEMAAA lookup 196 subtable" uni0942.short
Substitution2: "+BBUENAQ4BD0EOARHBD0EMARP +BD8EPgQ0BEEEQgQwBD0EPgQyBDoEMAAA lookup 190 subtable" uni0942.short
Substitution2: "+BBUENAQ4BD0EOARHBD0EMARP +BD8EPgQ0BEEEQgQwBD0EPgQyBDoEMAAA lookup 79 subtable" uni093C
Substitution2: "+BBUENAQ4BD0EOARHBD0EMARP +BD8EPgQ0BEEEQgQwBD0EPgQyBDoEMAAA lookup 72 subtable" uni093C0942
EndChar

StartChar: uni0943
Encoding: 2371 2371 36
Width: 0
GlyphClass: 4
Flags: W
AnchorPoint: "+BBEENQQ3BEsEPARPBD0EPQQ+BDUA--20" -80 0 mark 0
AnchorPoint: "+BBEENQQ3BEsEPARPBD0EPQQ+BDUA--14" -80 0 mark 0
AnchorPoint: "+BBEENQQ3BEsEPARPBD0EPQQ+BDUA--12" -161 -276 basemark 0
AnchorPoint: "+BBEENQQ3BEsEPARPBD0EPQQ+BDUA--10" -80 0 mark 0
AnchorPoint: "+BBEENQQ3BEsEPARPBD0EPQQ+BDUA--7" -80 0 mark 0
LayerCount: 2
Fore
SplineSet
-89 -262 m 0,0,1
 -126 -262 -126 -262 -154.5 -247.5 c 128,-1,2
 -183 -233 -183 -233 -206 -210 c 0,3,4
 -228 -187 -228 -187 -242 -161.5 c 128,-1,5
 -256 -136 -256 -136 -256 -108 c 0,6,7
 -256 -60 -256 -60 -223.5 -30 c 128,-1,8
 -191 0 -191 0 -138 18 c 1,9,-1
 -78 -36 l 1,10,11
 -133 -54 -133 -54 -163.5 -77.5 c 128,-1,12
 -194 -101 -194 -101 -194 -134 c 0,13,14
 -194 -168 -194 -168 -170 -184 c 128,-1,15
 -146 -200 -146 -200 -118 -200 c 0,16,17
 -91 -200 -91 -200 -63.5 -188 c 128,-1,18
 -36 -176 -36 -176 -16 -160 c 1,19,-1
 41 -212 l 1,20,21
 -24 -262 -24 -262 -89 -262 c 0,0,1
EndSplineSet
Substitution2: "+BBUENAQ4BD0EOARHBD0EMARP +BD8EPgQ0BEEEQgQwBD0EPgQyBDoEMAAA lookup 171 subtable" uni0930094D
Substitution2: "+BBUENAQ4BD0EOARHBD0EMARP +BD8EPgQ0BEEEQgQwBD0EPgQyBDoEMAAA lookup 79 subtable" uni093C
Substitution2: "+BBUENAQ4BD0EOARHBD0EMARP +BD8EPgQ0BEEEQgQwBD0EPgQyBDoEMAAA lookup 72 subtable" uni093C0943
EndChar

StartChar: uni0944
Encoding: 2372 2372 37
Width: 0
GlyphClass: 4
Flags: W
AnchorPoint: "+BBEENQQ3BEsEPARPBD0EPQQ+BDUA--20" -80 0 mark 0
AnchorPoint: "+BBEENQQ3BEsEPARPBD0EPQQ+BDUA--14" -80 0 mark 0
AnchorPoint: "+BBEENQQ3BEsEPARPBD0EPQQ+BDUA--12" -171 -361 basemark 0
AnchorPoint: "+BBEENQQ3BEsEPARPBD0EPQQ+BDUA--10" -80 0 mark 0
AnchorPoint: "+BBEENQQ3BEsEPARPBD0EPQQ+BDUA--7" -80 0 mark 0
LayerCount: 2
Fore
SplineSet
-39 -366 m 0,0,1
 -69 -366 -69 -366 -92 -353.5 c 128,-1,2
 -115 -341 -115 -341 -134 -324 c 0,3,4
 -174 -287 -174 -287 -174 -246 c 0,5,6
 -174 -233 -174 -233 -171 -222 c 1,7,8
 -185 -216 -185 -216 -196 -208 c 128,-1,9
 -207 -200 -207 -200 -214 -193 c 0,10,11
 -236 -173 -236 -173 -245.5 -152.5 c 128,-1,12
 -255 -132 -255 -132 -255 -108 c 0,13,14
 -255 -61 -255 -61 -223 -30.5 c 128,-1,15
 -191 0 -191 0 -138 18 c 1,16,-1
 -78 -36 l 1,17,18
 -133 -54 -133 -54 -163 -78 c 128,-1,19
 -193 -102 -193 -102 -193 -135 c 0,20,21
 -193 -151 -193 -151 -181.5 -162.5 c 128,-1,22
 -170 -174 -170 -174 -147 -176 c 1,23,24
 -131 -160 -131 -160 -107.5 -146.5 c 128,-1,25
 -84 -133 -84 -133 -55 -120 c 1,26,-1
 4 -174 l 1,27,28
 -51 -199 -51 -199 -81.5 -219 c 128,-1,29
 -112 -239 -112 -239 -112 -273 c 0,30,31
 -112 -289 -112 -289 -97.5 -297 c 128,-1,32
 -83 -305 -83 -305 -66 -305 c 0,33,34
 -39 -305 -39 -305 -11.5 -293 c 128,-1,35
 16 -281 16 -281 35 -265 c 1,36,-1
 89 -316 l 1,37,38
 56 -342 56 -342 24.5 -354 c 128,-1,39
 -7 -366 -7 -366 -39 -366 c 0,0,1
EndSplineSet
Substitution2: "+BBUENAQ4BD0EOARHBD0EMARP +BD8EPgQ0BEEEQgQwBD0EPgQyBDoEMAAA lookup 171 subtable" uni0930094D
Substitution2: "+BBUENAQ4BD0EOARHBD0EMARP +BD8EPgQ0BEEEQgQwBD0EPgQyBDoEMAAA lookup 79 subtable" uni093C
Substitution2: "+BBUENAQ4BD0EOARHBD0EMARP +BD8EPgQ0BEEEQgQwBD0EPgQyBDoEMAAA lookup 72 subtable" uni093C0944
EndChar

StartChar: uni0962
Encoding: 2402 2402 38
Width: 0
GlyphClass: 4
Flags: W
AnchorPoint: "+BBEENQQ3BEsEPARPBD0EPQQ+BDUA--20" -58 0 mark 0
AnchorPoint: "+BBEENQQ3BEsEPARPBD0EPQQ+BDUA--14" -58 0 mark 0
AnchorPoint: "+BBEENQQ3BEsEPARPBD0EPQQ+BDUA--12" -151 -321 basemark 0
AnchorPoint: "+BBEENQQ3BEsEPARPBD0EPQQ+BDUA--10" -58 0 mark 0
AnchorPoint: "+BBEENQQ3BEsEPARPBD0EPQQ+BDUA--7" -58 0 mark 0
LayerCount: 2
Fore
SplineSet
-201 -262 m 1,0,1
 -218 -245 -218 -245 -238 -221 c 128,-1,2
 -258 -197 -258 -197 -271.5 -168 c 128,-1,3
 -285 -139 -285 -139 -285 -108 c 0,4,5
 -285 -64 -285 -64 -259 -40.5 c 128,-1,6
 -233 -17 -233 -17 -198 -17 c 0,7,8
 -154 -17 -154 -17 -113 -51 c 1,9,10
 -100 -35 -100 -35 -80.5 -25.5 c 128,-1,11
 -61 -16 -61 -16 -35 -16 c 0,12,13
 -15 -16 -15 -16 4 -24 c 128,-1,14
 23 -32 23 -32 43 -51 c 0,15,16
 66 -72 66 -72 72 -90 c 128,-1,17
 78 -108 78 -108 78 -123 c 0,18,19
 78 -147 78 -147 66 -166.5 c 128,-1,20
 54 -186 54 -186 39 -202.5 c 128,-1,21
 24 -219 24 -219 12 -234.5 c 128,-1,22
 0 -250 0 -250 0 -265 c 0,23,24
 0 -283 0 -283 18 -283 c 0,25,26
 33 -283 33 -283 47 -274 c 128,-1,27
 61 -265 61 -265 75 -252 c 1,28,-1
 117 -291 l 1,29,30
 101 -310 101 -310 84.5 -320 c 128,-1,31
 68 -330 68 -330 47 -330 c 0,32,33
 29 -330 29 -330 12.5 -321.5 c 128,-1,34
 -4 -313 -4 -313 -21 -300 c 0,35,36
 -57 -271 -57 -271 -57 -236 c 0,37,38
 -57 -215 -57 -215 -45.5 -198.5 c 128,-1,39
 -34 -182 -34 -182 -19.5 -166.5 c 128,-1,40
 -5 -151 -5 -151 6.5 -135.5 c 128,-1,41
 18 -120 18 -120 18 -101 c 0,42,43
 18 -84 18 -84 8 -73.5 c 128,-1,44
 -2 -63 -2 -63 -19 -63 c 0,45,46
 -45 -63 -45 -63 -63 -84 c 128,-1,47
 -81 -105 -81 -105 -81 -143 c 0,48,49
 -81 -148 -81 -148 -80.5 -158 c 128,-1,50
 -80 -168 -80 -168 -79 -172 c 1,51,-1
 -136 -161 l 1,52,53
 -139 -141 -139 -141 -139 -127 c 0,54,55
 -139 -105 -139 -105 -132 -85 c 1,56,57
 -149 -75 -149 -75 -168 -75 c 0,58,59
 -191 -75 -191 -75 -207.5 -91.5 c 128,-1,60
 -224 -108 -224 -108 -224 -136 c 0,61,62
 -224 -167 -224 -167 -209 -190 c 128,-1,63
 -194 -213 -194 -213 -173 -235 c 1,64,-1
 -201 -262 l 1,0,1
EndSplineSet
Substitution2: "+BBUENAQ4BD0EOARHBD0EMARP +BD8EPgQ0BEEEQgQwBD0EPgQyBDoEMAAA lookup 171 subtable" uni0930094D
Substitution2: "+BBUENAQ4BD0EOARHBD0EMARP +BD8EPgQ0BEEEQgQwBD0EPgQyBDoEMAAA lookup 72 subtable" uni093C0962
EndChar

StartChar: uni0963
Encoding: 2403 2403 39
Width: 0
GlyphClass: 4
Flags: W
AnchorPoint: "+BBEENQQ3BEsEPARPBD0EPQQ+BDUA--20" -58 0 mark 0
AnchorPoint: "+BBEENQQ3BEsEPARPBD0EPQQ+BDUA--14" -58 0 mark 0
AnchorPoint: "+BBEENQQ3BEsEPARPBD0EPQQ+BDUA--12" -151 -361 basemark 0
AnchorPoint: "+BBEENQQ3BEsEPARPBD0EPQQ+BDUA--10" -58 0 mark 0
AnchorPoint: "+BBEENQQ3BEsEPARPBD0EPQQ+BDUA--7" -58 0 mark 0
LayerCount: 2
Fore
SplineSet
-201 -262 m 1,0,1
 -218 -245 -218 -245 -238 -221 c 128,-1,2
 -258 -197 -258 -197 -271.5 -168 c 128,-1,3
 -285 -139 -285 -139 -285 -108 c 0,4,5
 -285 -64 -285 -64 -259 -40.5 c 128,-1,6
 -233 -17 -233 -17 -198 -17 c 0,7,8
 -154 -17 -154 -17 -113 -51 c 1,9,10
 -100 -35 -100 -35 -80.5 -25.5 c 128,-1,11
 -61 -16 -61 -16 -35 -16 c 0,12,13
 -15 -16 -15 -16 4 -24 c 128,-1,14
 23 -32 23 -32 43 -51 c 0,15,16
 66 -72 66 -72 72 -90 c 128,-1,17
 78 -108 78 -108 78 -123 c 0,18,19
 78 -144 78 -144 67.5 -161 c 128,-1,20
 57 -178 57 -178 43.5 -192.5 c 128,-1,21
 30 -207 30 -207 19.5 -220 c 128,-1,22
 9 -233 9 -233 9 -247 c 0,23,24
 9 -257 9 -257 15 -262 c 128,-1,25
 21 -267 21 -267 28 -267 c 1,26,27
 49 -242 49 -242 86 -230 c 1,28,-1
 129 -275 l 1,29,30
 98 -286 98 -286 82.5 -301 c 128,-1,31
 67 -316 67 -316 67 -330 c 0,32,33
 67 -343 67 -343 83 -343 c 0,34,35
 98 -343 98 -343 112 -334 c 128,-1,36
 126 -325 126 -325 140 -312 c 1,37,-1
 182 -351 l 1,38,39
 166 -370 166 -370 149.5 -380 c 128,-1,40
 133 -390 133 -390 112 -390 c 0,41,42
 94 -390 94 -390 77.5 -381.5 c 128,-1,43
 61 -373 61 -373 44 -360 c 0,44,45
 28 -346 28 -346 20.5 -331.5 c 128,-1,46
 13 -317 13 -317 13 -302 c 0,47,48
 13 -300 13 -300 13 -299 c 0,49,50
 4 -294 4 -294 -9 -284 c 0,51,52
 -28 -269 -28 -269 -36.5 -252.5 c 128,-1,53
 -45 -236 -45 -236 -45 -220 c 0,54,55
 -45 -202 -45 -202 -35.5 -187 c 128,-1,56
 -26 -172 -26 -172 -13.5 -159 c 128,-1,57
 -1 -146 -1 -146 8.5 -131.5 c 128,-1,58
 18 -117 18 -117 18 -101 c 0,59,60
 18 -84 18 -84 8 -73.5 c 128,-1,61
 -2 -63 -2 -63 -19 -63 c 0,62,63
 -45 -63 -45 -63 -63 -84 c 128,-1,64
 -81 -105 -81 -105 -81 -143 c 0,65,66
 -81 -148 -81 -148 -80.5 -158 c 128,-1,67
 -80 -168 -80 -168 -79 -172 c 1,68,-1
 -136 -161 l 1,69,70
 -139 -141 -139 -141 -139 -127 c 0,71,72
 -139 -105 -139 -105 -132 -85 c 1,73,74
 -149 -75 -149 -75 -168 -75 c 0,75,76
 -191 -75 -191 -75 -207.5 -91.5 c 128,-1,77
 -224 -108 -224 -108 -224 -136 c 0,78,79
 -224 -167 -224 -167 -209 -190 c 128,-1,80
 -194 -213 -194 -213 -173 -235 c 1,81,-1
 -201 -262 l 1,0,1
EndSplineSet
Substitution2: "+BBUENAQ4BD0EOARHBD0EMARP +BD8EPgQ0BEEEQgQwBD0EPgQyBDoEMAAA lookup 171 subtable" uni0930094D
Substitution2: "+BBUENAQ4BD0EOARHBD0EMARP +BD8EPgQ0BEEEQgQwBD0EPgQyBDoEMAAA lookup 72 subtable" uni093C0963
EndChar

StartChar: uni0947
Encoding: 2375 2375 40
Width: 0
GlyphClass: 4
Flags: W
AnchorPoint: "+BBEENQQ3BEsEPARPBD0EPQQ+BDUA--18" 10 623 mark 0
AnchorPoint: "+BBEENQQ3BEsEPARPBD0EPQQ+BDUA--6" 19 623 basemark 0
AnchorPoint: "+BBEENQQ3BEsEPARPBD0EPQQ+BDUA--5" 10 623 mark 0
AnchorPoint: "+BBEENQQ3BEsEPARPBD0EPQQ+BDUA--2" 10 623 mark 0
LayerCount: 2
Fore
SplineSet
-49 615 m 1,0,1
 -68 656 -68 656 -86.5 684.5 c 128,-1,2
 -105 713 -105 713 -121 734 c 0,3,4
 -152 775 -152 775 -178 789 c 128,-1,5
 -204 803 -204 803 -240 803 c 0,6,7
 -256 803 -256 803 -277.5 798 c 128,-1,8
 -299 793 -299 793 -316 785 c 1,9,-1
 -362 874 l 1,10,11
 -347 879 -347 879 -326 884 c 128,-1,12
 -305 889 -305 889 -277 889 c 0,13,14
 -228 889 -228 889 -184 864.5 c 128,-1,15
 -140 840 -140 840 -96 780.5 c 128,-1,16
 -52 721 -52 721 -3 615 c 1,17,-1
 -49 615 l 1,0,1
EndSplineSet
Substitution2: "+BBUENAQ4BD0EOARHBD0EMARP +BD8EPgQ0BEEEQgQwBD0EPgQyBDoEMAAA lookup 226 subtable" uni0947.alt
EndChar

StartChar: uni0947.alt
Encoding: 1114113 -1 41
Width: 0
GlyphClass: 4
Flags: W
AnchorPoint: "+BBEENQQ3BEsEPARPBD0EPQQ+BDUA--18" 0 623 mark 0
AnchorPoint: "+BBEENQQ3BEsEPARPBD0EPQQ+BDUA--6" 26 623 basemark 0
AnchorPoint: "+BBEENQQ3BEsEPARPBD0EPQQ+BDUA--5" 0 623 mark 0
AnchorPoint: "+BBEENQQ3BEsEPARPBD0EPQQ+BDUA--2" 0 623 mark 0
LayerCount: 2
Fore
SplineSet
-45 615 m 1,0,-1
 -70 693 l 2,1,2
 -88 749 -88 749 -107 772.5 c 128,-1,3
 -126 796 -126 796 -161 796 c 0,4,5
 -173 796 -173 796 -184.5 794 c 128,-1,6
 -196 792 -196 792 -207 789 c 1,7,-1
 -236 883 l 1,8,9
 -215 889 -215 889 -190 889 c 0,10,11
 -150 889 -150 889 -122 873 c 128,-1,12
 -94 857 -94 857 -72 817.5 c 128,-1,13
 -50 778 -50 778 -30 709 c 2,14,-1
 -3 615 l 1,15,-1
 -45 615 l 1,0,-1
EndSplineSet
EndChar

StartChar: uni0948
Encoding: 2376 2376 42
Width: 0
GlyphClass: 4
Flags: W
AnchorPoint: "+BBEENQQ3BEsEPARPBD0EPQQ+BDUA--18" 0 623 mark 0
AnchorPoint: "+BBEENQQ3BEsEPARPBD0EPQQ+BDUA--6" 7 623 basemark 0
AnchorPoint: "+BBEENQQ3BEsEPARPBD0EPQQ+BDUA--5" 0 623 mark 0
AnchorPoint: "+BBEENQQ3BEsEPARPBD0EPQQ+BDUA--2" 0 623 mark 0
LayerCount: 2
Fore
SplineSet
-64 615 m 1,0,1
 -93 656 -93 656 -125.5 678.5 c 128,-1,2
 -158 701 -158 701 -199 701 c 0,3,4
 -215 701 -215 701 -232.5 697.5 c 128,-1,5
 -250 694 -250 694 -268 688 c 1,6,-1
 -293 757 l 1,7,8
 -278 762 -278 762 -262 765.5 c 128,-1,9
 -246 769 -246 769 -224 769 c 0,10,11
 -187 769 -187 769 -156.5 753 c 128,-1,12
 -126 737 -126 737 -101.5 712 c 128,-1,13
 -77 687 -77 687 -59 660 c 1,14,-1
 -55 661 l 1,15,16
 -83 739 -83 739 -118 782.5 c 128,-1,17
 -153 826 -153 826 -205 826 c 0,18,19
 -232 826 -232 826 -264 814 c 1,20,-1
 -290 883 l 1,21,22
 -278 888 -278 888 -259.5 892.5 c 128,-1,23
 -241 897 -241 897 -218 897 c 0,24,25
 -173 897 -173 897 -138 872.5 c 128,-1,26
 -103 848 -103 848 -70 786.5 c 128,-1,27
 -37 725 -37 725 0 615 c 1,28,-1
 -64 615 l 1,0,1
EndSplineSet
EndChar

StartChar: uni094B
Encoding: 2379 2379 43
Width: 246
GlyphClass: 2
Flags: W
AnchorPoint: "+BBEENQQ3BEsEPARPBD0EPQQ+BDUA--9" 121 -125 basechar 0
AnchorPoint: "+BBEENQQ3BEsEPARPBD0EPQQ+BDUA--8" -30 -6 basechar 0
AnchorPoint: "+BBEENQQ3BEsEPARPBD0EPQQ+BDUA--7" 161 0 basechar 0
AnchorPoint: "+BBEENQQ3BEsEPARPBD0EPQQ+BDUA--3" 180 623 basechar 0
LayerCount: 2
Fore
SplineSet
151 -6 m 1,0,-1
 86 42 l 1,1,-1
 86 555 l 1,2,-1
 0 555 l 1,3,-1
 -40 613 l 1,4,-1
 -40 623 l 1,5,-1
 98 623 l 1,6,7
 80 660 80 660 62.5 687 c 128,-1,8
 45 714 45 714 30 734 c 0,9,10
 -1 775 -1 775 -27 789 c 128,-1,11
 -53 803 -53 803 -89 803 c 0,12,13
 -105 803 -105 803 -126.5 798 c 128,-1,14
 -148 793 -148 793 -165 785 c 1,15,-1
 -211 874 l 1,16,17
 -196 879 -196 879 -175 884 c 128,-1,18
 -154 889 -154 889 -126 889 c 0,19,20
 -77 889 -77 889 -33 865 c 128,-1,21
 11 841 11 841 54 783 c 128,-1,22
 97 725 97 725 144 623 c 1,23,-1
 246 623 l 1,24,-1
 286 564 l 1,25,-1
 286 555 l 1,26,-1
 161 555 l 1,27,-1
 161 -6 l 1,28,-1
 151 -6 l 1,0,-1
EndSplineSet
Substitution2: "+BBUENAQ4BD0EOARHBD0EMARP +BD8EPgQ0BEEEQgQwBD0EPgQyBDoEMAAA lookup 5 subtable" uni093E
EndChar

StartChar: uni094C
Encoding: 2380 2380 44
Width: 246
GlyphClass: 2
Flags: W
AnchorPoint: "+BBEENQQ3BEsEPARPBD0EPQQ+BDUA--9" 121 -125 basechar 0
AnchorPoint: "+BBEENQQ3BEsEPARPBD0EPQQ+BDUA--8" -30 -6 basechar 0
AnchorPoint: "+BBEENQQ3BEsEPARPBD0EPQQ+BDUA--7" 161 0 basechar 0
AnchorPoint: "+BBEENQQ3BEsEPARPBD0EPQQ+BDUA--3" 167 623 basechar 0
LayerCount: 2
Fore
SplineSet
151 -6 m 1,0,-1
 86 42 l 1,1,-1
 86 555 l 1,2,-1
 0 555 l 1,3,-1
 -40 613 l 1,4,-1
 -40 623 l 1,5,-1
 91 623 l 1,6,7
 63 660 63 660 32 680.5 c 128,-1,8
 1 701 1 701 -38 701 c 0,9,10
 -54 701 -54 701 -71.5 697.5 c 128,-1,11
 -89 694 -89 694 -107 688 c 1,12,-1
 -132 757 l 1,13,14
 -117 762 -117 762 -101 765.5 c 128,-1,15
 -85 769 -85 769 -63 769 c 0,16,17
 -26 769 -26 769 4.5 753 c 128,-1,18
 35 737 35 737 59.5 712 c 128,-1,19
 84 687 84 687 102 660 c 1,20,-1
 106 661 l 1,21,22
 78 739 78 739 43 782.5 c 128,-1,23
 8 826 8 826 -44 826 c 0,24,25
 -71 826 -71 826 -103 814 c 1,26,-1
 -129 883 l 1,27,28
 -117 888 -117 888 -98.5 892.5 c 128,-1,29
 -80 897 -80 897 -57 897 c 0,30,31
 -12 897 -12 897 23 872.5 c 128,-1,32
 58 848 58 848 90 788.5 c 128,-1,33
 122 729 122 729 158 623 c 1,34,-1
 246 623 l 1,35,-1
 286 564 l 1,36,-1
 286 555 l 1,37,-1
 161 555 l 1,38,-1
 161 -6 l 1,39,-1
 151 -6 l 1,0,-1
EndSplineSet
Substitution2: "+BBUENAQ4BD0EOARHBD0EMARP +BD8EPgQ0BEEEQgQwBD0EPgQyBDoEMAAA lookup 5 subtable" uni093E
EndChar

StartChar: uni0945
Encoding: 2373 2373 45
Width: 0
GlyphClass: 4
Flags: W
AnchorPoint: "+BBEENQQ3BEsEPARPBD0EPQQ+BDUA--16" -20 623 mark 0
AnchorPoint: "+BBEENQQ3BEsEPARPBD0EPQQ+BDUA--4" -20 623 mark 0
AnchorPoint: "+BBEENQQ3BEsEPARPBD0EPQQ+BDUA--0" -20 623 mark 0
LayerCount: 2
Fore
SplineSet
-33 682 m 0,0,1
 -110 682 -110 682 -158 730.5 c 128,-1,2
 -206 779 -206 779 -222 864 c 1,3,-1
 -182 875 l 1,4,5
 -171 816 -171 816 -136 781.5 c 128,-1,6
 -101 747 -101 747 -46 747 c 0,7,8
 4 747 4 747 37 776.5 c 128,-1,9
 70 806 70 806 77 875 c 1,10,-1
 147 856 l 1,11,12
 135 768 135 768 85.5 725 c 128,-1,13
 36 682 36 682 -33 682 c 0,0,1
EndSplineSet
EndChar

StartChar: uni0946
Encoding: 2374 2374 47
Width: 0
GlyphClass: 4
Flags: W
AnchorPoint: "+BBEENQQ3BEsEPARPBD0EPQQ+BDUA--18" 0 623 mark 0
AnchorPoint: "+BBEENQQ3BEsEPARPBD0EPQQ+BDUA--6" 19 623 basemark 0
AnchorPoint: "+BBEENQQ3BEsEPARPBD0EPQQ+BDUA--5" 0 623 mark 0
AnchorPoint: "+BBEENQQ3BEsEPARPBD0EPQQ+BDUA--2" 0 623 mark 0
LayerCount: 2
Fore
SplineSet
-40 615 m 1,0,1
 -53 679 -53 679 -71.5 704 c 128,-1,2
 -90 729 -90 729 -128 729 c 0,3,4
 -151 729 -151 729 -168.5 727.5 c 128,-1,5
 -186 726 -186 726 -206 726 c 0,6,7
 -259 726 -259 726 -294 761 c 128,-1,8
 -329 796 -329 796 -351 872 c 1,9,-1
 -314 884 l 1,10,11
 -304 853 -304 853 -286 831 c 128,-1,12
 -268 809 -268 809 -231 809 c 0,13,14
 -202 809 -202 809 -183.5 811 c 128,-1,15
 -165 813 -165 813 -140 813 c 0,16,17
 -106 813 -106 813 -80 796 c 128,-1,18
 -54 779 -54 779 -34.5 736 c 128,-1,19
 -15 693 -15 693 -3 615 c 1,20,-1
 -40 615 l 1,0,1
EndSplineSet
EndChar

StartChar: uni094A
Encoding: 2378 2378 48
Width: 246
GlyphClass: 2
Flags: W
AnchorPoint: "+BBEENQQ3BEsEPARPBD0EPQQ+BDUA--9" 121 -125 basechar 0
AnchorPoint: "+BBEENQQ3BEsEPARPBD0EPQQ+BDUA--8" -30 -6 basechar 0
AnchorPoint: "+BBEENQQ3BEsEPARPBD0EPQQ+BDUA--7" 161 0 basechar 0
AnchorPoint: "+BBEENQQ3BEsEPARPBD0EPQQ+BDUA--3" 190 623 basechar 0
LayerCount: 2
Fore
SplineSet
151 -6 m 1,0,-1
 86 42 l 1,1,-1
 86 555 l 1,2,-1
 0 555 l 1,3,-1
 -40 613 l 1,4,-1
 -40 623 l 1,5,-1
 119 623 l 1,6,7
 106 682 106 682 87.5 705.5 c 128,-1,8
 69 729 69 729 33 729 c 0,9,10
 10 729 10 729 -7.5 727.5 c 128,-1,11
 -25 726 -25 726 -45 726 c 0,12,13
 -98 726 -98 726 -133 761 c 128,-1,14
 -168 796 -168 796 -190 872 c 1,15,-1
 -153 884 l 1,16,17
 -143 853 -143 853 -125 831 c 128,-1,18
 -107 809 -107 809 -70 809 c 0,19,20
 -41 809 -41 809 -22.5 811 c 128,-1,21
 -4 813 -4 813 21 813 c 0,22,23
 55 813 55 813 81 796.5 c 128,-1,24
 107 780 107 780 126 738.5 c 128,-1,25
 145 697 145 697 157 623 c 1,26,-1
 246 623 l 1,27,-1
 286 564 l 1,28,-1
 286 555 l 1,29,-1
 161 555 l 1,30,-1
 161 -6 l 1,31,-1
 151 -6 l 1,0,-1
EndSplineSet
Substitution2: "+BBUENAQ4BD0EOARHBD0EMARP +BD8EPgQ0BEEEQgQwBD0EPgQyBDoEMAAA lookup 5 subtable" uni093E
EndChar

StartChar: uni0956
Encoding: 2390 2390 49
Width: 0
GlyphClass: 4
Flags: W
AnchorPoint: "+BBEENQQ3BEsEPARPBD0EPQQ+BDUA--21" -301 0 mark 0
AnchorPoint: "+BBEENQQ3BEsEPARPBD0EPQQ+BDUA--15" -301 0 mark 0
AnchorPoint: "+BBEENQQ3BEsEPARPBD0EPQQ+BDUA--12" -301 0 mark 0
AnchorPoint: "+BBEENQQ3BEsEPARPBD0EPQQ+BDUA--11" -254 -82 mark 0
AnchorPoint: "+BBEENQQ3BEsEPARPBD0EPQQ+BDUA--8" -301 0 mark 0
LayerCount: 2
Fore
SplineSet
-282 -171 m 0,0,1
 -344 -171 -344 -171 -397 -148 c 128,-1,2
 -450 -125 -450 -125 -490 -87 c 1,3,-1
 -459 -57 l 1,4,5
 -427 -84 -427 -84 -384 -97 c 128,-1,6
 -341 -110 -341 -110 -298 -110 c 0,7,8
 -253 -110 -253 -110 -214 -94.5 c 128,-1,9
 -175 -79 -175 -79 -142 -51 c 1,10,-1
 -88 -101 l 1,11,12
 -140 -141 -140 -141 -190 -156 c 128,-1,13
 -240 -171 -240 -171 -282 -171 c 0,0,1
EndSplineSet
Substitution2: "+BBUENAQ4BD0EOARHBD0EMARP +BD8EPgQ0BEEEQgQwBD0EPgQyBDoEMAAA lookup 189 subtable" uni0956.001
EndChar

StartChar: uni0957
Encoding: 2391 2391 50
Width: 0
GlyphClass: 4
Flags: W
AnchorPoint: "+BBEENQQ3BEsEPARPBD0EPQQ+BDUA--21" -301 0 mark 0
AnchorPoint: "+BBEENQQ3BEsEPARPBD0EPQQ+BDUA--15" -301 0 mark 0
AnchorPoint: "+BBEENQQ3BEsEPARPBD0EPQQ+BDUA--12" -301 0 mark 0
AnchorPoint: "+BBEENQQ3BEsEPARPBD0EPQQ+BDUA--11" -254 -82 mark 0
AnchorPoint: "+BBEENQQ3BEsEPARPBD0EPQQ+BDUA--8" -301 0 mark 0
LayerCount: 2
Fore
SplineSet
-282 -171 m 0,0,1
 -344 -171 -344 -171 -397 -148 c 128,-1,2
 -450 -125 -450 -125 -490 -87 c 1,3,-1
 -459 -57 l 1,4,5
 -427 -84 -427 -84 -384 -97 c 128,-1,6
 -341 -110 -341 -110 -298 -110 c 0,7,8
 -253 -110 -253 -110 -214 -94.5 c 128,-1,9
 -175 -79 -175 -79 -142 -51 c 1,10,-1
 -88 -101 l 1,11,12
 -140 -141 -140 -141 -190 -156 c 128,-1,13
 -240 -171 -240 -171 -282 -171 c 0,0,1
-282 -311 m 0,14,15
 -344 -311 -344 -311 -397 -288 c 128,-1,16
 -450 -265 -450 -265 -490 -227 c 1,17,-1
 -459 -197 l 1,18,19
 -427 -223 -427 -223 -384 -236.5 c 128,-1,20
 -341 -250 -341 -250 -298 -250 c 0,21,22
 -253 -250 -253 -250 -214 -234 c 128,-1,23
 -175 -218 -175 -218 -142 -190 c 1,24,-1
 -88 -241 l 1,25,26
 -140 -281 -140 -281 -190 -296 c 128,-1,27
 -240 -311 -240 -311 -282 -311 c 0,14,15
EndSplineSet
Substitution2: "+BBUENAQ4BD0EOARHBD0EMARP +BD8EPgQ0BEEEQgQwBD0EPgQyBDoEMAAA lookup 189 subtable" uni0957.001
EndChar

StartChar: uni093A
Encoding: 2362 2362 51
Width: 0
GlyphClass: 4
Flags: W
AnchorPoint: "+BBEENQQ3BEsEPARPBD0EPQQ+BDUA--18" -84 623 mark 0
AnchorPoint: "+BBEENQQ3BEsEPARPBD0EPQQ+BDUA--6" 1 623 basemark 0
AnchorPoint: "+BBEENQQ3BEsEPARPBD0EPQQ+BDUA--5" -84 623 mark 0
AnchorPoint: "+BBEENQQ3BEsEPARPBD0EPQQ+BDUA--4" 88 654 basemark 0
AnchorPoint: "+BBEENQQ3BEsEPARPBD0EPQQ+BDUA--2" -84 623 mark 0
LayerCount: 2
Fore
SplineSet
-150 795 m 1,0,-1
 -84 747 l 1,1,-1
 -84 602 l 1,2,-1
 -160 602 l 1,3,-1
 -160 795 l 1,4,-1
 -150 795 l 1,0,-1
EndSplineSet
EndChar

StartChar: uni093B
Encoding: 2363 2363 52
Width: 246
GlyphClass: 2
Flags: W
AnchorPoint: "+BBEENQQ3BEsEPARPBD0EPQQ+BDUA--9" 121 -125 basechar 0
AnchorPoint: "+BBEENQQ3BEsEPARPBD0EPQQ+BDUA--8" -30 -6 basechar 0
AnchorPoint: "+BBEENQQ3BEsEPARPBD0EPQQ+BDUA--7" 161 0 basechar 0
AnchorPoint: "+BBEENQQ3BEsEPARPBD0EPQQ+BDUA--3" 210 623 basechar 0
AnchorPoint: "+BBEENQQ3BEsEPARPBD0EPQQ+BDUA--0" 333 654 basechar 0
LayerCount: 2
Fore
SplineSet
151 -6 m 1,0,-1
 86 42 l 1,1,-1
 86 555 l 1,2,-1
 0 555 l 1,3,-1
 -40 613 l 1,4,-1
 -40 623 l 1,5,-1
 85 623 l 1,6,-1
 85 795 l 1,7,-1
 95 795 l 1,8,-1
 161 747 l 1,9,-1
 161 623 l 1,10,-1
 246 623 l 1,11,-1
 286 564 l 1,12,-1
 286 555 l 1,13,-1
 161 555 l 1,14,-1
 161 -6 l 1,15,-1
 151 -6 l 1,0,-1
EndSplineSet
Substitution2: "+BBUENAQ4BD0EOARHBD0EMARP +BD8EPgQ0BEEEQgQwBD0EPgQyBDoEMAAA lookup 5 subtable" uni093E
EndChar

StartChar: ayMatradeva
Encoding: 43263 43263 53
Width: 0
GlyphClass: 4
Flags: W
AnchorPoint: "+BBEENQQ3BEsEPARPBD0EPQQ+BDUA--18" 0 622 mark 0
AnchorPoint: "+BBEENQQ3BEsEPARPBD0EPQQ+BDUA--6" 79 623 basemark 0
AnchorPoint: "+BBEENQQ3BEsEPARPBD0EPQQ+BDUA--5" 0 622 mark 0
AnchorPoint: "+BBEENQQ3BEsEPARPBD0EPQQ+BDUA--4" 148 658 basemark 0
AnchorPoint: "+BBEENQQ3BEsEPARPBD0EPQQ+BDUA--2" 0 622 mark 0
LayerCount: 2
Fore
SplineSet
-15 615 m 1,0,1
 -11 631 -11 631 -9.5 645 c 128,-1,2
 -8 659 -8 659 -8 672 c 0,3,4
 -8 710 -8 710 -28.5 737.5 c 128,-1,5
 -49 765 -49 765 -100 784 c 0,6,7
 -141 799 -141 799 -164.5 821.5 c 128,-1,8
 -188 844 -188 844 -188 893 c 0,9,10
 -188 911 -188 911 -184 930 c 1,11,-1
 -143 925 l 1,12,13
 -144 918 -144 918 -144 915 c 128,-1,14
 -144 912 -144 912 -144 908 c 0,15,16
 -144 886 -144 886 -126 876 c 128,-1,17
 -108 866 -108 866 -76 855 c 0,18,19
 -8 831 -8 831 16.5 794 c 128,-1,20
 41 757 41 757 41 715 c 0,21,22
 41 691 41 691 34 665.5 c 128,-1,23
 27 640 27 640 16 615 c 1,24,-1
 -15 615 l 1,0,1
-66 615 m 1,25,26
 -65 617 -65 617 -65 623 c 0,27,28
 -65 653 -65 653 -88.5 668.5 c 128,-1,29
 -112 684 -112 684 -147 684 c 0,30,31
 -175 684 -175 684 -197.5 678 c 128,-1,32
 -220 672 -220 672 -247 672 c 0,33,34
 -307 672 -307 672 -337.5 705.5 c 128,-1,35
 -368 739 -368 739 -378 797 c 1,36,-1
 -341 806 l 1,37,38
 -333 772 -333 772 -312.5 757 c 128,-1,39
 -292 742 -292 742 -257 742 c 0,40,41
 -233 742 -233 742 -207 748 c 128,-1,42
 -181 754 -181 754 -153 754 c 0,43,44
 -97 754 -97 754 -64.5 723.5 c 128,-1,45
 -32 693 -32 693 -32 639 c 0,46,47
 -32 627 -32 627 -34 615 c 1,48,-1
 -66 615 l 1,25,26
EndSplineSet
EndChar

StartChar: uni094F
Encoding: 2383 2383 54
Width: 246
GlyphClass: 2
Flags: W
AnchorPoint: "+BBEENQQ3BEsEPARPBD0EPQQ+BDUA--9" 121 -125 basechar 0
AnchorPoint: "+BBEENQQ3BEsEPARPBD0EPQQ+BDUA--8" -30 -6 basechar 0
AnchorPoint: "+BBEENQQ3BEsEPARPBD0EPQQ+BDUA--7" 161 0 basechar 0
AnchorPoint: "+BBEENQQ3BEsEPARPBD0EPQQ+BDUA--3" 227 623 basechar 0
AnchorPoint: "+BBEENQQ3BEsEPARPBD0EPQQ+BDUA--0" 302 659 basechar 0
LayerCount: 2
Fore
SplineSet
151 -6 m 1,0,-1
 86 42 l 1,1,-1
 86 555 l 1,2,-1
 0 555 l 1,3,-1
 -40 613 l 1,4,-1
 -40 623 l 1,5,-1
 89 623 l 1,6,-1
 89 624 l 2,7,8
 89 654 89 654 65.5 669.5 c 128,-1,9
 42 685 42 685 7 685 c 0,10,11
 -21 685 -21 685 -43.5 679 c 128,-1,12
 -66 673 -66 673 -93 673 c 0,13,14
 -153 673 -153 673 -183.5 706.5 c 128,-1,15
 -214 740 -214 740 -224 798 c 1,16,-1
 -187 807 l 1,17,18
 -179 773 -179 773 -158.5 758 c 128,-1,19
 -138 743 -138 743 -103 743 c 0,20,21
 -79 743 -79 743 -53 749 c 128,-1,22
 -27 755 -27 755 1 755 c 0,23,24
 57 755 57 755 89.5 724.5 c 128,-1,25
 122 694 122 694 122 640 c 0,26,27
 122 633 122 633 121 623 c 1,28,-1
 141 623 l 1,29,30
 146 649 146 649 146 673 c 0,31,32
 146 711 146 711 125.5 738.5 c 128,-1,33
 105 766 105 766 54 785 c 0,34,35
 13 800 13 800 -10.5 822.5 c 128,-1,36
 -34 845 -34 845 -34 894 c 0,37,38
 -34 912 -34 912 -30 931 c 1,39,-1
 11 926 l 1,40,41
 10 919 10 919 10 916 c 128,-1,42
 10 913 10 913 10 909 c 0,43,44
 10 887 10 887 28 877 c 128,-1,45
 46 867 46 867 78 856 c 0,46,47
 146 832 146 832 170.5 795 c 128,-1,48
 195 758 195 758 195 716 c 0,49,50
 195 694 195 694 189 670 c 128,-1,51
 183 646 183 646 173 623 c 1,52,-1
 246 623 l 1,53,-1
 286 564 l 1,54,-1
 286 555 l 1,55,-1
 161 555 l 1,56,-1
 161 -6 l 1,57,-1
 151 -6 l 1,0,-1
EndSplineSet
Substitution2: "+BBUENAQ4BD0EOARHBD0EMARP +BD8EPgQ0BEEEQgQwBD0EPgQyBDoEMAAA lookup 5 subtable" uni093E
EndChar

StartChar: uni094E
Encoding: 2382 2382 55
Width: 258
GlyphClass: 2
Flags: W
AnchorPoint: "+BBEENQQ3BEsEPARPBD0EPQQ+BDUA--2" 173 623 basechar 0
AnchorPoint: "+BBEENQQ3BEsEPARPBD0EPQQ+BDUA--0" 153 623 basechar 0
LayerCount: 2
Fore
SplineSet
164 -6 m 1,0,-1
 98 42 l 1,1,-1
 98 555 l 1,2,-1
 59 612 l 1,3,-1
 59 623 l 1,4,-1
 258 623 l 1,5,-1
 298 564 l 1,6,-1
 298 555 l 1,7,-1
 173 555 l 1,8,-1
 173 -6 l 1,9,-1
 164 -6 l 1,0,-1
EndSplineSet
EndChar

StartChar: uni0955
Encoding: 2389 2389 56
Width: 0
GlyphClass: 4
Flags: W
AnchorPoint: "+BBEENQQ3BEsEPARPBD0EPQQ+BDUA--16" -20 623 mark 0
AnchorPoint: "+BBEENQQ3BEsEPARPBD0EPQQ+BDUA--4" -20 623 mark 0
AnchorPoint: "+BBEENQQ3BEsEPARPBD0EPQQ+BDUA--0" -20 623 mark 0
LayerCount: 2
Fore
SplineSet
-33 765 m 0,0,1
 -109 765 -109 765 -158.5 806 c 128,-1,2
 -208 847 -208 847 -222 919 c 1,3,-1
 -182 930 l 1,4,5
 -173 887 -173 887 -136 858 c 128,-1,6
 -99 829 -99 829 -46 829 c 0,7,8
 2 829 2 829 36.5 854 c 128,-1,9
 71 879 71 879 77 930 c 1,10,-1
 147 911 l 1,11,12
 137 841 137 841 85.5 803 c 128,-1,13
 34 765 34 765 -33 765 c 0,0,1
-176 677 m 1,14,-1
 -215 729 l 1,15,-1
 -215 739 l 1,16,-1
 101 739 l 1,17,-1
 140 688 l 1,18,-1
 140 677 l 1,19,-1
 -176 677 l 1,14,-1
EndSplineSet
EndChar

StartChar: uni0915
Encoding: 2325 2325 57
Width: 711
GlyphClass: 2
Flags: W
AnchorPoint: "+BBEENQQ3BEsEPARPBD0EPQQ+BDUA--9" 172 7 basechar 0
AnchorPoint: "+BBEENQQ3BEsEPARPBD0EPQQ+BDUA--8" 355 -6 basechar 0
AnchorPoint: "+BBEENQQ3BEsEPARPBD0EPQQ+BDUA--7" 418 0 basechar 0
AnchorPoint: "+BBEENQQ3BEsEPARPBD0EPQQ+BDUA--2" 418 623 basechar 0
AnchorPoint: "+BBEENQQ3BEsEPARPBD0EPQQ+BDUA--0" 398 623 basechar 0
LayerCount: 2
Fore
SplineSet
231 126 m 0,0,1
 185 126 185 126 154.5 142 c 128,-1,2
 124 158 124 158 98 183 c 0,3,4
 71 209 71 209 55 240 c 128,-1,5
 39 271 39 271 39 308 c 0,6,7
 39 352 39 352 61.5 384 c 128,-1,8
 84 416 84 416 119 433.5 c 128,-1,9
 154 451 154 451 193 451 c 0,10,11
 245 451 245 451 281.5 434 c 128,-1,12
 318 417 318 417 343 398 c 1,13,-1
 343 555 l 1,14,-1
 0 555 l 1,15,-1
 -40 612 l 1,16,-1
 -40 623 l 1,17,-1
 711 623 l 1,18,-1
 751 564 l 1,19,-1
 751 555 l 1,20,-1
 418 555 l 1,21,-1
 418 363 l 1,22,23
 441 382 441 382 466 394 c 128,-1,24
 491 406 491 406 520 406 c 0,25,26
 552 406 552 406 578 393 c 128,-1,27
 604 380 604 380 626 360 c 0,28,29
 649 338 649 338 661.5 308 c 128,-1,30
 674 278 674 278 674 236 c 256,31,32
 674 194 674 194 653.5 150.5 c 128,-1,33
 633 107 633 107 605 76 c 1,34,-1
 537 125 l 1,35,36
 552 145 552 145 569.5 170 c 128,-1,37
 587 195 587 195 599.5 223.5 c 128,-1,38
 612 252 612 252 612 282 c 0,39,40
 612 309 612 309 597 326 c 128,-1,41
 582 343 582 343 557 343 c 0,42,43
 520 343 520 343 483.5 314.5 c 128,-1,44
 447 286 447 286 418 254 c 1,45,-1
 418 -6 l 1,46,-1
 409 -6 l 1,47,-1
 343 42 l 1,48,-1
 343 174 l 1,49,50
 323 154 323 154 294.5 140 c 128,-1,51
 266 126 266 126 231 126 c 0,0,1
106 271 m 0,52,53
 106 240 106 240 128 216.5 c 128,-1,54
 150 193 150 193 194 193 c 0,55,56
 236 193 236 193 274.5 217 c 128,-1,57
 313 241 313 241 343 281 c 1,58,-1
 343 350 l 1,59,60
 293 383 293 383 235 383 c 0,61,62
 194 383 194 383 165 366 c 128,-1,63
 136 349 136 349 121 323.5 c 128,-1,64
 106 298 106 298 106 271 c 0,52,53
EndSplineSet
EndChar

StartChar: uni0916
Encoding: 2326 2326 58
Width: 738
GlyphClass: 2
Flags: W
AnchorPoint: "+BBEENQQ3BEsEPARPBD0EPQQ+BDUA--9" 114 -17 basechar 0
AnchorPoint: "+BBEENQQ3BEsEPARPBD0EPQQ+BDUA--8" 369 -6 basechar 0
AnchorPoint: "+BBEENQQ3BEsEPARPBD0EPQQ+BDUA--7" 653 0 basechar 0
AnchorPoint: "+BBEENQQ3BEsEPARPBD0EPQQ+BDUA--2" 653 623 basechar 0
AnchorPoint: "+BBEENQQ3BEsEPARPBD0EPQQ+BDUA--0" 633 623 basechar 0
LayerCount: 2
Fore
SplineSet
389 11 m 0,0,1
 319 11 319 11 259.5 40.5 c 128,-1,2
 200 70 200 70 154.5 116 c 128,-1,3
 109 162 109 162 80 211 c 0,4,5
 63 240 63 240 51.5 268 c 128,-1,6
 40 296 40 296 40 318 c 0,7,8
 40 372 40 372 97 372 c 0,9,10
 132 372 132 372 175 351 c 1,11,12
 187 370 187 370 191 393.5 c 128,-1,13
 195 417 195 417 195 443 c 0,14,15
 195 472 195 472 190.5 501 c 128,-1,16
 186 530 186 530 179 555 c 1,17,-1
 0 555 l 1,18,-1
 -40 613 l 1,19,-1
 -40 623 l 1,20,-1
 738 623 l 1,21,-1
 778 564 l 1,22,-1
 778 555 l 1,23,-1
 653 555 l 1,24,-1
 653 -6 l 1,25,-1
 644 -6 l 1,26,-1
 578 42 l 1,27,-1
 578 63 l 1,28,29
 546 41 546 41 498.5 26 c 128,-1,30
 451 11 451 11 389 11 c 0,0,1
497 180 m 0,31,32
 463 180 463 180 429.5 194.5 c 128,-1,33
 396 209 396 209 370 234 c 0,34,35
 346 257 346 257 332 285 c 128,-1,36
 318 313 318 313 318 345 c 0,37,38
 318 385 318 385 338 413 c 128,-1,39
 358 441 358 441 391 456 c 128,-1,40
 424 471 424 471 462 471 c 0,41,42
 493 471 493 471 523 459.5 c 128,-1,43
 553 448 553 448 578 429 c 1,44,-1
 578 555 l 1,45,-1
 245 555 l 1,46,47
 255 520 255 520 261.5 484 c 128,-1,48
 268 448 268 448 268 413 c 0,49,50
 268 343 268 343 236 301 c 128,-1,51
 204 259 204 259 139 251 c 0,52,53
 130 250 130 250 122 249 c 1,54,55
 152 176 152 176 211 129.5 c 128,-1,56
 270 83 270 83 376 83 c 0,57,58
 447 83 447 83 496.5 101.5 c 128,-1,59
 546 120 546 120 578 146 c 1,60,-1
 578 206 l 1,61,62
 560 192 560 192 539.5 186 c 128,-1,63
 519 180 519 180 497 180 c 0,31,32
384 314 m 0,64,65
 384 278 384 278 408 259.5 c 128,-1,66
 432 241 432 241 464 241 c 0,67,68
 494 241 494 241 525 255.5 c 128,-1,69
 556 270 556 270 578 294 c 1,70,-1
 578 389 l 1,71,72
 542 404 542 404 503 404 c 0,73,74
 473 404 473 404 446 394 c 128,-1,75
 419 384 419 384 401.5 364.5 c 128,-1,76
 384 345 384 345 384 314 c 0,64,65
EndSplineSet
EndChar

StartChar: uni0917
Encoding: 2327 2327 59
Width: 525
GlyphClass: 2
Flags: W
AnchorPoint: "+BBEENQQ3BEsEPARPBD0EPQQ+BDUA--9" 131 68 basechar 0
AnchorPoint: "+BBEENQQ3BEsEPARPBD0EPQQ+BDUA--8" 262 -6 basechar 0
AnchorPoint: "+BBEENQQ3BEsEPARPBD0EPQQ+BDUA--7" 440 0 basechar 0
AnchorPoint: "+BBEENQQ3BEsEPARPBD0EPQQ+BDUA--2" 440 623 basechar 0
AnchorPoint: "+BBEENQQ3BEsEPARPBD0EPQQ+BDUA--0" 420 623 basechar 0
LayerCount: 2
Fore
SplineSet
154 188 m 0,0,1
 126 188 126 188 99 209 c 128,-1,2
 72 230 72 230 53.5 260.5 c 128,-1,3
 35 291 35 291 35 319 c 0,4,5
 35 340 35 340 46.5 352.5 c 128,-1,6
 58 365 58 365 83 365 c 0,7,8
 109 365 109 365 125 362 c 1,9,10
 127 373 127 373 128 392 c 128,-1,11
 129 411 129 411 129 426 c 0,12,13
 129 451 129 451 127.5 482.5 c 128,-1,14
 126 514 126 514 122 555 c 1,15,-1
 0 555 l 1,16,-1
 -40 612 l 1,17,-1
 -40 623 l 1,18,-1
 526 623 l 1,19,-1
 565 564 l 1,20,-1
 565 555 l 1,21,-1
 440 555 l 1,22,-1
 440 -6 l 1,23,-1
 430 -6 l 1,24,-1
 365 42 l 1,25,-1
 365 555 l 1,26,-1
 184 555 l 1,27,28
 191 516 191 516 199.5 441 c 128,-1,29
 208 366 208 366 208 281 c 0,30,31
 208 232 208 232 194 210 c 128,-1,32
 180 188 180 188 154 188 c 0,0,1
EndSplineSet
EndChar

StartChar: uni0918
Encoding: 2328 2328 60
Width: 551
GlyphClass: 2
Flags: W
AnchorPoint: "+BBEENQQ3BEsEPARPBD0EPQQ+BDUA--9" 185 -7 basechar 0
AnchorPoint: "+BBEENQQ3BEsEPARPBD0EPQQ+BDUA--8" 275 -6 basechar 0
AnchorPoint: "+BBEENQQ3BEsEPARPBD0EPQQ+BDUA--7" 466 0 basechar 0
AnchorPoint: "+BBEENQQ3BEsEPARPBD0EPQQ+BDUA--2" 466 623 basechar 0
AnchorPoint: "+BBEENQQ3BEsEPARPBD0EPQQ+BDUA--0" 446 623 basechar 0
LayerCount: 2
Fore
SplineSet
264 111 m 0,0,1
 228 111 228 111 193.5 123.5 c 128,-1,2
 159 136 159 136 129 168 c 0,3,4
 107 191 107 191 89 220 c 128,-1,5
 71 249 71 249 71 281 c 0,6,7
 71 317 71 317 92 343.5 c 128,-1,8
 113 370 113 370 146 387 c 1,9,10
 102 407 102 407 74 438 c 128,-1,11
 46 469 46 469 46 516 c 0,12,13
 46 534 46 534 53 555 c 1,14,-1
 0 555 l 1,15,-1
 -40 613 l 1,16,-1
 -40 623 l 1,17,-1
 551 623 l 1,18,-1
 591 564 l 1,19,-1
 591 555 l 1,20,-1
 466 555 l 1,21,-1
 466 -6 l 1,22,-1
 456 -6 l 1,23,-1
 391 42 l 1,24,-1
 391 161 l 1,25,26
 371 144 371 144 338.5 127.5 c 128,-1,27
 306 111 306 111 264 111 c 0,0,1
145 242 m 0,28,29
 145 215 145 215 164 198.5 c 128,-1,30
 183 182 183 182 224 182 c 0,31,32
 271 182 271 182 315.5 208 c 128,-1,33
 360 234 360 234 391 270 c 1,34,-1
 391 555 l 1,35,-1
 146 555 l 1,36,37
 132 533 132 533 132 507 c 0,38,39
 132 479 132 479 146 453 c 128,-1,40
 160 427 160 427 191 405 c 1,41,42
 223 415 223 415 260 418 c 1,43,-1
 312 345 l 1,44,45
 242 341 242 341 193.5 313.5 c 128,-1,46
 145 286 145 286 145 242 c 0,28,29
EndSplineSet
EndChar

StartChar: uni0919
Encoding: 2329 2329 61
Width: 569
GlyphClass: 2
Flags: W
AnchorPoint: "+BBEENQQ3BEsEPARPBD0EPQQ+BDUA--9" 278 -105 basechar 0
AnchorPoint: "+BBEENQQ3BEsEPARPBD0EPQQ+BDUA--8" 258 -10 basechar 0
AnchorPoint: "+BBEENQQ3BEsEPARPBD0EPQQ+BDUA--7" 350 -10 basechar 0
AnchorPoint: "+BBEENQQ3BEsEPARPBD0EPQQ+BDUA--2" 407 623 basechar 0
AnchorPoint: "+BBEENQQ3BEsEPARPBD0EPQQ+BDUA--0" 387 623 basechar 0
LayerCount: 2
Fore
SplineSet
304 5 m 0,0,1
 222 5 222 5 150 51 c 128,-1,2
 78 97 78 97 19 182 c 1,3,-1
 56 209 l 1,4,5
 100 145 100 145 155.5 110.5 c 128,-1,6
 211 76 211 76 268 76 c 0,7,8
 333 76 333 76 376 104.5 c 128,-1,9
 419 133 419 133 419 179 c 0,10,11
 419 209 419 209 400 223 c 128,-1,12
 381 237 381 237 355 237 c 0,13,14
 335 237 335 237 303 228 c 128,-1,15
 271 219 271 219 227 191 c 1,16,17
 199 208 199 208 170.5 234 c 128,-1,18
 142 260 142 260 123 292.5 c 128,-1,19
 104 325 104 325 104 360 c 0,20,21
 104 411 104 411 141 439.5 c 128,-1,22
 178 468 178 468 248 468 c 0,23,24
 279 468 279 468 332 463 c 1,25,-1
 332 555 l 1,26,-1
 0 555 l 1,27,-1
 -40 613 l 1,28,-1
 -40 623 l 1,29,-1
 570 623 l 1,30,-1
 609 564 l 1,31,-1
 609 555 l 1,32,-1
 407 555 l 1,33,-1
 407 405 l 1,34,35
 383 408 383 408 366 409 c 128,-1,36
 349 410 349 410 329 410 c 0,37,38
 241 410 241 410 204.5 386 c 128,-1,39
 168 362 168 362 168 327 c 0,40,41
 168 310 168 310 177 295.5 c 128,-1,42
 186 281 186 281 201 270 c 1,43,44
 235 291 235 291 267.5 300 c 128,-1,45
 300 309 300 309 323 309 c 0,46,47
 353 309 353 309 380 298.5 c 128,-1,48
 407 288 407 288 434 258 c 0,49,50
 455 234 455 234 466 209 c 128,-1,51
 477 184 477 184 477 156 c 0,52,53
 477 116 477 116 457.5 81.5 c 128,-1,54
 438 47 438 47 399.5 26 c 128,-1,55
 361 5 361 5 304 5 c 0,0,1
496 297 m 0,56,57
 474 297 474 297 459.5 308.5 c 128,-1,58
 445 320 445 320 445 351 c 0,59,60
 445 383 445 383 459.5 394 c 128,-1,61
 474 405 474 405 496 405 c 0,62,63
 516 405 516 405 531 394 c 128,-1,64
 546 383 546 383 546 351 c 0,65,66
 546 320 546 320 531 308.5 c 128,-1,67
 516 297 516 297 496 297 c 0,56,57
EndSplineSet
EndChar

StartChar: uni091A
Encoding: 2330 2330 62
Width: 575
GlyphClass: 2
Flags: W
AnchorPoint: "+BBEENQQ3BEsEPARPBD0EPQQ+BDUA--9" 157 13 basechar 0
AnchorPoint: "+BBEENQQ3BEsEPARPBD0EPQQ+BDUA--8" 287 -6 basechar 0
AnchorPoint: "+BBEENQQ3BEsEPARPBD0EPQQ+BDUA--7" 490 0 basechar 0
AnchorPoint: "+BBEENQQ3BEsEPARPBD0EPQQ+BDUA--2" 490 623 basechar 0
AnchorPoint: "+BBEENQQ3BEsEPARPBD0EPQQ+BDUA--0" 470 623 basechar 0
LayerCount: 2
Fore
SplineSet
307 119 m 0,0,1
 259 119 259 119 227.5 137 c 128,-1,2
 196 155 196 155 168 180 c 0,3,4
 144 203 144 203 130 231.5 c 128,-1,5
 116 260 116 260 116 291 c 0,6,7
 116 344 116 344 156 375 c 1,8,-1
 67 375 l 1,9,-1
 24 431 l 1,10,-1
 24 441 l 1,11,-1
 320 441 l 1,12,-1
 363 384 l 1,13,-1
 363 373 l 1,14,-1
 326 373 l 2,15,16
 283 373 283 373 250.5 357 c 128,-1,17
 218 341 218 341 200 316 c 128,-1,18
 182 291 182 291 182 262 c 256,19,20
 182 233 182 233 203.5 209.5 c 128,-1,21
 225 186 225 186 270 186 c 0,22,23
 311 186 311 186 348.5 209 c 128,-1,24
 386 232 386 232 415 269 c 1,25,-1
 415 555 l 1,26,-1
 0 555 l 1,27,-1
 -40 612 l 1,28,-1
 -40 623 l 1,29,-1
 575 623 l 1,30,-1
 615 564 l 1,31,-1
 615 555 l 1,32,-1
 490 555 l 1,33,-1
 490 -6 l 1,34,-1
 480 -6 l 1,35,-1
 415 42 l 1,36,-1
 415 161 l 1,37,38
 395 143 395 143 367.5 131 c 128,-1,39
 340 119 340 119 307 119 c 0,0,1
EndSplineSet
EndChar

StartChar: uni091B
Encoding: 2331 2331 63
Width: 621
GlyphClass: 2
Flags: W
AnchorPoint: "+BBEENQQ3BEsEPARPBD0EPQQ+BDUA--9" 315 -116 basechar 0
AnchorPoint: "+BBEENQQ3BEsEPARPBD0EPQQ+BDUA--8" 311 -10 basechar 0
AnchorPoint: "+BBEENQQ3BEsEPARPBD0EPQQ+BDUA--7" 395 -30 basechar 0
AnchorPoint: "+BBEENQQ3BEsEPARPBD0EPQQ+BDUA--2" 483 623 basechar 0
AnchorPoint: "+BBEENQQ3BEsEPARPBD0EPQQ+BDUA--0" 463 623 basechar 0
LayerCount: 2
Fore
SplineSet
286 5 m 0,0,1
 252 5 252 5 218 17 c 128,-1,2
 184 29 184 29 158 50 c 0,3,4
 127 75 127 75 108.5 104.5 c 128,-1,5
 90 134 90 134 90 164 c 0,6,7
 90 217 90 217 129 252 c 1,8,9
 90 268 90 268 66 300 c 128,-1,10
 42 332 42 332 42 376 c 0,11,12
 42 427 42 427 76 456 c 128,-1,13
 110 485 110 485 159 485 c 0,14,15
 188 485 188 485 216 474.5 c 128,-1,16
 244 464 244 464 263 442 c 1,17,-1
 252 418 l 1,18,19
 231 427 231 427 209 427 c 0,20,21
 173 427 173 427 147.5 407.5 c 128,-1,22
 122 388 122 388 122 353 c 0,23,24
 122 333 122 333 132.5 312 c 128,-1,25
 143 291 143 291 163 276 c 1,26,27
 206 297 206 297 265 300 c 1,28,-1
 294 234 l 1,29,30
 231 230 231 230 195 206 c 128,-1,31
 159 182 159 182 159 144 c 0,32,33
 159 108 159 108 182 87.5 c 128,-1,34
 205 67 205 67 251 67 c 0,35,36
 319 67 319 67 375.5 97 c 128,-1,37
 432 127 432 127 469 176 c 1,38,39
 394 210 394 210 352 258.5 c 128,-1,40
 310 307 310 307 310 367 c 0,41,42
 310 412 310 412 336 443.5 c 128,-1,43
 362 475 362 475 409 482 c 1,44,-1
 409 555 l 1,45,-1
 0 555 l 1,46,-1
 -40 613 l 1,47,-1
 -40 623 l 1,48,-1
 621 623 l 1,49,-1
 661 564 l 1,50,-1
 661 555 l 1,51,-1
 483 555 l 1,52,-1
 483 472 l 1,53,54
 514 459 514 459 538 430 c 0,55,56
 558 405 558 405 570 371.5 c 128,-1,57
 582 338 582 338 582 299 c 0,58,59
 582 242 582 242 560 189 c 128,-1,60
 538 136 538 136 498.5 94.5 c 128,-1,61
 459 53 459 53 405 29 c 128,-1,62
 351 5 351 5 286 5 c 0,0,1
377 347 m 0,63,64
 377 315 377 315 394.5 289 c 128,-1,65
 412 263 412 263 438 243 c 128,-1,66
 464 223 464 223 490 209 c 1,67,68
 524 270 524 270 524 338 c 0,69,70
 524 380 524 380 503.5 402 c 128,-1,71
 483 424 483 424 452 424 c 256,72,73
 421 424 421 424 399 404 c 128,-1,74
 377 384 377 384 377 347 c 0,63,64
EndSplineSet
EndChar

StartChar: uni091C
Encoding: 2332 2332 64
Width: 669
GlyphClass: 2
Flags: W
AnchorPoint: "+BBEENQQ3BEsEPARPBD0EPQQ+BDUA--9" 262 -33 basechar 0
AnchorPoint: "+BBEENQQ3BEsEPARPBD0EPQQ+BDUA--8" 334 -6 basechar 0
AnchorPoint: "+BBEENQQ3BEsEPARPBD0EPQQ+BDUA--7" 584 0 basechar 0
AnchorPoint: "+BBEENQQ3BEsEPARPBD0EPQQ+BDUA--2" 584 623 basechar 0
AnchorPoint: "+BBEENQQ3BEsEPARPBD0EPQQ+BDUA--0" 564 623 basechar 0
LayerCount: 2
Fore
SplineSet
284 86 m 0,0,1
 198 86 198 86 132.5 168.5 c 128,-1,2
 67 251 67 251 24 395 c 1,3,-1
 69 409 l 1,4,5
 113 279 113 279 160.5 221.5 c 128,-1,6
 208 164 208 164 256 164 c 0,7,8
 288 164 288 164 306.5 182.5 c 128,-1,9
 325 201 325 201 325 235 c 0,10,11
 325 284 325 284 299.5 329.5 c 128,-1,12
 274 375 274 375 236 403 c 1,13,-1
 254 439 l 1,14,-1
 509 439 l 1,15,-1
 509 555 l 1,16,-1
 0 555 l 1,17,-1
 -40 613 l 1,18,-1
 -40 623 l 1,19,-1
 669 623 l 1,20,-1
 709 564 l 1,21,-1
 709 555 l 1,22,-1
 584 555 l 1,23,-1
 584 -6 l 1,24,-1
 575 -6 l 1,25,-1
 509 42 l 1,26,-1
 509 372 l 1,27,-1
 373 372 l 2,28,29
 357 372 357 372 344 372.5 c 128,-1,30
 331 373 331 373 321 374 c 1,31,32
 358 337 358 337 379 295 c 128,-1,33
 400 253 400 253 400 208 c 0,34,35
 400 151 400 151 368.5 118.5 c 128,-1,36
 337 86 337 86 284 86 c 0,0,1
EndSplineSet
EndChar

StartChar: uni091D
Encoding: 2333 2333 65
Width: 699
GlyphClass: 2
Flags: W
AnchorPoint: "+BBEENQQ3BEsEPARPBD0EPQQ+BDUA--9" 109 -109 basechar 0
AnchorPoint: "+BBEENQQ3BEsEPARPBD0EPQQ+BDUA--8" 349 -107 basechar 0
AnchorPoint: "+BBEENQQ3BEsEPARPBD0EPQQ+BDUA--7" 614 0 basechar 0
AnchorPoint: "+BBEENQQ3BEsEPARPBD0EPQQ+BDUA--2" 614 623 basechar 0
AnchorPoint: "+BBEENQQ3BEsEPARPBD0EPQQ+BDUA--0" 594 623 basechar 0
LayerCount: 2
Fore
SplineSet
336 -147 m 1,0,1
 297 -121 297 -121 254 -76.5 c 128,-1,2
 211 -32 211 -32 179 9 c 1,3,4
 120 15 120 15 91.5 34 c 128,-1,5
 63 53 63 53 63 80 c 0,6,7
 63 100 63 100 77 111.5 c 128,-1,8
 91 123 91 123 112 123 c 0,9,10
 134 123 134 123 155 110 c 128,-1,11
 176 97 176 97 194 74 c 1,12,-1
 194 74 l 1,13,14
 271 74 271 74 320 104.5 c 128,-1,15
 369 135 369 135 369 179 c 0,16,17
 369 210 369 210 349 224 c 128,-1,18
 329 238 329 238 303 238 c 0,19,20
 283 238 283 238 251 229 c 128,-1,21
 219 220 219 220 175 191 c 1,22,23
 147 208 147 208 119 234 c 128,-1,24
 91 260 91 260 72.5 292.5 c 128,-1,25
 54 325 54 325 54 360 c 0,26,27
 54 411 54 411 90.5 439.5 c 128,-1,28
 127 468 127 468 196 468 c 0,29,30
 228 468 228 468 281 463 c 1,31,-1
 281 555 l 1,32,-1
 0 555 l 1,33,-1
 -40 612 l 1,34,-1
 -40 623 l 1,35,-1
 699 623 l 1,36,-1
 739 564 l 1,37,-1
 739 555 l 1,38,-1
 614 555 l 1,39,-1
 614 -6 l 1,40,-1
 604 -6 l 1,41,-1
 539 42 l 1,42,-1
 539 226 l 1,43,44
 514 216 514 216 484 216 c 0,45,46
 465 216 465 216 443.5 220.5 c 128,-1,47
 422 225 422 225 401 235 c 1,48,49
 426 197 426 197 426 156 c 0,50,51
 426 113 426 113 401.5 79.5 c 128,-1,52
 377 46 377 46 333.5 26.5 c 128,-1,53
 290 7 290 7 232 7 c 1,54,55
 256 -14 256 -14 295 -38.5 c 128,-1,56
 334 -63 334 -63 387 -86 c 1,57,-1
 336 -147 l 1,0,1
117 327 m 0,58,59
 117 310 117 310 126 295.5 c 128,-1,60
 135 281 135 281 150 270 c 1,61,62
 184 291 184 291 217 300 c 128,-1,63
 250 309 250 309 272 309 c 0,64,65
 298 309 298 309 316 304 c 128,-1,66
 334 299 334 299 350.5 292 c 128,-1,67
 367 285 367 285 387 280 c 128,-1,68
 407 275 407 275 436 275 c 0,69,70
 466 275 466 275 493.5 283 c 128,-1,71
 521 291 521 291 539 304 c 1,72,-1
 539 555 l 1,73,-1
 356 555 l 1,74,-1
 356 405 l 1,75,76
 335 407 335 407 316.5 408.5 c 128,-1,77
 298 410 298 410 278 410 c 0,78,79
 190 410 190 410 153.5 386 c 128,-1,80
 117 362 117 362 117 327 c 0,58,59
EndSplineSet
Substitution2: "+BBUENAQ4BD0EOARHBD0EMARP +BD8EPgQ0BEEEQgQwBD0EPgQyBDoEMAAA lookup 194 subtable" uni091D.short
Substitution2: "+BBUENAQ4BD0EOARHBD0EMARP +BD8EPgQ0BEEEQgQwBD0EPgQyBDoEMAAA lookup 187 subtable" uni091D.short
Substitution2: "'locl' +BBsEPgQ6BDAEOwQ4BDcEPgQyBDAEPQQ9BEsENQAA +BEQEPgRABDwESwAA lookup 93 subtable" uni091D.NEP
EndChar

StartChar: uni091D.short
Encoding: 1114114 -1 66
Width: 699
GlyphClass: 2
Flags: W
AnchorPoint: "+BBEENQQ3BEsEPARPBD0EPQQ+BDUA--9" 109 -109 basechar 0
AnchorPoint: "+BBEENQQ3BEsEPARPBD0EPQQ+BDUA--8" 349 0 basechar 0
AnchorPoint: "+BBEENQQ3BEsEPARPBD0EPQQ+BDUA--7" 614 0 basechar 0
AnchorPoint: "+BBEENQQ3BEsEPARPBD0EPQQ+BDUA--2" 614 623 basechar 0
AnchorPoint: "+BBEENQQ3BEsEPARPBD0EPQQ+BDUA--0" 594 623 basechar 0
LayerCount: 2
Fore
SplineSet
258 -113 m 1,0,-1
 178 18 l 1,1,2
 119 24 119 24 91 43 c 128,-1,3
 63 62 63 62 63 89 c 0,4,5
 63 109 63 109 77 120.5 c 128,-1,6
 91 132 91 132 112 132 c 0,7,8
 134 132 134 132 155 119 c 128,-1,9
 176 106 176 106 194 83 c 1,10,-1
 194 83 l 1,11,12
 271 83 271 83 320 112 c 128,-1,13
 369 141 369 141 369 184 c 0,14,15
 369 213 369 213 349 225.5 c 128,-1,16
 329 238 329 238 303 238 c 0,17,18
 283 238 283 238 251 229 c 128,-1,19
 219 220 219 220 175 191 c 1,20,21
 147 208 147 208 119 234 c 128,-1,22
 91 260 91 260 72.5 292.5 c 128,-1,23
 54 325 54 325 54 360 c 0,24,25
 54 411 54 411 90.5 439.5 c 128,-1,26
 127 468 127 468 196 468 c 0,27,28
 228 468 228 468 281 463 c 1,29,-1
 281 555 l 1,30,-1
 0 555 l 1,31,-1
 -40 612 l 1,32,-1
 -40 623 l 1,33,-1
 699 623 l 1,34,-1
 739 564 l 1,35,-1
 739 555 l 1,36,-1
 614 555 l 1,37,-1
 614 -6 l 1,38,-1
 604 -6 l 1,39,-1
 539 42 l 1,40,-1
 539 226 l 1,41,42
 514 216 514 216 484 216 c 0,43,44
 465 216 465 216 444 220.5 c 128,-1,45
 423 225 423 225 402 235 c 1,46,47
 426 199 426 199 426 161 c 0,48,49
 426 100 426 100 374.5 59 c 128,-1,50
 323 18 323 18 238 16 c 1,51,-1
 330 -78 l 1,52,-1
 258 -113 l 1,0,-1
117 327 m 0,53,54
 117 310 117 310 126 295.5 c 128,-1,55
 135 281 135 281 150 270 c 1,56,57
 184 291 184 291 217 300 c 128,-1,58
 250 309 250 309 272 309 c 0,59,60
 298 309 298 309 316 304 c 128,-1,61
 334 299 334 299 350.5 292 c 128,-1,62
 367 285 367 285 387 280 c 128,-1,63
 407 275 407 275 436 275 c 0,64,65
 466 275 466 275 493.5 283 c 128,-1,66
 521 291 521 291 539 304 c 1,67,-1
 539 555 l 1,68,-1
 356 555 l 1,69,-1
 356 405 l 1,70,71
 335 407 335 407 316.5 408.5 c 128,-1,72
 298 410 298 410 278 410 c 0,73,74
 190 410 190 410 153.5 386 c 128,-1,75
 117 362 117 362 117 327 c 0,53,54
EndSplineSet
EndChar

StartChar: uni091E
Encoding: 2334 2334 67
Width: 676
GlyphClass: 2
Flags: W
AnchorPoint: "+BBEENQQ3BEsEPARPBD0EPQQ+BDUA--9" 270 7 basechar 0
AnchorPoint: "+BBEENQQ3BEsEPARPBD0EPQQ+BDUA--8" 338 -6 basechar 0
AnchorPoint: "+BBEENQQ3BEsEPARPBD0EPQQ+BDUA--7" 591 0 basechar 0
AnchorPoint: "+BBEENQQ3BEsEPARPBD0EPQQ+BDUA--2" 591 623 basechar 0
AnchorPoint: "+BBEENQQ3BEsEPARPBD0EPQQ+BDUA--0" 571 623 basechar 0
LayerCount: 2
Fore
SplineSet
269 125 m 0,0,1
 187 125 187 125 125 186.5 c 128,-1,2
 63 248 63 248 24 353 c 1,3,-1
 66 373 l 1,4,5
 97 291 97 291 139 243.5 c 128,-1,6
 181 196 181 196 242 196 c 0,7,8
 295 196 295 196 331 226 c 128,-1,9
 367 256 367 256 367 314 c 0,10,11
 367 349 367 349 350 364.5 c 128,-1,12
 333 380 333 380 299 380 c 0,13,14
 274 380 274 380 251 372.5 c 128,-1,15
 228 365 228 365 202 351 c 1,16,-1
 164 429 l 1,17,18
 193 442 193 442 219 449.5 c 128,-1,19
 245 457 245 457 272 457 c 0,20,21
 314 457 314 457 344.5 435.5 c 128,-1,22
 375 414 375 414 395 385 c 0,23,24
 408 366 408 366 418.5 345 c 128,-1,25
 429 324 429 324 433 302 c 1,26,27
 454 304 454 304 476 313 c 128,-1,28
 498 322 498 322 516 335 c 1,29,-1
 516 555 l 1,30,-1
 0 555 l 1,31,-1
 -40 612 l 1,32,-1
 -40 623 l 1,33,-1
 676 623 l 1,34,-1
 716 564 l 1,35,-1
 716 555 l 1,36,-1
 591 555 l 1,37,-1
 591 -6 l 1,38,-1
 581 -6 l 1,39,-1
 516 42 l 1,40,-1
 516 259 l 1,41,42
 505 256 505 256 488.5 254 c 128,-1,43
 472 252 472 252 457 252 c 0,44,45
 445 252 445 252 433 254 c 1,46,47
 425 192 425 192 381 158.5 c 128,-1,48
 337 125 337 125 269 125 c 0,0,1
EndSplineSet
EndChar

StartChar: uni091F
Encoding: 2335 2335 68
Width: 463
GlyphClass: 2
Flags: W
AnchorPoint: "+BBEENQQ3BEsEPARPBD0EPQQ+BDUA--9" 278 -79 basechar 0
AnchorPoint: "+BBEENQQ3BEsEPARPBD0EPQQ+BDUA--8" 266 0 basechar 0
AnchorPoint: "+BBEENQQ3BEsEPARPBD0EPQQ+BDUA--7" 340 0 basechar 0
AnchorPoint: "+BBEENQQ3BEsEPARPBD0EPQQ+BDUA--2" 386 623 basechar 0
AnchorPoint: "+BBEENQQ3BEsEPARPBD0EPQQ+BDUA--0" 366 623 basechar 0
LayerCount: 2
Fore
SplineSet
296 28 m 0,0,1
 248 28 248 28 204 47 c 128,-1,2
 160 66 160 66 125.5 99.5 c 128,-1,3
 91 133 91 133 71 175.5 c 128,-1,4
 51 218 51 218 51 265 c 0,5,6
 51 316 51 316 77.5 353.5 c 128,-1,7
 104 391 104 391 151.5 411 c 128,-1,8
 199 431 199 431 260 431 c 0,9,10
 273 431 273 431 286.5 430.5 c 128,-1,11
 300 430 300 430 312 429 c 1,12,-1
 312 555 l 1,13,-1
 0 555 l 1,14,-1
 -40 612 l 1,15,-1
 -40 623 l 1,16,-1
 464 623 l 1,17,-1
 503 564 l 1,18,-1
 503 555 l 1,19,-1
 386 555 l 1,20,-1
 386 371 l 1,21,22
 370 372 370 372 361 372 c 128,-1,23
 352 372 352 372 344 372 c 0,24,25
 278 372 278 372 228 353.5 c 128,-1,26
 178 335 178 335 150 302.5 c 128,-1,27
 122 270 122 270 122 227 c 0,28,29
 122 174 122 174 158.5 138 c 128,-1,30
 195 102 195 102 265 102 c 0,31,32
 313 102 313 102 349 117 c 128,-1,33
 385 132 385 132 410 148 c 1,34,-1
 454 75 l 1,35,36
 426 56 426 56 383 42 c 128,-1,37
 340 28 340 28 296 28 c 0,0,1
EndSplineSet
EndChar

StartChar: uni0920
Encoding: 2336 2336 69
Width: 535
GlyphClass: 2
Flags: W
AnchorPoint: "+BBEENQQ3BEsEPARPBD0EPQQ+BDUA--9" 273 -84 basechar 0
AnchorPoint: "+BBEENQQ3BEsEPARPBD0EPQQ+BDUA--8" 273 0 basechar 0
AnchorPoint: "+BBEENQQ3BEsEPARPBD0EPQQ+BDUA--7" 324 0 basechar 0
AnchorPoint: "+BBEENQQ3BEsEPARPBD0EPQQ+BDUA--2" 352 623 basechar 0
AnchorPoint: "+BBEENQQ3BEsEPARPBD0EPQQ+BDUA--0" 332 623 basechar 0
LayerCount: 2
Fore
SplineSet
292 23 m 0,0,1
 229 23 229 23 173.5 54 c 128,-1,2
 118 85 118 85 83.5 138.5 c 128,-1,3
 49 192 49 192 49 259 c 0,4,5
 49 313 49 313 75.5 352.5 c 128,-1,6
 102 392 102 392 145.5 414 c 128,-1,7
 189 436 189 436 239 436 c 0,8,9
 249 436 249 436 258 435.5 c 128,-1,10
 267 435 267 435 277 433 c 1,11,-1
 277 555 l 1,12,-1
 0 555 l 1,13,-1
 -40 613 l 1,14,-1
 -40 623 l 1,15,-1
 535 623 l 1,16,-1
 575 564 l 1,17,-1
 575 555 l 1,18,-1
 352 555 l 1,19,-1
 352 418 l 1,20,21
 390 404 390 404 422 376.5 c 128,-1,22
 454 349 454 349 473.5 308 c 128,-1,23
 493 267 493 267 493 212 c 0,24,25
 493 123 493 123 437.5 73 c 128,-1,26
 382 23 382 23 292 23 c 0,0,1
123 222 m 0,27,28
 123 185 123 185 139 153.5 c 128,-1,29
 155 122 155 122 185 102.5 c 128,-1,30
 215 83 215 83 257 83 c 0,31,32
 302 83 302 83 338.5 102 c 128,-1,33
 375 121 375 121 396.5 156.5 c 128,-1,34
 418 192 418 192 418 239 c 0,35,36
 418 282 418 282 393.5 324 c 128,-1,37
 369 366 369 366 316 390 c 1,38,39
 253 389 253 389 210 365 c 128,-1,40
 167 341 167 341 145 303 c 128,-1,41
 123 265 123 265 123 222 c 0,27,28
EndSplineSet
EndChar

StartChar: uni0921
Encoding: 2337 2337 70
Width: 518
GlyphClass: 2
Flags: W
AnchorPoint: "+BBEENQQ3BEsEPARPBD0EPQQ+BDUA--9" 278 -102 basechar 0
AnchorPoint: "+BBEENQQ3BEsEPARPBD0EPQQ+BDUA--8" 271 -10 basechar 0
AnchorPoint: "+BBEENQQ3BEsEPARPBD0EPQQ+BDUA--7" 350 -10 basechar 0
AnchorPoint: "+BBEENQQ3BEsEPARPBD0EPQQ+BDUA--2" 407 623 basechar 0
AnchorPoint: "+BBEENQQ3BEsEPARPBD0EPQQ+BDUA--0" 387 623 basechar 0
LayerCount: 2
Fore
SplineSet
304 5 m 0,0,1
 222 5 222 5 150 51 c 128,-1,2
 78 97 78 97 19 182 c 1,3,-1
 56 209 l 1,4,5
 100 145 100 145 155.5 110.5 c 128,-1,6
 211 76 211 76 268 76 c 0,7,8
 333 76 333 76 376 104.5 c 128,-1,9
 419 133 419 133 419 179 c 0,10,11
 419 209 419 209 400 223 c 128,-1,12
 381 237 381 237 355 237 c 0,13,14
 335 237 335 237 303 228 c 128,-1,15
 271 219 271 219 227 191 c 1,16,17
 199 208 199 208 170.5 234 c 128,-1,18
 142 260 142 260 123 292.5 c 128,-1,19
 104 325 104 325 104 360 c 0,20,21
 104 411 104 411 141 439.5 c 128,-1,22
 178 468 178 468 248 468 c 0,23,24
 279 468 279 468 332 463 c 1,25,-1
 332 555 l 1,26,-1
 0 555 l 1,27,-1
 -40 613 l 1,28,-1
 -40 623 l 1,29,-1
 519 623 l 1,30,-1
 558 564 l 1,31,-1
 558 555 l 1,32,-1
 407 555 l 1,33,-1
 407 405 l 1,34,35
 386 407 386 407 367.5 408.5 c 128,-1,36
 349 410 349 410 329 410 c 0,37,38
 241 410 241 410 204.5 386 c 128,-1,39
 168 362 168 362 168 327 c 0,40,41
 168 310 168 310 177 295.5 c 128,-1,42
 186 281 186 281 201 270 c 1,43,44
 235 291 235 291 267.5 300 c 128,-1,45
 300 309 300 309 323 309 c 0,46,47
 353 309 353 309 381 299 c 128,-1,48
 409 289 409 289 434 259 c 0,49,50
 455 234 455 234 466 209 c 128,-1,51
 477 184 477 184 477 156 c 0,52,53
 477 116 477 116 457.5 81.5 c 128,-1,54
 438 47 438 47 399.5 26 c 128,-1,55
 361 5 361 5 304 5 c 0,0,1
EndSplineSet
EndChar

StartChar: uni0922
Encoding: 2338 2338 71
Width: 512
GlyphClass: 2
Flags: W
AnchorPoint: "+BBEENQQ3BEsEPARPBD0EPQQ+BDUA--9" 291 -88 basechar 0
AnchorPoint: "+BBEENQQ3BEsEPARPBD0EPQQ+BDUA--8" 281 0 basechar 0
AnchorPoint: "+BBEENQQ3BEsEPARPBD0EPQQ+BDUA--7" 355 0 basechar 0
AnchorPoint: "+BBEENQQ3BEsEPARPBD0EPQQ+BDUA--2" 406 623 basechar 0
AnchorPoint: "+BBEENQQ3BEsEPARPBD0EPQQ+BDUA--0" 386 623 basechar 0
LayerCount: 2
Fore
SplineSet
310 19 m 0,0,1
 267 19 267 19 219.5 36.5 c 128,-1,2
 172 54 172 54 137 91 c 0,3,4
 100 129 100 129 77.5 172 c 128,-1,5
 55 215 55 215 55 267 c 0,6,7
 55 353 55 353 116.5 402 c 128,-1,8
 178 451 178 451 277 451 c 0,9,10
 306 451 306 451 330 449 c 1,11,-1
 330 555 l 1,12,-1
 0 555 l 1,13,-1
 -40 612 l 1,14,-1
 -40 623 l 1,15,-1
 512 623 l 1,16,-1
 552 564 l 1,17,-1
 552 555 l 1,18,-1
 406 555 l 1,19,-1
 406 393 l 1,20,21
 393 394 393 394 377 394.5 c 128,-1,22
 361 395 361 395 336 395 c 0,23,24
 245 395 245 395 186 352 c 128,-1,25
 127 309 127 309 127 225 c 0,26,27
 127 188 127 188 145 155 c 128,-1,28
 163 122 163 122 196.5 102 c 128,-1,29
 230 82 230 82 276 82 c 1,30,31
 252 104 252 104 237.5 137 c 128,-1,32
 223 170 223 170 223 202 c 0,33,34
 223 246 223 246 252.5 277 c 128,-1,35
 282 308 282 308 337 308 c 0,36,37
 368 308 368 308 393.5 296 c 128,-1,38
 419 284 419 284 436 264 c 0,39,40
 479 215 479 215 479 161 c 0,41,42
 479 123 479 123 459.5 90.5 c 128,-1,43
 440 58 440 58 402 38.5 c 128,-1,44
 364 19 364 19 310 19 c 0,0,1
293 163 m 0,45,46
 293 122 293 122 317 86 c 1,47,48
 366 97 366 97 389 129 c 128,-1,49
 412 161 412 161 412 188 c 256,50,51
 412 215 412 215 399 230 c 128,-1,52
 386 245 386 245 363 245 c 0,53,54
 331 245 331 245 312 221 c 128,-1,55
 293 197 293 197 293 163 c 0,45,46
EndSplineSet
EndChar

StartChar: uni0923
Encoding: 2339 2339 72
Width: 698
GlyphClass: 2
Flags: W
AnchorPoint: "+BBEENQQ3BEsEPARPBD0EPQQ+BDUA--9" 225 34 basechar 0
AnchorPoint: "+BBEENQQ3BEsEPARPBD0EPQQ+BDUA--8" 349 -6 basechar 0
AnchorPoint: "+BBEENQQ3BEsEPARPBD0EPQQ+BDUA--7" 613 0 basechar 0
AnchorPoint: "+BBEENQQ3BEsEPARPBD0EPQQ+BDUA--2" 613 623 basechar 0
AnchorPoint: "+BBEENQQ3BEsEPARPBD0EPQQ+BDUA--0" 593 623 basechar 0
LayerCount: 2
Fore
SplineSet
257 154 m 0,0,1
 223 154 223 154 191 172 c 128,-1,2
 159 190 159 190 133 217 c 0,3,4
 80 274 80 274 80 334 c 2,5,-1
 80 555 l 1,6,-1
 0 555 l 1,7,-1
 -40 612 l 1,8,-1
 -40 623 l 1,9,-1
 698 623 l 1,10,-1
 738 564 l 1,11,-1
 738 555 l 1,12,-1
 613 555 l 1,13,-1
 613 -6 l 1,14,-1
 604 -6 l 1,15,-1
 538 42 l 1,16,-1
 538 555 l 1,17,-1
 393 555 l 1,18,-1
 393 322 l 2,19,20
 393 154 393 154 257 154 c 0,0,1
155 315 m 2,21,22
 155 216 155 216 235 216 c 0,23,24
 279 216 279 216 298 248 c 128,-1,25
 317 280 317 280 317 332 c 2,26,-1
 317 555 l 1,27,-1
 155 555 l 1,28,-1
 155 315 l 2,21,22
EndSplineSet
EndChar

StartChar: uni0924
Encoding: 2340 2340 73
Width: 538
GlyphClass: 2
Flags: W
AnchorPoint: "+BBEENQQ3BEsEPARPBD0EPQQ+BDUA--9" 122 -51 basechar 0
AnchorPoint: "+BBEENQQ3BEsEPARPBD0EPQQ+BDUA--8" 269 -13 basechar 0
AnchorPoint: "+BBEENQQ3BEsEPARPBD0EPQQ+BDUA--7" 453 0 basechar 0
AnchorPoint: "+BBEENQQ3BEsEPARPBD0EPQQ+BDUA--2" 453 623 basechar 0
AnchorPoint: "+BBEENQQ3BEsEPARPBD0EPQQ+BDUA--0" 433 623 basechar 0
LayerCount: 2
Fore
SplineSet
232 -13 m 1,0,1
 204 9 204 9 172.5 39 c 128,-1,2
 141 69 141 69 113.5 104.5 c 128,-1,3
 86 140 86 140 68.5 181 c 128,-1,4
 51 222 51 222 51 267 c 0,5,6
 51 320 51 320 77 356.5 c 128,-1,7
 103 393 103 393 146.5 412 c 128,-1,8
 190 431 190 431 241 431 c 0,9,10
 278 431 278 431 314 427 c 128,-1,11
 350 423 350 423 377 418 c 1,12,-1
 377 555 l 1,13,-1
 0 555 l 1,14,-1
 -40 613 l 1,15,-1
 -40 623 l 1,16,-1
 538 623 l 1,17,-1
 578 564 l 1,18,-1
 578 555 l 1,19,-1
 453 555 l 1,20,-1
 453 -6 l 1,21,-1
 443 -6 l 1,22,-1
 377 42 l 1,23,-1
 377 354 l 1,24,25
 355 356 355 356 323.5 358 c 128,-1,26
 292 360 292 360 261 360 c 0,27,28
 194 360 194 360 161.5 325 c 128,-1,29
 129 290 129 290 129 237 c 0,30,31
 129 197 129 197 148 158 c 128,-1,32
 167 119 167 119 197.5 84.5 c 128,-1,33
 228 50 228 50 263 21 c 1,34,-1
 232 -13 l 1,0,1
EndSplineSet
EndChar

StartChar: uni0925
Encoding: 2341 2341 74
Width: 585
GlyphClass: 2
Flags: W
AnchorPoint: "+BBEENQQ3BEsEPARPBD0EPQQ+BDUA--9" 134 26 basechar 0
AnchorPoint: "+BBEENQQ3BEsEPARPBD0EPQQ+BDUA--8" 332 -6 basechar 0
AnchorPoint: "+BBEENQQ3BEsEPARPBD0EPQQ+BDUA--7" 500 0 basechar 0
AnchorPoint: "+BBEENQQ3BEsEPARPBD0EPQQ+BDUA--2" 500 623 basechar 0
AnchorPoint: "+BBEENQQ3BEsEPARPBD0EPQQ+BDUA--0" 480 623 basechar 0
LayerCount: 2
Fore
SplineSet
286 119 m 0,0,1
 225 119 225 119 178 146.5 c 128,-1,2
 131 174 131 174 97 219 c 128,-1,3
 63 264 63 264 40 318 c 1,4,5
 90 336 90 336 128 352 c 128,-1,6
 166 368 166 368 193 384 c 1,7,8
 163 399 163 399 133 420 c 128,-1,9
 103 441 103 441 83 469.5 c 128,-1,10
 63 498 63 498 63 534 c 0,11,12
 63 580 63 580 92 607.5 c 128,-1,13
 121 635 121 635 165 635 c 0,14,15
 201 635 201 635 227 621.5 c 128,-1,16
 253 608 253 608 276 587 c 0,17,18
 331 538 331 538 331 467 c 0,19,20
 331 421 331 421 309 387 c 128,-1,21
 287 353 287 353 246 326 c 128,-1,22
 205 299 205 299 146 272 c 0,23,24
 134 267 134 267 134 255 c 0,25,26
 134 232 134 232 165 211 c 0,27,28
 180 201 180 201 201.5 194.5 c 128,-1,29
 223 188 223 188 249 188 c 0,30,31
 301 188 301 188 347.5 215 c 128,-1,32
 394 242 394 242 425 288 c 1,33,-1
 425 555 l 1,34,-1
 375 555 l 1,35,-1
 335 612 l 1,36,-1
 335 623 l 1,37,-1
 585 623 l 1,38,-1
 625 564 l 1,39,-1
 625 555 l 1,40,-1
 500 555 l 1,41,-1
 500 -6 l 1,42,-1
 490 -6 l 1,43,-1
 425 42 l 1,44,-1
 425 176 l 1,45,46
 400 150 400 150 363 134.5 c 128,-1,47
 326 119 326 119 286 119 c 0,0,1
139 514 m 0,48,49
 139 477 139 477 166.5 452.5 c 128,-1,50
 194 428 194 428 227 411 c 1,51,52
 265 447 265 447 265 500 c 0,53,54
 265 537 265 537 244 555.5 c 128,-1,55
 223 574 223 574 197 574 c 0,56,57
 175 574 175 574 157 559 c 128,-1,58
 139 544 139 544 139 514 c 0,48,49
EndSplineSet
EndChar

StartChar: uni0926
Encoding: 2342 2342 75
Width: 464
GlyphClass: 2
Flags: W
AnchorPoint: "+BBEENQQ3BEsEPARPBD0EPQQ+BDUA--9" 100 -3 basechar 0
AnchorPoint: "+BBEENQQ3BEsEPARPBD0EPQQ+BDUA--8" 251 -70 basechar 0
AnchorPoint: "+BBEENQQ3BEsEPARPBD0EPQQ+BDUA--7" 410 -53 basechar 0
AnchorPoint: "+BBEENQQ3BEsEPARPBD0EPQQ+BDUA--2" 369 623 basechar 0
AnchorPoint: "+BBEENQQ3BEsEPARPBD0EPQQ+BDUA--0" 349 623 basechar 0
LayerCount: 2
Fore
SplineSet
405 -87 m 1,0,1
 383 -54 383 -54 359.5 -12 c 128,-1,2
 336 30 336 30 321 68 c 1,3,4
 302 63 302 63 267 63 c 0,5,6
 223 63 223 63 182 80.5 c 128,-1,7
 141 98 141 98 109 126 c 0,8,9
 81 152 81 152 60.5 189.5 c 128,-1,10
 40 227 40 227 40 272 c 0,11,12
 40 318 40 318 64.5 353.5 c 128,-1,13
 89 389 89 389 134 410 c 128,-1,14
 179 431 179 431 241 431 c 0,15,16
 254 431 254 431 267.5 430.5 c 128,-1,17
 281 430 281 430 294 428 c 1,18,-1
 294 555 l 1,19,-1
 0 555 l 1,20,-1
 -40 612 l 1,21,-1
 -40 623 l 1,22,-1
 464 623 l 1,23,-1
 504 564 l 1,24,-1
 504 555 l 1,25,-1
 369 555 l 1,26,-1
 369 377 l 1,27,28
 353 378 353 378 339.5 378 c 128,-1,29
 326 378 326 378 321 378 c 0,30,31
 216 378 216 378 162.5 339 c 128,-1,32
 109 300 109 300 109 240 c 0,33,34
 109 194 109 194 139.5 162 c 128,-1,35
 170 130 170 130 222 130 c 0,36,37
 244 130 244 130 261 133.5 c 128,-1,38
 278 137 278 137 289 144 c 1,39,40
 284 155 284 155 282.5 165.5 c 128,-1,41
 281 176 281 176 281 184 c 0,42,43
 281 207 281 207 296.5 223 c 128,-1,44
 312 239 312 239 336 239 c 0,45,46
 369 239 369 239 396 213 c 128,-1,47
 423 187 423 187 423 151 c 0,48,49
 423 133 423 133 411 113 c 128,-1,50
 399 93 399 93 366 80 c 1,51,52
 389 44 389 44 425 7 c 128,-1,53
 461 -30 461 -30 487 -53 c 1,54,-1
 405 -87 l 1,0,1
EndSplineSet
EndChar

StartChar: uni0927
Encoding: 2343 2343 76
Width: 567
GlyphClass: 2
Flags: W
AnchorPoint: "+BBEENQQ3BEsEPARPBD0EPQQ+BDUA--9" 153 22 basechar 0
AnchorPoint: "+BBEENQQ3BEsEPARPBD0EPQQ+BDUA--8" 321 -6 basechar 0
AnchorPoint: "+BBEENQQ3BEsEPARPBD0EPQQ+BDUA--7" 482 0 basechar 0
AnchorPoint: "+BBEENQQ3BEsEPARPBD0EPQQ+BDUA--2" 482 623 basechar 0
AnchorPoint: "+BBEENQQ3BEsEPARPBD0EPQQ+BDUA--0" 462 623 basechar 0
LayerCount: 2
Fore
SplineSet
276 104 m 0,0,1
 241 104 241 104 207.5 117.5 c 128,-1,2
 174 131 174 131 143 160 c 0,3,4
 120 183 120 183 101.5 211.5 c 128,-1,5
 83 240 83 240 83 271 c 0,6,7
 83 304 83 304 101 328 c 128,-1,8
 119 352 119 352 148 367 c 1,9,10
 100 397 100 397 68 435.5 c 128,-1,11
 36 474 36 474 36 526 c 0,12,13
 36 576 36 576 68 605.5 c 128,-1,14
 100 635 100 635 149 635 c 0,15,16
 176 635 176 635 201 622 c 128,-1,17
 226 609 226 609 245 588 c 0,18,19
 262 570 262 570 271.5 548.5 c 128,-1,20
 281 527 281 527 281 504 c 0,21,22
 281 470 281 470 255 451.5 c 128,-1,23
 229 433 229 433 191 433 c 0,24,25
 152 433 152 433 122 446 c 1,26,27
 132 427 132 427 150.5 412.5 c 128,-1,28
 169 398 169 398 193 385 c 1,29,30
 214 391 214 391 236 394.5 c 128,-1,31
 258 398 258 398 281 400 c 1,32,-1
 333 329 l 1,33,34
 256 325 256 325 207 301 c 128,-1,35
 158 277 158 277 158 233 c 0,36,37
 158 208 158 208 177 191.5 c 128,-1,38
 196 175 196 175 237 175 c 0,39,40
 286 175 286 175 331 201.5 c 128,-1,41
 376 228 376 228 407 266 c 1,42,-1
 407 555 l 1,43,-1
 369 555 l 1,44,-1
 329 612 l 1,45,-1
 329 623 l 1,46,-1
 567 623 l 1,47,-1
 607 564 l 1,48,-1
 607 555 l 1,49,-1
 482 555 l 1,50,-1
 482 -6 l 1,51,-1
 472 -6 l 1,52,-1
 407 42 l 1,53,-1
 407 157 l 1,54,55
 387 138 387 138 353 121 c 128,-1,56
 319 104 319 104 276 104 c 0,0,1
109 495 m 0,57,58
 109 484 109 484 111 473 c 1,59,60
 122 471 122 471 135 471 c 0,61,62
 174 471 174 471 201 487.5 c 128,-1,63
 228 504 228 504 228 533 c 0,64,65
 228 553 228 553 216 565 c 128,-1,66
 204 577 204 577 182 577 c 0,67,68
 152 577 152 577 130.5 553.5 c 128,-1,69
 109 530 109 530 109 495 c 0,57,58
EndSplineSet
EndChar

StartChar: uni0928
Encoding: 2344 2344 77
Width: 513
GlyphClass: 2
Flags: W
AnchorPoint: "+BBEENQQ3BEsEPARPBD0EPQQ+BDUA--9" 132 38 basechar 0
AnchorPoint: "+BBEENQQ3BEsEPARPBD0EPQQ+BDUA--8" 256 -6 basechar 0
AnchorPoint: "+BBEENQQ3BEsEPARPBD0EPQQ+BDUA--7" 428 0 basechar 0
AnchorPoint: "+BBEENQQ3BEsEPARPBD0EPQQ+BDUA--2" 428 623 basechar 0
AnchorPoint: "+BBEENQQ3BEsEPARPBD0EPQQ+BDUA--0" 408 623 basechar 0
LayerCount: 2
Fore
SplineSet
142 187 m 0,0,1
 113 187 113 187 86 205.5 c 128,-1,2
 59 224 59 224 42.5 251.5 c 128,-1,3
 26 279 26 279 26 305 c 0,4,5
 26 333 26 333 45.5 352 c 128,-1,6
 65 371 65 371 111 371 c 0,7,8
 161 371 161 371 211 367 c 128,-1,9
 261 363 261 363 299.5 358 c 128,-1,10
 338 353 338 353 353 350 c 1,11,-1
 353 555 l 1,12,-1
 0 555 l 1,13,-1
 -40 612 l 1,14,-1
 -40 623 l 1,15,-1
 513 623 l 1,16,-1
 553 564 l 1,17,-1
 553 555 l 1,18,-1
 428 555 l 1,19,-1
 428 -6 l 1,20,-1
 418 -6 l 1,21,-1
 353 42 l 1,22,-1
 353 290 l 1,23,24
 334 292 334 292 295.5 293.5 c 128,-1,25
 257 295 257 295 214 295 c 0,26,27
 205 295 205 295 198 295 c 128,-1,28
 191 295 191 295 182 294 c 1,29,30
 184 285 184 285 185.5 269.5 c 128,-1,31
 187 254 187 254 187 237 c 0,32,33
 187 218 187 218 177 202.5 c 128,-1,34
 167 187 167 187 142 187 c 0,0,1
EndSplineSet
EndChar

StartChar: uni092A
Encoding: 2346 2346 78
Width: 516
GlyphClass: 2
Flags: W
AnchorPoint: "+BBEENQQ3BEsEPARPBD0EPQQ+BDUA--9" 118 63 basechar 0
AnchorPoint: "+BBEENQQ3BEsEPARPBD0EPQQ+BDUA--8" 258 -6 basechar 0
AnchorPoint: "+BBEENQQ3BEsEPARPBD0EPQQ+BDUA--7" 431 0 basechar 0
AnchorPoint: "+BBEENQQ3BEsEPARPBD0EPQQ+BDUA--2" 431 623 basechar 0
AnchorPoint: "+BBEENQQ3BEsEPARPBD0EPQQ+BDUA--0" 411 623 basechar 0
LayerCount: 2
Fore
SplineSet
257 159 m 0,0,1
 219 159 219 159 188 177 c 128,-1,2
 157 195 157 195 134 216 c 0,3,4
 103 246 103 246 89.5 271 c 128,-1,5
 76 296 76 296 73.5 323 c 128,-1,6
 71 350 71 350 71 385 c 2,7,-1
 71 555 l 1,8,-1
 0 555 l 1,9,-1
 -40 612 l 1,10,-1
 -40 623 l 1,11,-1
 516 623 l 1,12,-1
 556 564 l 1,13,-1
 556 555 l 1,14,-1
 431 555 l 1,15,-1
 431 -6 l 1,16,-1
 421 -6 l 1,17,-1
 356 42 l 1,18,-1
 356 196 l 1,19,20
 338 182 338 182 311.5 170.5 c 128,-1,21
 285 159 285 159 257 159 c 0,0,1
146 313 m 2,22,23
 146 229 146 229 220 229 c 0,24,25
 255 229 255 229 291.5 248 c 128,-1,26
 328 267 328 267 356 299 c 1,27,-1
 356 555 l 1,28,-1
 146 555 l 1,29,-1
 146 313 l 2,22,23
EndSplineSet
EndChar

StartChar: uni092B
Encoding: 2347 2347 79
Width: 725
GlyphClass: 2
Flags: W
AnchorPoint: "+BBEENQQ3BEsEPARPBD0EPQQ+BDUA--9" 128 80 basechar 0
AnchorPoint: "+BBEENQQ3BEsEPARPBD0EPQQ+BDUA--8" 362 -6 basechar 0
AnchorPoint: "+BBEENQQ3BEsEPARPBD0EPQQ+BDUA--7" 427 0 basechar 0
AnchorPoint: "+BBEENQQ3BEsEPARPBD0EPQQ+BDUA--2" 427 623 basechar 0
AnchorPoint: "+BBEENQQ3BEsEPARPBD0EPQQ+BDUA--0" 407 623 basechar 0
LayerCount: 2
Fore
SplineSet
268 177 m 0,0,1
 229 177 229 177 198 194.5 c 128,-1,2
 167 212 167 212 145 233 c 0,3,4
 114 263 114 263 100.5 288.5 c 128,-1,5
 87 314 87 314 84.5 341 c 128,-1,6
 82 368 82 368 82 402 c 2,7,-1
 82 555 l 1,8,-1
 0 555 l 1,9,-1
 -40 612 l 1,10,-1
 -40 623 l 1,11,-1
 725 623 l 1,12,-1
 765 564 l 1,13,-1
 765 555 l 1,14,-1
 427 555 l 1,15,-1
 427 364 l 1,16,17
 450 383 450 383 476.5 395 c 128,-1,18
 503 407 503 407 533 407 c 0,19,20
 566 407 566 407 592.5 394.5 c 128,-1,21
 619 382 619 382 640 361 c 0,22,23
 663 339 663 339 675.5 308.5 c 128,-1,24
 688 278 688 278 688 237 c 0,25,26
 688 195 688 195 667.5 151 c 128,-1,27
 647 107 647 107 620 76 c 1,28,-1
 551 126 l 1,29,30
 567 145 567 145 584 170 c 128,-1,31
 601 195 601 195 613.5 223.5 c 128,-1,32
 626 252 626 252 626 282 c 0,33,34
 626 310 626 310 611 326.5 c 128,-1,35
 596 343 596 343 571 343 c 0,36,37
 545 343 545 343 519 329 c 128,-1,38
 493 315 493 315 469.5 294.5 c 128,-1,39
 446 274 446 274 427 254 c 1,40,-1
 427 -6 l 1,41,-1
 417 -6 l 1,42,-1
 352 42 l 1,43,-1
 352 203 l 1,44,45
 335 192 335 192 313 184.5 c 128,-1,46
 291 177 291 177 268 177 c 0,0,1
158 331 m 2,47,48
 158 296 158 296 168.5 277.5 c 128,-1,49
 179 259 179 259 195.5 252.5 c 128,-1,50
 212 246 212 246 230 246 c 0,51,52
 259 246 259 246 291.5 260 c 128,-1,53
 324 274 324 274 352 300 c 1,54,-1
 352 555 l 1,55,-1
 158 555 l 1,56,-1
 158 331 l 2,47,48
EndSplineSet
EndChar

StartChar: uni092C
Encoding: 2348 2348 80
Width: 507
GlyphClass: 2
Flags: W
AnchorPoint: "+BBEENQQ3BEsEPARPBD0EPQQ+BDUA--9" 168 5 basechar 0
AnchorPoint: "+BBEENQQ3BEsEPARPBD0EPQQ+BDUA--8" 253 -6 basechar 0
AnchorPoint: "+BBEENQQ3BEsEPARPBD0EPQQ+BDUA--7" 422 0 basechar 0
AnchorPoint: "+BBEENQQ3BEsEPARPBD0EPQQ+BDUA--2" 422 623 basechar 0
AnchorPoint: "+BBEENQQ3BEsEPARPBD0EPQQ+BDUA--0" 402 623 basechar 0
LayerCount: 2
Fore
SplineSet
246 110 m 0,0,1
 194 110 194 110 160.5 127 c 128,-1,2
 127 144 127 144 98 172 c 0,3,4
 70 199 70 199 53 232 c 128,-1,5
 36 265 36 265 36 304 c 0,6,7
 36 350 36 350 59 382.5 c 128,-1,8
 82 415 82 415 119 433 c 128,-1,9
 156 451 156 451 197 451 c 0,10,11
 249 451 249 451 285.5 434.5 c 128,-1,12
 322 418 322 418 347 398 c 1,13,-1
 347 555 l 1,14,-1
 0 555 l 1,15,-1
 -40 612 l 1,16,-1
 -40 623 l 1,17,-1
 507 623 l 1,18,-1
 547 564 l 1,19,-1
 547 555 l 1,20,-1
 422 555 l 1,21,-1
 422 -6 l 1,22,-1
 412 -6 l 1,23,-1
 347 42 l 1,24,-1
 347 146 l 1,25,26
 328 131 328 131 302.5 120.5 c 128,-1,27
 277 110 277 110 246 110 c 0,0,1
237 385 m 0,28,29
 212 385 212 385 190 378 c 1,30,-1
 310 212 l 1,31,32
 330 227 330 227 347 248 c 1,33,-1
 347 351 l 1,34,35
 320 368 320 368 294 376.5 c 128,-1,36
 268 385 268 385 237 385 c 0,28,29
103 269 m 0,37,38
 103 232 103 232 129.5 203 c 128,-1,39
 156 174 156 174 209 174 c 0,40,41
 239 174 239 174 268 187 c 1,42,-1
 147 356 l 1,43,44
 126 339 126 339 114.5 315.5 c 128,-1,45
 103 292 103 292 103 269 c 0,37,38
EndSplineSet
EndChar

StartChar: uni092D
Encoding: 2349 2349 81
Width: 655
GlyphClass: 2
Flags: W
AnchorPoint: "+BBEENQQ3BEsEPARPBD0EPQQ+BDUA--9" 245 42 basechar 0
AnchorPoint: "+BBEENQQ3BEsEPARPBD0EPQQ+BDUA--8" 369 -6 basechar 0
AnchorPoint: "+BBEENQQ3BEsEPARPBD0EPQQ+BDUA--7" 570 0 basechar 0
AnchorPoint: "+BBEENQQ3BEsEPARPBD0EPQQ+BDUA--2" 570 623 basechar 0
AnchorPoint: "+BBEENQQ3BEsEPARPBD0EPQQ+BDUA--0" 550 623 basechar 0
LayerCount: 2
Fore
SplineSet
267 161 m 0,0,1
 242 161 242 161 217.5 178.5 c 128,-1,2
 193 196 193 196 177.5 222.5 c 128,-1,3
 162 249 162 249 162 275 c 0,4,5
 162 306 162 306 183.5 316 c 128,-1,6
 205 326 205 326 234 327 c 1,7,-1
 234 370 l 1,8,9
 186 373 186 373 142 394.5 c 128,-1,10
 98 416 98 416 70.5 450.5 c 128,-1,11
 43 485 43 485 43 531 c 0,12,13
 43 573 43 573 73 603 c 128,-1,14
 103 633 103 633 153 633 c 0,15,16
 199 633 199 633 233.5 609 c 128,-1,17
 268 585 268 585 288 546 c 128,-1,18
 308 507 308 507 308 463 c 2,19,-1
 308 326 l 1,20,21
 367 323 367 323 418 317.5 c 128,-1,22
 469 312 469 312 495 308 c 1,23,-1
 495 555 l 1,24,-1
 413 555 l 1,25,-1
 374 612 l 1,26,-1
 374 623 l 1,27,-1
 655 623 l 1,28,-1
 695 564 l 1,29,-1
 695 555 l 1,30,-1
 570 555 l 1,31,-1
 570 -6 l 1,32,-1
 560 -6 l 1,33,-1
 495 42 l 1,34,-1
 495 248 l 1,35,36
 468 249 468 249 422.5 250 c 128,-1,37
 377 251 377 251 326 251 c 0,38,39
 321 251 321 251 316.5 251 c 128,-1,40
 312 251 312 251 308 251 c 1,41,-1
 308 207 l 2,42,43
 308 183 308 183 297 172 c 128,-1,44
 286 161 286 161 267 161 c 0,0,1
125 512 m 0,45,46
 125 484 125 484 149 453.5 c 128,-1,47
 173 423 173 423 234 410 c 1,48,-1
 234 523 l 2,49,50
 234 572 234 572 190 572 c 0,51,52
 162 572 162 572 143.5 555.5 c 128,-1,53
 125 539 125 539 125 512 c 0,45,46
EndSplineSet
EndChar

StartChar: uni092E
Encoding: 2350 2350 82
Width: 556
GlyphClass: 2
Flags: W
AnchorPoint: "+BBEENQQ3BEsEPARPBD0EPQQ+BDUA--9" 131 42 basechar 0
AnchorPoint: "+BBEENQQ3BEsEPARPBD0EPQQ+BDUA--8" 278 -6 basechar 0
AnchorPoint: "+BBEENQQ3BEsEPARPBD0EPQQ+BDUA--7" 471 0 basechar 0
AnchorPoint: "+BBEENQQ3BEsEPARPBD0EPQQ+BDUA--2" 471 623 basechar 0
AnchorPoint: "+BBEENQQ3BEsEPARPBD0EPQQ+BDUA--0" 451 623 basechar 0
LayerCount: 2
Fore
SplineSet
153 162 m 0,0,1
 128 162 128 162 103.5 179.5 c 128,-1,2
 79 197 79 197 63 223.5 c 128,-1,3
 47 250 47 250 47 277 c 0,4,5
 47 308 47 308 68.5 317.5 c 128,-1,6
 90 327 90 327 119 328 c 1,7,-1
 119 555 l 1,8,-1
 0 555 l 1,9,-1
 -40 612 l 1,10,-1
 -40 623 l 1,11,-1
 556 623 l 1,12,-1
 596 564 l 1,13,-1
 596 555 l 1,14,-1
 471 555 l 1,15,-1
 471 -6 l 1,16,-1
 461 -6 l 1,17,-1
 396 42 l 1,18,-1
 396 248 l 1,19,20
 374 249 374 249 323 250.5 c 128,-1,21
 272 252 272 252 212 252 c 0,22,23
 208 252 208 252 203.5 252 c 128,-1,24
 199 252 199 252 194 252 c 1,25,-1
 194 208 l 2,26,27
 194 184 194 184 183 173 c 128,-1,28
 172 162 172 162 153 162 c 0,0,1
194 327 m 1,29,30
 264 324 264 324 320.5 316.5 c 128,-1,31
 377 309 377 309 396 306 c 1,32,-1
 396 555 l 1,33,-1
 194 555 l 1,34,-1
 194 327 l 1,29,30
EndSplineSet
EndChar

StartChar: uni092F
Encoding: 2351 2351 83
Width: 558
GlyphClass: 2
Flags: W
AnchorPoint: "+BBEENQQ3BEsEPARPBD0EPQQ+BDUA--9" 182 26 basechar 0
AnchorPoint: "+BBEENQQ3BEsEPARPBD0EPQQ+BDUA--8" 279 -6 basechar 0
AnchorPoint: "+BBEENQQ3BEsEPARPBD0EPQQ+BDUA--7" 473 0 basechar 0
AnchorPoint: "+BBEENQQ3BEsEPARPBD0EPQQ+BDUA--2" 473 623 basechar 0
AnchorPoint: "+BBEENQQ3BEsEPARPBD0EPQQ+BDUA--0" 453 623 basechar 0
LayerCount: 2
Fore
SplineSet
274 145 m 0,0,1
 214 145 214 145 167.5 172 c 128,-1,2
 121 199 121 199 87 244.5 c 128,-1,3
 53 290 53 290 30 344 c 1,4,5
 93 370 93 370 129.5 402 c 128,-1,6
 166 434 166 434 166 473 c 0,7,8
 166 500 166 500 155 520 c 128,-1,9
 144 540 144 540 131 555 c 1,10,-1
 0 555 l 1,11,-1
 -40 612 l 1,12,-1
 -40 623 l 1,13,-1
 558 623 l 1,14,-1
 598 564 l 1,15,-1
 598 555 l 1,16,-1
 473 555 l 1,17,-1
 473 -6 l 1,18,-1
 463 -6 l 1,19,-1
 398 42 l 1,20,-1
 398 187 l 1,21,22
 373 168 373 168 340.5 156.5 c 128,-1,23
 308 145 308 145 274 145 c 0,0,1
156 236 m 0,24,25
 171 227 171 227 192 220.5 c 128,-1,26
 213 214 213 214 238 214 c 0,27,28
 284 214 284 214 326 235.5 c 128,-1,29
 368 257 368 257 398 293 c 1,30,-1
 398 555 l 1,31,-1
 187 555 l 1,32,33
 207 530 207 530 223.5 499 c 128,-1,34
 240 468 240 468 240 438 c 0,35,36
 240 392 240 392 214.5 363 c 128,-1,37
 189 334 189 334 139 299 c 0,38,39
 126 290 126 290 126 278 c 0,40,41
 126 254 126 254 156 236 c 0,24,25
EndSplineSet
EndChar

StartChar: uni0930
Encoding: 2352 2352 84
Width: 374
GlyphClass: 2
Flags: W
AnchorPoint: "+BBEENQQ3BEsEPARPBD0EPQQ+BDUA--9" 97 35 basechar 0
AnchorPoint: "+BBEENQQ3BEsEPARPBD0EPQQ+BDUA--8" 201 0 basechar 0
AnchorPoint: "+BBEENQQ3BEsEPARPBD0EPQQ+BDUA--7" 300 0 basechar 0
AnchorPoint: "+BBEENQQ3BEsEPARPBD0EPQQ+BDUA--2" 260 623 basechar 0
AnchorPoint: "+BBEENQQ3BEsEPARPBD0EPQQ+BDUA--0" 224 623 basechar 0
LayerCount: 2
Fore
SplineSet
298 -10 m 1,0,1
 251 29 251 29 208.5 73.5 c 128,-1,2
 166 118 166 118 133.5 162.5 c 128,-1,3
 101 207 101 207 82 247.5 c 128,-1,4
 63 288 63 288 63 318 c 0,5,6
 63 372 63 372 120 372 c 0,7,8
 155 372 155 372 198 351 c 1,9,10
 210 370 210 370 214 393.5 c 128,-1,11
 218 417 218 417 218 443 c 0,12,13
 218 472 218 472 213.5 501 c 128,-1,14
 209 530 209 530 202 555 c 1,15,-1
 0 555 l 1,16,-1
 -40 612 l 1,17,-1
 -40 623 l 1,18,-1
 374 623 l 1,19,-1
 414 564 l 1,20,-1
 414 555 l 1,21,-1
 268 555 l 1,22,23
 278 520 278 520 284.5 484 c 128,-1,24
 291 448 291 448 291 413 c 0,25,26
 291 343 291 343 259 301 c 128,-1,27
 227 259 227 259 163 251 c 0,28,29
 157 251 157 251 151.5 250 c 128,-1,30
 146 249 146 249 141 249 c 1,31,32
 167 208 167 208 203.5 171.5 c 128,-1,33
 240 135 240 135 279.5 104 c 128,-1,34
 319 73 319 73 355 49 c 1,35,-1
 298 -10 l 1,0,1
EndSplineSet
Substitution2: "+BBUENAQ4BD0EOARHBD0EMARP +BD8EPgQ0BEEEQgQwBD0EPgQyBDoEMAAA lookup 169 subtable" uni0961
Substitution2: "+BBUENAQ4BD0EOARHBD0EMARP +BD8EPgQ0BEEEQgQwBD0EPgQyBDoEMAAA lookup 168 subtable" uni090C
Substitution2: "+BBUENAQ4BD0EOARHBD0EMARP +BD8EPgQ0BEEEQgQwBD0EPgQyBDoEMAAA lookup 167 subtable" uni0960
Substitution2: "+BBUENAQ4BD0EOARHBD0EMARP +BD8EPgQ0BEEEQgQwBD0EPgQyBDoEMAAA lookup 166 subtable" uni090B
EndChar

StartChar: uni0932
Encoding: 2354 2354 85
Width: 655
GlyphClass: 2
Flags: W
AnchorPoint: "+BBEENQQ3BEsEPARPBD0EPQQ+BDUA--9" 142 -46 basechar 0
AnchorPoint: "+BBEENQQ3BEsEPARPBD0EPQQ+BDUA--8" 327 -8 basechar 0
AnchorPoint: "+BBEENQQ3BEsEPARPBD0EPQQ+BDUA--7" 570 0 basechar 0
AnchorPoint: "+BBEENQQ3BEsEPARPBD0EPQQ+BDUA--2" 570 623 basechar 0
AnchorPoint: "+BBEENQQ3BEsEPARPBD0EPQQ+BDUA--0" 550 623 basechar 0
LayerCount: 2
Fore
SplineSet
267 -8 m 1,0,1
 237 13 237 13 200 46.5 c 128,-1,2
 163 80 163 80 129 122.5 c 128,-1,3
 95 165 95 165 72.5 214 c 128,-1,4
 50 263 50 263 50 314 c 0,5,6
 50 360 50 360 69.5 391 c 128,-1,7
 89 422 89 422 121 438.5 c 128,-1,8
 153 455 153 455 191 455 c 0,9,10
 232 455 232 455 264.5 438 c 128,-1,11
 297 421 297 421 323 396 c 1,12,13
 347 421 347 421 380.5 434 c 128,-1,14
 414 447 414 447 450 447 c 0,15,16
 477 447 477 447 495 443 c 1,17,-1
 495 555 l 1,18,-1
 0 555 l 1,19,-1
 -40 612 l 1,20,-1
 -40 623 l 1,21,-1
 655 623 l 1,22,-1
 695 564 l 1,23,-1
 695 555 l 1,24,-1
 570 555 l 1,25,-1
 570 -6 l 1,26,-1
 560 -6 l 1,27,-1
 495 42 l 1,28,-1
 495 391 l 1,29,30
 488 392 488 392 482 392 c 0,31,32
 422 392 422 392 389.5 352.5 c 128,-1,33
 357 313 357 313 357 251 c 0,34,35
 357 223 357 223 360 203 c 1,36,-1
 278 226 l 1,37,38
 276 241 276 241 275.5 250 c 128,-1,39
 275 259 275 259 275 272 c 0,40,41
 275 322 275 322 297 362 c 1,42,43
 283 371 283 371 268 375.5 c 128,-1,44
 253 380 253 380 236 380 c 0,45,46
 194 380 194 380 163.5 352.5 c 128,-1,47
 133 325 133 325 133 275 c 0,48,49
 133 199 133 199 180 139.5 c 128,-1,50
 227 80 227 80 298 27 c 1,51,-1
 267 -8 l 1,0,1
EndSplineSet
Substitution2: "'locl' +BBsEPgQ6BDAEOwQ4BDcEPgQyBDAEPQQ9BEsENQAA +BEQEPgRABDwESwAA lookup 92 subtable" uni0932.MAR
EndChar

StartChar: uni0935
Encoding: 2357 2357 86
Width: 503
GlyphClass: 2
Flags: W
AnchorPoint: "+BBEENQQ3BEsEPARPBD0EPQQ+BDUA--9" 168 5 basechar 0
AnchorPoint: "+BBEENQQ3BEsEPARPBD0EPQQ+BDUA--8" 251 -6 basechar 0
AnchorPoint: "+BBEENQQ3BEsEPARPBD0EPQQ+BDUA--7" 418 0 basechar 0
AnchorPoint: "+BBEENQQ3BEsEPARPBD0EPQQ+BDUA--2" 418 623 basechar 0
AnchorPoint: "+BBEENQQ3BEsEPARPBD0EPQQ+BDUA--0" 398 623 basechar 0
LayerCount: 2
Fore
SplineSet
237 119 m 0,0,1
 188 119 188 119 157 137 c 128,-1,2
 126 155 126 155 98 181 c 0,3,4
 71 207 71 207 55 239 c 128,-1,5
 39 271 39 271 39 308 c 0,6,7
 39 352 39 352 61.5 384 c 128,-1,8
 84 416 84 416 119 433.5 c 128,-1,9
 154 451 154 451 193 451 c 0,10,11
 245 451 245 451 281.5 434.5 c 128,-1,12
 318 418 318 418 343 399 c 1,13,-1
 343 555 l 1,14,-1
 0 555 l 1,15,-1
 -40 612 l 1,16,-1
 -40 623 l 1,17,-1
 503 623 l 1,18,-1
 543 564 l 1,19,-1
 543 555 l 1,20,-1
 418 555 l 1,21,-1
 418 -6 l 1,22,-1
 408 -6 l 1,23,-1
 343 42 l 1,24,-1
 343 159 l 1,25,26
 323 142 323 142 296 130.5 c 128,-1,27
 269 119 269 119 237 119 c 0,0,1
106 271 m 0,28,29
 106 238 106 238 129.5 212 c 128,-1,30
 153 186 153 186 199 186 c 0,31,32
 240 186 240 186 277 208.5 c 128,-1,33
 314 231 314 231 343 267 c 1,34,-1
 343 350 l 1,35,36
 293 383 293 383 234 383 c 0,37,38
 193 383 193 383 164.5 366 c 128,-1,39
 136 349 136 349 121 323.5 c 128,-1,40
 106 298 106 298 106 271 c 0,28,29
EndSplineSet
EndChar

StartChar: uni0936
Encoding: 2358 2358 87
Width: 633
GlyphClass: 2
Flags: W
AnchorPoint: "+BBEENQQ3BEsEPARPBD0EPQQ+BDUA--9" 143 33 basechar 0
AnchorPoint: "+BBEENQQ3BEsEPARPBD0EPQQ+BDUA--8" 353 -6 basechar 0
AnchorPoint: "+BBEENQQ3BEsEPARPBD0EPQQ+BDUA--7" 548 0 basechar 0
AnchorPoint: "+BBEENQQ3BEsEPARPBD0EPQQ+BDUA--2" 548 623 basechar 0
AnchorPoint: "+BBEENQQ3BEsEPARPBD0EPQQ+BDUA--0" 528 623 basechar 0
LayerCount: 2
Fore
SplineSet
315 -5 m 1,0,-1
 166 189 l 1,1,2
 145 184 145 184 118 184 c 0,3,4
 85 184 85 184 59.5 204.5 c 128,-1,5
 34 225 34 225 34 256 c 0,6,7
 34 285 34 285 53 299 c 128,-1,8
 72 313 72 313 97 313 c 0,9,10
 115 313 115 313 131.5 305.5 c 128,-1,11
 148 298 148 298 172 277 c 1,12,13
 193 285 193 285 210.5 301.5 c 128,-1,14
 228 318 228 318 241 340 c 1,15,16
 156 370 156 370 108 417 c 128,-1,17
 60 464 60 464 60 522 c 0,18,19
 60 570 60 570 90.5 600.5 c 128,-1,20
 121 631 121 631 172 631 c 0,21,22
 208 631 208 631 238 616 c 128,-1,23
 268 601 268 601 290 577 c 0,24,25
 322 543 322 543 335.5 507.5 c 128,-1,26
 349 472 349 472 349 437 c 0,27,28
 349 364 349 364 316 305 c 128,-1,29
 283 246 283 246 212 206 c 1,30,-1
 382 34 l 1,31,-1
 315 -5 l 1,0,-1
538 -6 m 1,32,-1
 473 42 l 1,33,-1
 473 555 l 1,34,-1
 407 555 l 1,35,-1
 368 612 l 1,36,-1
 368 623 l 1,37,-1
 633 623 l 1,38,-1
 673 564 l 1,39,-1
 673 555 l 1,40,-1
 548 555 l 1,41,-1
 548 -6 l 1,42,-1
 538 -6 l 1,32,-1
134 494 m 256,43,44
 134 462 134 462 163.5 431.5 c 128,-1,45
 193 401 193 401 260 375 c 1,46,47
 281 424 281 424 281 474 c 0,48,49
 281 525 281 525 260.5 547.5 c 128,-1,50
 240 570 240 570 211 570 c 0,51,52
 176 570 176 570 155 548 c 128,-1,53
 134 526 134 526 134 494 c 256,43,44
EndSplineSet
Substitution2: "'locl' +BBsEPgQ6BDAEOwQ4BDcEPgQyBDAEPQQ9BEsENQAA +BEQEPgRABDwESwAA lookup 92 subtable" uni0936.MAR
EndChar

StartChar: uni0937
Encoding: 2359 2359 88
Width: 530
GlyphClass: 2
Flags: W
AnchorPoint: "+BBEENQQ3BEsEPARPBD0EPQQ+BDUA--9" 118 62 basechar 0
AnchorPoint: "+BBEENQQ3BEsEPARPBD0EPQQ+BDUA--8" 265 -6 basechar 0
AnchorPoint: "+BBEENQQ3BEsEPARPBD0EPQQ+BDUA--7" 445 0 basechar 0
AnchorPoint: "+BBEENQQ3BEsEPARPBD0EPQQ+BDUA--2" 445 623 basechar 0
AnchorPoint: "+BBEENQQ3BEsEPARPBD0EPQQ+BDUA--0" 425 623 basechar 0
LayerCount: 2
Fore
SplineSet
257 159 m 0,0,1
 219 159 219 159 187.5 176 c 128,-1,2
 156 193 156 193 134 215 c 0,3,4
 103 246 103 246 90 271.5 c 128,-1,5
 77 297 77 297 74 324 c 128,-1,6
 71 351 71 351 71 385 c 2,7,-1
 71 555 l 1,8,-1
 0 555 l 1,9,-1
 -40 612 l 1,10,-1
 -40 623 l 1,11,-1
 530 623 l 1,12,-1
 570 564 l 1,13,-1
 570 555 l 1,14,-1
 445 555 l 1,15,-1
 445 -6 l 1,16,-1
 435 -6 l 1,17,-1
 370 42 l 1,18,-1
 370 206 l 1,19,20
 350 188 350 188 319.5 173.5 c 128,-1,21
 289 159 289 159 257 159 c 0,0,1
147 555 m 1,22,-1
 370 313 l 1,23,-1
 370 555 l 1,24,-1
 147 555 l 1,22,-1
146 313 m 2,25,26
 146 278 146 278 157 259.5 c 128,-1,27
 168 241 168 241 185 234.5 c 128,-1,28
 202 228 202 228 219 228 c 0,29,30
 280 228 280 228 339 277 c 1,31,-1
 204 424 l 2,32,33
 192 437 192 437 176.5 455.5 c 128,-1,34
 161 474 161 474 146 493 c 1,35,-1
 146 313 l 2,25,26
EndSplineSet
EndChar

StartChar: uni0938
Encoding: 2360 2360 89
Width: 648
GlyphClass: 2
Flags: W
AnchorPoint: "+BBEENQQ3BEsEPARPBD0EPQQ+BDUA--9" 93 35 basechar 0
AnchorPoint: "+BBEENQQ3BEsEPARPBD0EPQQ+BDUA--8" 324 -10 basechar 0
AnchorPoint: "+BBEENQQ3BEsEPARPBD0EPQQ+BDUA--7" 563 0 basechar 0
AnchorPoint: "+BBEENQQ3BEsEPARPBD0EPQQ+BDUA--2" 563 623 basechar 0
AnchorPoint: "+BBEENQQ3BEsEPARPBD0EPQQ+BDUA--0" 543 623 basechar 0
LayerCount: 2
Fore
SplineSet
298 -10 m 1,0,1
 251 29 251 29 208.5 73.5 c 128,-1,2
 166 118 166 118 133.5 162.5 c 128,-1,3
 101 207 101 207 82 247.5 c 128,-1,4
 63 288 63 288 63 318 c 0,5,6
 63 372 63 372 120 372 c 0,7,8
 154 372 154 372 198 351 c 1,9,10
 210 370 210 370 214 393.5 c 128,-1,11
 218 417 218 417 218 443 c 0,12,13
 218 472 218 472 213.5 501 c 128,-1,14
 209 530 209 530 202 555 c 1,15,-1
 0 555 l 1,16,-1
 -40 612 l 1,17,-1
 -40 623 l 1,18,-1
 648 623 l 1,19,-1
 688 564 l 1,20,-1
 688 555 l 1,21,-1
 563 555 l 1,22,-1
 563 -6 l 1,23,-1
 553 -6 l 1,24,-1
 488 42 l 1,25,-1
 488 260 l 1,26,27
 453 249 453 249 412 249 c 0,28,29
 365 249 365 249 323.5 262 c 128,-1,30
 282 275 282 275 252 293 c 1,31,32
 220 256 220 256 163 251 c 0,33,34
 153 250 153 250 141 249 c 1,35,36
 167 208 167 208 203.5 171.5 c 128,-1,37
 240 135 240 135 279.5 104 c 128,-1,38
 319 73 319 73 355 49 c 1,39,-1
 298 -10 l 1,0,1
291 413 m 0,40,41
 291 368 291 368 277 333 c 1,42,43
 298 324 298 324 322 318.5 c 128,-1,44
 346 313 346 313 371 313 c 0,45,46
 405 313 405 313 434.5 321 c 128,-1,47
 464 329 464 329 488 344 c 1,48,-1
 488 555 l 1,49,-1
 268 555 l 1,50,51
 278 520 278 520 284.5 484 c 128,-1,52
 291 448 291 448 291 413 c 0,40,41
EndSplineSet
EndChar

StartChar: uni0939
Encoding: 2361 2361 90
Width: 471
GlyphClass: 2
Flags: W
AnchorPoint: "+BBEENQQ3BEsEPARPBD0EPQQ+BDUA--9" 117 -143 basechar 0
AnchorPoint: "+BBEENQQ3BEsEPARPBD0EPQQ+BDUA--8" 255 -70 basechar 0
AnchorPoint: "+BBEENQQ3BEsEPARPBD0EPQQ+BDUA--7" 347 -104 basechar 0
AnchorPoint: "+BBEENQQ3BEsEPARPBD0EPQQ+BDUA--2" 390 623 basechar 0
AnchorPoint: "+BBEENQQ3BEsEPARPBD0EPQQ+BDUA--0" 370 623 basechar 0
LayerCount: 2
Fore
SplineSet
296 -109 m 1,0,1
 191 -72 191 -72 130 -7 c 128,-1,2
 69 58 69 58 69 143 c 0,3,4
 69 176 69 176 82 205 c 128,-1,5
 95 234 95 234 118 256 c 1,6,7
 92 277 92 277 76.5 303 c 128,-1,8
 61 329 61 329 61 358 c 0,9,10
 61 417 61 417 105.5 443 c 128,-1,11
 150 469 150 469 214 469 c 0,12,13
 242 469 242 469 266 467.5 c 128,-1,14
 290 466 290 466 314 463 c 1,15,-1
 314 555 l 1,16,-1
 0 555 l 1,17,-1
 -40 612 l 1,18,-1
 -40 623 l 1,19,-1
 471 623 l 1,20,-1
 511 564 l 1,21,-1
 511 555 l 1,22,-1
 390 555 l 1,23,-1
 390 406 l 1,24,25
 371 408 371 408 338 409.5 c 128,-1,26
 305 411 305 411 277 411 c 0,27,28
 193 411 193 411 161.5 387.5 c 128,-1,29
 130 364 130 364 130 332 c 0,30,31
 130 304 130 304 154 283 c 1,32,33
 199 309 199 309 253 309 c 0,34,35
 303 309 303 309 335 293.5 c 128,-1,36
 367 278 367 278 387 258 c 0,37,38
 409 236 409 236 425 207.5 c 128,-1,39
 441 179 441 179 441 147 c 0,40,41
 441 113 441 113 427 87 c 128,-1,42
 413 61 413 61 385 33 c 1,43,-1
 316 82 l 1,44,45
 337 99 337 99 355.5 124 c 128,-1,46
 374 149 374 149 374 177 c 0,47,48
 374 213 374 213 348.5 229 c 128,-1,49
 323 245 323 245 291 245 c 0,50,51
 230 245 230 245 187 209 c 128,-1,52
 144 173 144 173 144 111 c 0,53,54
 144 80 144 80 160 46.5 c 128,-1,55
 176 13 176 13 214.5 -17.5 c 128,-1,56
 253 -48 253 -48 321 -71 c 1,57,-1
 296 -109 l 1,0,1
EndSplineSet
EndChar

StartChar: uni0933
Encoding: 2355 2355 91
Width: 687
GlyphClass: 2
Flags: W
AnchorPoint: "+BBEENQQ3BEsEPARPBD0EPQQ+BDUA--9" 350 -25 basechar 0
AnchorPoint: "+BBEENQQ3BEsEPARPBD0EPQQ+BDUA--8" 339 0 basechar 0
AnchorPoint: "+BBEENQQ3BEsEPARPBD0EPQQ+BDUA--7" 532 29 basechar 0
AnchorPoint: "+BBEENQQ3BEsEPARPBD0EPQQ+BDUA--2" 529 623 basechar 0
AnchorPoint: "+BBEENQQ3BEsEPARPBD0EPQQ+BDUA--0" 509 623 basechar 0
LayerCount: 2
Fore
SplineSet
220 63 m 0,0,1
 183 63 183 63 153.5 77.5 c 128,-1,2
 124 92 124 92 99 116 c 0,3,4
 72 143 72 143 55 177.5 c 128,-1,5
 38 212 38 212 38 261 c 256,6,7
 38 310 38 310 59 349 c 128,-1,8
 80 388 80 388 115.5 411 c 128,-1,9
 151 434 151 434 196 434 c 0,10,11
 238 434 238 434 276.5 413.5 c 128,-1,12
 315 393 315 393 346 352 c 1,13,14
 364 384 364 384 390 406.5 c 128,-1,15
 416 429 416 429 455 433 c 1,16,-1
 455 555 l 1,17,-1
 0 555 l 1,18,-1
 -40 613 l 1,19,-1
 -40 623 l 1,20,-1
 687 623 l 1,21,-1
 727 565 l 1,22,-1
 727 555 l 1,23,-1
 529 555 l 1,24,-1
 529 423 l 1,25,26
 546 416 546 416 561 405.5 c 128,-1,27
 576 395 576 395 590 381 c 0,28,29
 618 354 618 354 635 319.5 c 128,-1,30
 652 285 652 285 652 236 c 0,31,32
 652 189 652 189 631 149.5 c 128,-1,33
 610 110 610 110 574.5 86.5 c 128,-1,34
 539 63 539 63 493 63 c 0,35,36
 452 63 452 63 413.5 83.5 c 128,-1,37
 375 104 375 104 344 146 c 1,38,39
 324 110 324 110 294.5 86.5 c 128,-1,40
 265 63 265 63 220 63 c 0,0,1
504 377 m 256,41,42
 474 377 474 377 453.5 359 c 128,-1,43
 433 341 433 341 418 312 c 128,-1,44
 403 283 403 283 390 248.5 c 128,-1,45
 377 214 377 214 362 181 c 1,46,47
 408 127 408 127 464 127 c 0,48,49
 497 127 497 127 522.5 148 c 128,-1,50
 548 169 548 169 563 203.5 c 128,-1,51
 578 238 578 238 578 280 c 0,52,53
 578 333 578 333 556 355 c 128,-1,54
 534 377 534 377 504 377 c 256,41,42
111 217 m 0,55,56
 111 165 111 165 133 142.5 c 128,-1,57
 155 120 155 120 186 120 c 0,58,59
 216 120 216 120 236 138 c 128,-1,60
 256 156 256 156 271 185 c 128,-1,61
 286 214 286 214 299 248.5 c 128,-1,62
 312 283 312 283 328 316 c 1,63,64
 282 370 282 370 225 370 c 0,65,66
 193 370 193 370 167 349.5 c 128,-1,67
 141 329 141 329 126 294 c 128,-1,68
 111 259 111 259 111 217 c 0,55,56
EndSplineSet
EndChar

StartChar: uni0915094D0937
Encoding: 1114115 -1 92
Width: 695
GlyphClass: 2
Flags: W
AnchorPoint: "+BBEENQQ3BEsEPARPBD0EPQQ+BDUA--9" 131 -63 basechar 0
AnchorPoint: "+BBEENQQ3BEsEPARPBD0EPQQ+BDUA--8" 391 -94 basechar 0
AnchorPoint: "+BBEENQQ3BEsEPARPBD0EPQQ+BDUA--7" 610 0 basechar 0
AnchorPoint: "+BBEENQQ3BEsEPARPBD0EPQQ+BDUA--2" 610 623 basechar 0
AnchorPoint: "+BBEENQQ3BEsEPARPBD0EPQQ+BDUA--0" 590 623 basechar 0
LayerCount: 2
Fore
SplineSet
399 -134 m 1,0,1
 377 -100 377 -100 353.5 -57.5 c 128,-1,2
 330 -15 330 -15 315 23 c 1,3,4
 306 21 306 21 295.5 20 c 128,-1,5
 285 19 285 19 273 19 c 0,6,7
 200 19 200 19 137 79 c 0,8,9
 100 114 100 114 83.5 143 c 128,-1,10
 67 172 67 172 67 203 c 0,11,12
 67 241 67 241 85 269.5 c 128,-1,13
 103 298 103 298 131.5 320 c 128,-1,14
 160 342 160 342 191 362 c 1,15,16
 97 434 97 434 97 510 c 0,17,18
 97 565 97 565 132 594 c 128,-1,19
 167 623 167 623 213 623 c 0,20,21
 252 623 252 623 281.5 602.5 c 128,-1,22
 311 582 311 582 335 556 c 0,23,24
 355 534 355 534 368.5 507 c 128,-1,25
 382 480 382 480 382 447 c 0,26,27
 382 417 382 417 363.5 393 c 128,-1,28
 345 369 345 369 317 348 c 1,29,30
 352 340 352 340 389 340 c 0,31,32
 440 340 440 340 476 350 c 128,-1,33
 512 360 512 360 535 371 c 1,34,-1
 535 555 l 1,35,-1
 455 555 l 1,36,-1
 415 612 l 1,37,-1
 415 623 l 1,38,-1
 695 623 l 1,39,-1
 735 564 l 1,40,-1
 735 555 l 1,41,-1
 610 555 l 1,42,-1
 610 -6 l 1,43,-1
 601 -6 l 1,44,-1
 535 42 l 1,45,-1
 535 286 l 1,46,47
 515 280 515 280 492 276.5 c 128,-1,48
 469 273 469 273 443 273 c 0,49,50
 403 273 403 273 359 282 c 128,-1,51
 315 291 315 291 268 314 c 1,52,53
 238 294 238 294 209.5 272.5 c 128,-1,54
 181 251 181 251 163 226 c 128,-1,55
 145 201 145 201 145 168 c 0,56,57
 145 126 145 126 171 106.5 c 128,-1,58
 197 87 197 87 227 87 c 0,59,60
 262 87 262 87 282 98 c 1,61,62
 278 110 278 110 276.5 119.5 c 128,-1,63
 275 129 275 129 275 137 c 0,64,65
 275 160 275 160 290.5 176 c 128,-1,66
 306 192 306 192 330 192 c 0,67,68
 352 192 352 192 371.5 180.5 c 128,-1,69
 391 169 391 169 404 149 c 128,-1,70
 417 129 417 129 417 105 c 0,71,72
 417 87 417 87 404.5 67 c 128,-1,73
 392 47 392 47 359 34 c 1,74,75
 382 -2 382 -2 418.5 -39 c 128,-1,76
 455 -76 455 -76 482 -100 c 1,77,-1
 399 -134 l 1,0,1
181 484 m 0,78,79
 181 452 181 452 194 428 c 128,-1,80
 207 404 207 404 229 387 c 1,81,82
 262 409 262 409 285 433.5 c 128,-1,83
 308 458 308 458 308 491 c 0,84,85
 308 517 308 517 292.5 535.5 c 128,-1,86
 277 554 277 554 249 554 c 0,87,88
 223 554 223 554 202 536.5 c 128,-1,89
 181 519 181 519 181 484 c 0,78,79
EndSplineSet
Substitution2: "+BBUENAQ4BD0EOARHBD0EMARP +BD8EPgQ0BEEEQgQwBD0EPgQyBDoEMAAA lookup 187 subtable" uni0915094D0937.short
Ligature2: "'akhn' Akhand lookup 97 subtable" uni0915 uni094D uni0937
EndChar

StartChar: uni0915094D0937.short
Encoding: 1114116 -1 93
Width: 695
GlyphClass: 2
Flags: W
AnchorPoint: "+BBEENQQ3BEsEPARPBD0EPQQ+BDUA--9" 131 -63 basechar 0
AnchorPoint: "+BBEENQQ3BEsEPARPBD0EPQQ+BDUA--8" 364 -20 basechar 0
AnchorPoint: "+BBEENQQ3BEsEPARPBD0EPQQ+BDUA--7" 610 -20 basechar 0
AnchorPoint: "+BBEENQQ3BEsEPARPBD0EPQQ+BDUA--2" 610 623 basechar 0
AnchorPoint: "+BBEENQQ3BEsEPARPBD0EPQQ+BDUA--0" 590 623 basechar 0
LayerCount: 2
Fore
SplineSet
373 -80 m 1,0,1
 358 -56 358 -56 341.5 -25.5 c 128,-1,2
 325 5 325 5 315 33 c 1,3,4
 306 31 306 31 295.5 30 c 128,-1,5
 285 29 285 29 273 29 c 0,6,7
 200 29 200 29 137 89 c 0,8,9
 100 124 100 124 83.5 153 c 128,-1,10
 67 182 67 182 67 213 c 0,11,12
 67 249 67 249 84.5 276 c 128,-1,13
 102 303 102 303 129.5 324.5 c 128,-1,14
 157 346 157 346 187 365 c 1,15,16
 97 435 97 435 97 510 c 0,17,18
 97 565 97 565 132 594 c 128,-1,19
 167 623 167 623 213 623 c 0,20,21
 252 623 252 623 281.5 602.5 c 128,-1,22
 311 582 311 582 335 556 c 0,23,24
 355 534 355 534 368.5 507 c 128,-1,25
 382 480 382 480 382 447 c 0,26,27
 382 417 382 417 362 393 c 128,-1,28
 342 369 342 369 313 349 c 1,29,30
 350 340 350 340 389 340 c 0,31,32
 440 340 440 340 476 350 c 128,-1,33
 512 360 512 360 535 371 c 1,34,-1
 535 555 l 1,35,-1
 455 555 l 1,36,-1
 415 612 l 1,37,-1
 415 623 l 1,38,-1
 695 623 l 1,39,-1
 735 564 l 1,40,-1
 735 555 l 1,41,-1
 610 555 l 1,42,-1
 610 -26 l 1,43,-1
 601 -26 l 1,44,-1
 535 22 l 1,45,-1
 535 286 l 1,46,47
 515 280 515 280 492 276.5 c 128,-1,48
 469 273 469 273 443 273 c 0,49,50
 402 273 402 273 357 282.5 c 128,-1,51
 312 292 312 292 264 316 c 1,52,53
 234 297 234 297 207 277 c 128,-1,54
 180 257 180 257 162.5 233 c 128,-1,55
 145 209 145 209 145 178 c 0,56,57
 145 136 145 136 171 116.5 c 128,-1,58
 197 97 197 97 227 97 c 0,59,60
 262 97 262 97 282 108 c 1,61,62
 278 120 278 120 276.5 129.5 c 128,-1,63
 275 139 275 139 275 147 c 0,64,65
 275 170 275 170 290.5 186 c 128,-1,66
 306 202 306 202 330 202 c 0,67,68
 352 202 352 202 371.5 190.5 c 128,-1,69
 391 179 391 179 404 159 c 128,-1,70
 417 139 417 139 417 115 c 0,71,72
 417 97 417 97 404.5 77 c 128,-1,73
 392 57 392 57 360 44 c 1,74,75
 377 22 377 22 402.5 -1 c 128,-1,76
 428 -24 428 -24 447 -39 c 1,77,-1
 373 -80 l 1,0,1
181 484 m 0,78,79
 181 453 181 453 193.5 429.5 c 128,-1,80
 206 406 206 406 226 389 c 1,81,82
 260 411 260 411 284 434.5 c 128,-1,83
 308 458 308 458 308 491 c 0,84,85
 308 517 308 517 292.5 535.5 c 128,-1,86
 277 554 277 554 249 554 c 0,87,88
 223 554 223 554 202 536.5 c 128,-1,89
 181 519 181 519 181 484 c 0,78,79
EndSplineSet
EndChar

StartChar: uni091C094D091E
Encoding: 1114117 -1 94
Width: 591
GlyphClass: 2
Flags: W
AnchorPoint: "+BBEENQQ3BEsEPARPBD0EPQQ+BDUA--9" 81 -43 basechar 0
AnchorPoint: "+BBEENQQ3BEsEPARPBD0EPQQ+BDUA--8" 295 -37 basechar 0
AnchorPoint: "+BBEENQQ3BEsEPARPBD0EPQQ+BDUA--7" 506 0 basechar 0
AnchorPoint: "+BBEENQQ3BEsEPARPBD0EPQQ+BDUA--2" 506 623 basechar 0
AnchorPoint: "+BBEENQQ3BEsEPARPBD0EPQQ+BDUA--0" 486 623 basechar 0
LayerCount: 2
Fore
SplineSet
247 -67 m 1,0,1
 174 -1 174 -1 125 101 c 1,2,3
 88 110 88 110 59 135 c 128,-1,4
 30 160 30 160 30 192 c 0,5,6
 30 218 30 218 46.5 230 c 128,-1,7
 63 242 63 242 81 242 c 0,8,9
 125 242 125 242 152 178 c 1,10,11
 195 178 195 178 216.5 201 c 128,-1,12
 238 224 238 224 238 256 c 0,13,14
 238 287 238 287 222.5 312 c 128,-1,15
 207 337 207 337 181 354 c 1,16,-1
 108 354 l 1,17,-1
 68 412 l 1,18,-1
 68 422 l 1,19,-1
 431 422 l 1,20,-1
 431 555 l 1,21,-1
 0 555 l 1,22,-1
 -40 613 l 1,23,-1
 -40 623 l 1,24,-1
 591 623 l 1,25,-1
 631 564 l 1,26,-1
 631 555 l 1,27,-1
 506 555 l 1,28,-1
 506 -6 l 1,29,-1
 496 -6 l 1,30,-1
 431 42 l 1,31,-1
 431 354 l 1,32,-1
 242 354 l 1,33,34
 310 293 310 293 310 223 c 0,35,36
 310 184 310 184 290 157 c 128,-1,37
 270 130 270 130 239 115 c 128,-1,38
 208 100 208 100 174 98 c 1,39,40
 206 57 206 57 239.5 33 c 128,-1,41
 273 9 273 9 302 -6 c 1,42,-1
 247 -67 l 1,0,1
EndSplineSet
Ligature2: "'akhn' Akhand lookup 97 subtable" uni091C uni094D uni091E
EndChar

StartChar: uni097B
Encoding: 2427 2427 95
Width: 525
GlyphClass: 2
Flags: W
AnchorPoint: "+BBEENQQ3BEsEPARPBD0EPQQ+BDUA--8" 262 -40 basechar 0
AnchorPoint: "+BBEENQQ3BEsEPARPBD0EPQQ+BDUA--7" 440 -30 basechar 0
AnchorPoint: "+BBEENQQ3BEsEPARPBD0EPQQ+BDUA--2" 440 623 basechar 0
AnchorPoint: "+BBEENQQ3BEsEPARPBD0EPQQ+BDUA--0" 420 623 basechar 0
LayerCount: 2
Fore
SplineSet
66 -11 m 1,0,-1
 29 43 l 1,1,-1
 29 53 l 1,2,-1
 365 53 l 1,3,-1
 365 555 l 1,4,-1
 184 555 l 1,5,6
 191 516 191 516 199.5 441 c 128,-1,7
 208 366 208 366 208 281 c 0,8,9
 208 232 208 232 194 210 c 128,-1,10
 180 188 180 188 154 188 c 0,11,12
 126 188 126 188 99 209 c 128,-1,13
 72 230 72 230 53.5 260.5 c 128,-1,14
 35 291 35 291 35 319 c 0,15,16
 35 340 35 340 47 352.5 c 128,-1,17
 59 365 59 365 86 365 c 0,18,19
 105 365 105 365 126 362 c 1,20,21
 128 373 128 373 128.5 392 c 128,-1,22
 129 411 129 411 129 426 c 0,23,24
 129 451 129 451 127.5 482.5 c 128,-1,25
 126 514 126 514 122 555 c 1,26,-1
 0 555 l 1,27,-1
 -40 612 l 1,28,-1
 -40 623 l 1,29,-1
 526 623 l 1,30,-1
 565 564 l 1,31,-1
 565 555 l 1,32,-1
 440 555 l 1,33,-1
 440 53 l 1,34,-1
 477 0 l 1,35,-1
 477 -11 l 1,36,-1
 66 -11 l 1,0,-1
EndSplineSet
EndChar

StartChar: uni097C
Encoding: 2428 2428 96
Width: 652
GlyphClass: 2
Flags: W
AnchorPoint: "+BBEENQQ3BEsEPARPBD0EPQQ+BDUA--8" 295 -30 basechar 0
AnchorPoint: "+BBEENQQ3BEsEPARPBD0EPQQ+BDUA--7" 567 -30 basechar 0
AnchorPoint: "+BBEENQQ3BEsEPARPBD0EPQQ+BDUA--2" 567 623 basechar 0
AnchorPoint: "+BBEENQQ3BEsEPARPBD0EPQQ+BDUA--0" 547 623 basechar 0
LayerCount: 2
Fore
SplineSet
62 -11 m 1,0,-1
 22 43 l 1,1,-1
 22 53 l 1,2,-1
 492 53 l 1,3,-1
 492 372 l 1,4,-1
 364 372 l 2,5,6
 334 372 334 372 315 374 c 1,7,8
 348 337 348 337 362.5 305 c 128,-1,9
 377 273 377 273 377 239 c 0,10,11
 377 196 377 196 347.5 168 c 128,-1,12
 318 140 318 140 267 140 c 0,13,14
 185 140 185 140 126.5 208 c 128,-1,15
 68 276 68 276 24 395 c 1,16,-1
 69 411 l 1,17,18
 113 308 113 308 152.5 262.5 c 128,-1,19
 192 217 192 217 239 217 c 0,20,21
 268 217 268 217 285 234.5 c 128,-1,22
 302 252 302 252 302 279 c 0,23,24
 302 311 302 311 283 340.5 c 128,-1,25
 264 370 264 370 229 403 c 1,26,-1
 247 439 l 1,27,-1
 492 439 l 1,28,-1
 492 555 l 1,29,-1
 0 555 l 1,30,-1
 -40 613 l 1,31,-1
 -40 623 l 1,32,-1
 652 623 l 1,33,-1
 692 564 l 1,34,-1
 692 555 l 1,35,-1
 567 555 l 1,36,-1
 567 53 l 1,37,-1
 607 -1 l 1,38,-1
 607 -11 l 1,39,-1
 62 -11 l 1,0,-1
EndSplineSet
EndChar

StartChar: uni097E
Encoding: 2430 2430 97
Width: 518
GlyphClass: 2
Flags: W
AnchorPoint: "+BBEENQQ3BEsEPARPBD0EPQQ+BDUA--9" 278 -212 basechar 0
AnchorPoint: "+BBEENQQ3BEsEPARPBD0EPQQ+BDUA--8" 260 -121 basechar 0
AnchorPoint: "+BBEENQQ3BEsEPARPBD0EPQQ+BDUA--7" 350 -121 basechar 0
AnchorPoint: "+BBEENQQ3BEsEPARPBD0EPQQ+BDUA--2" 407 623 basechar 0
AnchorPoint: "+BBEENQQ3BEsEPARPBD0EPQQ+BDUA--0" 387 623 basechar 0
LayerCount: 2
Fore
SplineSet
304 34 m 0,0,1
 222 34 222 34 150 79.5 c 128,-1,2
 78 125 78 125 19 210 c 1,3,-1
 56 237 l 1,4,5
 100 173 100 173 155 138.5 c 128,-1,6
 210 104 210 104 267 104 c 0,7,8
 332 104 332 104 375.5 130 c 128,-1,9
 419 156 419 156 419 198 c 0,10,11
 419 226 419 226 399.5 238.5 c 128,-1,12
 380 251 380 251 354 251 c 0,13,14
 334 251 334 251 302 242 c 128,-1,15
 270 233 270 233 226 205 c 1,16,17
 198 221 198 221 170 245 c 128,-1,18
 142 269 142 269 123.5 299.5 c 128,-1,19
 105 330 105 330 105 364 c 0,20,21
 105 413 105 413 142 440.5 c 128,-1,22
 179 468 179 468 247 468 c 0,23,24
 278 468 278 468 332 463 c 1,25,-1
 332 555 l 1,26,-1
 0 555 l 1,27,-1
 -40 612 l 1,28,-1
 -40 623 l 1,29,-1
 518 623 l 1,30,-1
 558 564 l 1,31,-1
 558 555 l 1,32,-1
 407 555 l 1,33,-1
 407 406 l 1,34,35
 385 408 385 408 366.5 409.5 c 128,-1,36
 348 411 348 411 328 411 c 0,37,38
 240 411 240 411 204 387.5 c 128,-1,39
 168 364 168 364 168 331 c 0,40,41
 168 301 168 301 202 283 c 1,42,43
 235 304 235 304 267.5 312.5 c 128,-1,44
 300 321 300 321 323 321 c 0,45,46
 353 321 353 321 379.5 311.5 c 128,-1,47
 406 302 406 302 433 272 c 0,48,49
 454 249 454 249 465.5 225 c 128,-1,50
 477 201 477 201 477 175 c 0,51,52
 477 138 477 138 457.5 106 c 128,-1,53
 438 74 438 74 399.5 54 c 128,-1,54
 361 34 361 34 304 34 c 0,0,1
78 -101 m 1,55,-1
 41 -47 l 1,56,-1
 41 -37 l 1,57,-1
 464 -37 l 1,58,-1
 501 -91 l 1,59,-1
 501 -101 l 1,60,-1
 78 -101 l 1,55,-1
EndSplineSet
EndChar

StartChar: uni097F
Encoding: 2431 2431 98
Width: 510
GlyphClass: 2
Flags: W
AnchorPoint: "+BBEENQQ3BEsEPARPBD0EPQQ+BDUA--8" 259 -30 basechar 0
AnchorPoint: "+BBEENQQ3BEsEPARPBD0EPQQ+BDUA--7" 425 -30 basechar 0
AnchorPoint: "+BBEENQQ3BEsEPARPBD0EPQQ+BDUA--2" 426 623 basechar 0
AnchorPoint: "+BBEENQQ3BEsEPARPBD0EPQQ+BDUA--0" 406 623 basechar 0
LayerCount: 2
Fore
SplineSet
76 -11 m 1,0,-1
 39 43 l 1,1,-1
 39 53 l 1,2,-1
 354 53 l 1,3,-1
 354 182 l 1,4,5
 335 166 335 166 308.5 154.5 c 128,-1,6
 282 143 282 143 249 143 c 0,7,8
 197 143 197 143 163.5 160 c 128,-1,9
 130 177 130 177 101 205 c 0,10,11
 73 232 73 232 56 264.5 c 128,-1,12
 39 297 39 297 39 337 c 0,13,14
 39 382 39 382 62 415 c 128,-1,15
 85 448 85 448 122 465.5 c 128,-1,16
 159 483 159 483 200 483 c 0,17,18
 252 483 252 483 288.5 466.5 c 128,-1,19
 325 450 325 450 350 431 c 1,20,-1
 350 555 l 1,21,-1
 0 555 l 1,22,-1
 -40 612 l 1,23,-1
 -40 623 l 1,24,-1
 510 623 l 1,25,-1
 550 564 l 1,26,-1
 550 555 l 1,27,-1
 425 555 l 1,28,-1
 425 53 l 1,29,-1
 462 0 l 1,30,-1
 462 -11 l 1,31,-1
 76 -11 l 1,0,-1
240 417 m 0,32,33
 215 417 215 417 194 410 c 1,34,-1
 313 245 l 1,35,36
 333 260 333 260 350 281 c 1,37,-1
 350 382 l 1,38,39
 323 400 323 400 297 408.5 c 128,-1,40
 271 417 271 417 240 417 c 0,32,33
105 302 m 0,41,42
 105 265 105 265 132 236 c 128,-1,43
 159 207 159 207 212 207 c 0,44,45
 242 207 242 207 271 220 c 1,46,-1
 151 389 l 1,47,48
 128 372 128 372 116.5 348.5 c 128,-1,49
 105 325 105 325 105 302 c 0,41,42
EndSplineSet
EndChar

StartChar: uni0979
Encoding: 2425 2425 99
Width: 652
GlyphClass: 2
Flags: W
AnchorPoint: "+BBEENQQ3BEsEPARPBD0EPQQ+BDUA--8" 313 -137 basechar 0
AnchorPoint: "+BBEENQQ3BEsEPARPBD0EPQQ+BDUA--7" 567 -40 basechar 0
AnchorPoint: "+BBEENQQ3BEsEPARPBD0EPQQ+BDUA--2" 567 623 basechar 0
AnchorPoint: "+BBEENQQ3BEsEPARPBD0EPQQ+BDUA--0" 547 623 basechar 0
LayerCount: 2
Fore
SplineSet
276 86 m 0,0,1
 193 86 193 86 129 168.5 c 128,-1,2
 65 251 65 251 24 395 c 1,3,-1
 69 409 l 1,4,5
 111 279 111 279 157 221.5 c 128,-1,6
 203 164 203 164 247 164 c 0,7,8
 316 164 316 164 316 235 c 0,9,10
 316 284 316 284 290.5 329.5 c 128,-1,11
 265 375 265 375 228 403 c 1,12,-1
 245 439 l 1,13,-1
 492 439 l 1,14,-1
 492 555 l 1,15,-1
 0 555 l 1,16,-1
 -40 613 l 1,17,-1
 -40 623 l 1,18,-1
 652 623 l 1,19,-1
 692 564 l 1,20,-1
 692 555 l 1,21,-1
 567 555 l 1,22,-1
 567 -6 l 1,23,-1
 557 -6 l 1,24,-1
 492 42 l 1,25,-1
 492 372 l 1,26,-1
 364 372 l 2,27,28
 348 372 348 372 335.5 372.5 c 128,-1,29
 323 373 323 373 313 374 c 1,30,31
 349 337 349 337 370.5 295 c 128,-1,32
 392 253 392 253 392 208 c 0,33,34
 392 151 392 151 360.5 118.5 c 128,-1,35
 329 86 329 86 276 86 c 0,0,1
163 -45 m 0,36,37
 113 -45 113 -45 113 6 c 256,38,39
 113 57 113 57 163 57 c 0,40,41
 212 57 212 57 212 6 c 256,42,43
 212 -45 212 -45 163 -45 c 0,36,37
318 -45 m 0,44,45
 268 -45 268 -45 268 6 c 256,46,47
 268 57 268 57 318 57 c 0,48,49
 367 57 367 57 367 6 c 256,50,51
 367 -45 367 -45 318 -45 c 0,44,45
240 -168 m 256,52,53
 190 -168 190 -168 190 -117 c 256,54,55
 190 -66 190 -66 240 -66 c 256,56,57
 290 -66 290 -66 290 -117 c 256,58,59
 290 -168 290 -168 240 -168 c 256,52,53
EndSplineSet
EndChar

StartChar: yaheavydeva
Encoding: 2426 2426 100
Width: 558
GlyphClass: 2
Flags: W
AnchorPoint: "+BBEENQQ3BEsEPARPBD0EPQQ+BDUA--9" 123 42 basechar 0
AnchorPoint: "+BBEENQQ3BEsEPARPBD0EPQQ+BDUA--8" 279 -6 basechar 0
AnchorPoint: "+BBEENQQ3BEsEPARPBD0EPQQ+BDUA--7" 473 0 basechar 0
AnchorPoint: "+BBEENQQ3BEsEPARPBD0EPQQ+BDUA--2" 473 623 basechar 0
AnchorPoint: "+BBEENQQ3BEsEPARPBD0EPQQ+BDUA--0" 453 623 basechar 0
LayerCount: 2
Fore
SplineSet
274 145 m 0,0,1
 214 145 214 145 167.5 172 c 128,-1,2
 121 199 121 199 87 244.5 c 128,-1,3
 53 290 53 290 30 344 c 1,4,5
 95 366 95 366 130 400 c 128,-1,6
 165 434 165 434 165 473 c 0,7,8
 165 500 165 500 154 520 c 128,-1,9
 143 540 143 540 130 555 c 1,10,-1
 0 555 l 1,11,-1
 -40 612 l 1,12,-1
 -40 623 l 1,13,-1
 558 623 l 1,14,-1
 598 564 l 1,15,-1
 598 555 l 1,16,-1
 473 555 l 1,17,-1
 473 -6 l 1,18,-1
 463 -6 l 1,19,-1
 398 42 l 1,20,-1
 398 187 l 1,21,22
 373 168 373 168 340.5 156.5 c 128,-1,23
 308 145 308 145 274 145 c 0,0,1
197 543 m 2,24,-1
 398 295 l 1,25,-1
 398 555 l 1,26,-1
 187 555 l 1,27,28
 192 549 192 549 197 543 c 2,24,-1
156 237 m 0,29,30
 171 227 171 227 192 220.5 c 128,-1,31
 213 214 213 214 238 214 c 0,32,33
 273 214 273 214 305.5 226.5 c 128,-1,34
 338 239 338 239 365 260 c 1,35,-1
 239 417 l 1,36,37
 233 381 233 381 208 355 c 128,-1,38
 183 329 183 329 139 299 c 0,39,40
 126 290 126 290 126 278 c 0,41,42
 126 258 126 258 156 237 c 0,29,30
EndSplineSet
EndChar

StartChar: marwariddadeva
Encoding: 2424 2424 101
Width: 556
GlyphClass: 2
Flags: W
AnchorPoint: "+BBEENQQ3BEsEPARPBD0EPQQ+BDUA--9" 111 42 basechar 0
AnchorPoint: "+BBEENQQ3BEsEPARPBD0EPQQ+BDUA--8" 273 0 basechar 0
AnchorPoint: "+BBEENQQ3BEsEPARPBD0EPQQ+BDUA--7" 356 -20 basechar 0
AnchorPoint: "+BBEENQQ3BEsEPARPBD0EPQQ+BDUA--2" 415 623 basechar 0
AnchorPoint: "+BBEENQQ3BEsEPARPBD0EPQQ+BDUA--0" 296 623 basechar 0
LayerCount: 2
Fore
SplineSet
290 -13 m 1,0,-1
 225 46 l 1,1,2
 306 87 306 87 355.5 137 c 128,-1,3
 405 187 405 187 405 240 c 0,4,5
 405 280 405 280 371 301.5 c 128,-1,6
 337 323 337 323 293 323 c 0,7,8
 266 323 266 323 242 317.5 c 128,-1,9
 218 312 218 312 194 300 c 1,10,-1
 194 245 l 2,11,12
 194 220 194 220 183 209 c 128,-1,13
 172 198 172 198 153 198 c 0,14,15
 128 198 128 198 104.5 214 c 128,-1,16
 81 230 81 230 66.5 255 c 128,-1,17
 52 280 52 280 52 306 c 0,18,19
 52 329 52 329 71 345.5 c 128,-1,20
 90 362 90 362 119 372 c 1,21,-1
 119 555 l 1,22,-1
 0 555 l 1,23,-1
 -40 612 l 1,24,-1
 -40 623 l 1,25,-1
 556 623 l 1,26,-1
 596 564 l 1,27,-1
 596 555 l 1,28,-1
 194 555 l 1,29,-1
 194 388 l 1,30,31
 218 391 218 391 241 391 c 0,32,33
 287 391 287 391 331 375.5 c 128,-1,34
 375 360 375 360 408 331 c 0,35,36
 437 306 437 306 455.5 273 c 128,-1,37
 474 240 474 240 474 204 c 0,38,39
 474 146 474 146 423.5 89.5 c 128,-1,40
 373 33 373 33 290 -13 c 1,0,-1
EndSplineSet
EndChar

StartChar: uni091D.NEP
Encoding: 1114118 -1 102
Width: 839
GlyphClass: 2
Flags: W
AnchorPoint: "+BBEENQQ3BEsEPARPBD0EPQQ+BDUA--9" 258 26 basechar 0
AnchorPoint: "+BBEENQQ3BEsEPARPBD0EPQQ+BDUA--8" 533 -6 basechar 0
AnchorPoint: "+BBEENQQ3BEsEPARPBD0EPQQ+BDUA--7" 570 0 basechar 0
AnchorPoint: "+BBEENQQ3BEsEPARPBD0EPQQ+BDUA--2" 571 623 basechar 0
AnchorPoint: "+BBEENQQ3BEsEPARPBD0EPQQ+BDUA--0" 551 623 basechar 0
LayerCount: 2
Fore
SplineSet
267 161 m 0,0,1
 241 161 241 161 216.5 179 c 128,-1,2
 192 197 192 197 176.5 223.5 c 128,-1,3
 161 250 161 250 161 277 c 0,4,5
 161 307 161 307 182 317 c 128,-1,6
 203 327 203 327 232 328 c 1,7,-1
 232 370 l 1,8,9
 185 373 185 373 141.5 393.5 c 128,-1,10
 98 414 98 414 70.5 449 c 128,-1,11
 43 484 43 484 43 530 c 0,12,13
 43 572 43 572 73 602 c 128,-1,14
 103 632 103 632 153 632 c 0,15,16
 198 632 198 632 233 608 c 128,-1,17
 268 584 268 584 287.5 546 c 128,-1,18
 307 508 307 508 307 464 c 2,19,-1
 307 327 l 1,20,21
 367 324 367 324 418 318 c 128,-1,22
 469 312 469 312 495 308 c 1,23,-1
 495 555 l 1,24,-1
 412 555 l 1,25,-1
 373 612 l 1,26,-1
 373 623 l 1,27,-1
 839 623 l 1,28,-1
 879 564 l 1,29,-1
 879 555 l 1,30,-1
 570 555 l 1,31,-1
 570 348 l 1,32,33
 591 359 591 359 613.5 367 c 128,-1,34
 636 375 636 375 658 375 c 0,35,36
 689 375 689 375 715 361.5 c 128,-1,37
 741 348 741 348 763 325 c 0,38,39
 783 303 783 303 795.5 274.5 c 128,-1,40
 808 246 808 246 808 212 c 0,41,42
 808 171 808 171 783 120.5 c 128,-1,43
 758 70 758 70 723 32 c 1,44,-1
 653 76 l 1,45,46
 692 116 692 116 719.5 163 c 128,-1,47
 747 210 747 210 747 257 c 0,48,49
 747 280 747 280 733.5 295.5 c 128,-1,50
 720 311 720 311 691 311 c 0,51,52
 659 311 659 311 628 293.5 c 128,-1,53
 597 276 597 276 570 256 c 1,54,-1
 570 -6 l 1,55,-1
 560 -6 l 1,56,-1
 495 42 l 1,57,-1
 495 249 l 1,58,59
 468 250 468 250 422.5 251 c 128,-1,60
 377 252 377 252 325 252 c 0,61,62
 321 252 321 252 316.5 252 c 128,-1,63
 312 252 312 252 307 252 c 1,64,-1
 307 208 l 2,65,66
 307 161 307 161 267 161 c 0,0,1
125 511 m 256,67,68
 125 483 125 483 148 453 c 128,-1,69
 171 423 171 423 232 411 c 1,70,-1
 232 522 l 2,71,72
 232 571 232 571 190 571 c 0,73,74
 162 571 162 571 143.5 555 c 128,-1,75
 125 539 125 539 125 511 c 256,67,68
EndSplineSet
EndChar

StartChar: uni0902
Encoding: 2306 2306 103
Width: 0
GlyphClass: 4
Flags: W
AnchorPoint: "+BBEENQQ3BEsEPARPBD0EPQQ+BDUA--18" 0 623 mark 0
AnchorPoint: "+BBEENQQ3BEsEPARPBD0EPQQ+BDUA--6" 56 623 basemark 0
AnchorPoint: "+BBEENQQ3BEsEPARPBD0EPQQ+BDUA--5" 0 623 mark 0
AnchorPoint: "+BBEENQQ3BEsEPARPBD0EPQQ+BDUA--2" 0 623 mark 0
LayerCount: 2
Fore
SplineSet
-37 718 m 256,0,1
 -88 718 -88 718 -88 773 c 256,2,3
 -88 828 -88 828 -37 828 c 256,4,5
 14 828 14 828 14 773 c 256,6,7
 14 718 14 718 -37 718 c 256,0,1
EndSplineSet
Substitution2: "+BBUENAQ4BD0EOARHBD0EMARP +BD8EPgQ0BEEEQgQwBD0EPgQyBDoEMAAA lookup 177 subtable" uni0902.alt
Substitution2: "+BBUENAQ4BD0EOARHBD0EMARP +BD8EPgQ0BEEEQgQwBD0EPgQyBDoEMAAA lookup 61 subtable" NullMark
Substitution2: "+BBUENAQ4BD0EOARHBD0EMARP +BD8EPgQ0BEEEQgQwBD0EPgQyBDoEMAAA lookup 36 subtable" uni0930094D0902
Substitution2: "+BBUENAQ4BD0EOARHBD0EMARP +BD8EPgQ0BEEEQgQwBD0EPgQyBDoEMAAA lookup 11 subtable" ayMatra_anusvaradeva
Substitution2: "+BBUENAQ4BD0EOARHBD0EMARP +BD8EPgQ0BEEEQgQwBD0EPgQyBDoEMAAA lookup 10 subtable" uni093A0902
Substitution2: "+BBUENAQ4BD0EOARHBD0EMARP +BD8EPgQ0BEEEQgQwBD0EPgQyBDoEMAAA lookup 9 subtable" uni09450902
Substitution2: "+BBUENAQ4BD0EOARHBD0EMARP +BD8EPgQ0BEEEQgQwBD0EPgQyBDoEMAAA lookup 8 subtable" uni09480902
Substitution2: "+BBUENAQ4BD0EOARHBD0EMARP +BD8EPgQ0BEEEQgQwBD0EPgQyBDoEMAAA lookup 7 subtable" uni09460902
Substitution2: "+BBUENAQ4BD0EOARHBD0EMARP +BD8EPgQ0BEEEQgQwBD0EPgQyBDoEMAAA lookup 6 subtable" uni09470902
EndChar

StartChar: uni0901
Encoding: 2305 2305 104
Width: 0
GlyphClass: 4
Flags: W
AnchorPoint: "+BBEENQQ3BEsEPARPBD0EPQQ+BDUA--16" -20 623 mark 0
AnchorPoint: "+BBEENQQ3BEsEPARPBD0EPQQ+BDUA--6" 186 623 basemark 0
AnchorPoint: "+BBEENQQ3BEsEPARPBD0EPQQ+BDUA--4" -20 623 mark 0
AnchorPoint: "+BBEENQQ3BEsEPARPBD0EPQQ+BDUA--0" -20 623 mark 0
LayerCount: 2
Fore
SplineSet
-45 801 m 0,0,1
 -90 801 -90 801 -90 849 c 0,2,3
 -90 896 -90 896 -45 896 c 0,4,5
 -1 896 -1 896 -1 849 c 0,6,7
 -1 801 -1 801 -45 801 c 0,0,1
-33 682 m 0,8,9
 -74 682 -74 682 -114.5 702.5 c 128,-1,10
 -155 723 -155 723 -185.5 762 c 128,-1,11
 -216 801 -216 801 -230 856 c 1,12,-1
 -192 870 l 1,13,14
 -172 813 -172 813 -136.5 780 c 128,-1,15
 -101 747 -101 747 -41 747 c 0,16,17
 9 747 9 747 42.5 778 c 128,-1,18
 76 809 76 809 88 880 c 1,19,-1
 159 861 l 1,20,21
 143 770 143 770 90.5 726 c 128,-1,22
 38 682 38 682 -33 682 c 0,8,9
EndSplineSet
Substitution2: "+BBUENAQ4BD0EOARHBD0EMARP +BD8EPgQ0BEEEQgQwBD0EPgQyBDoEMAAA lookup 61 subtable" NullMark
Substitution2: "+BBUENAQ4BD0EOARHBD0EMARP +BD8EPgQ0BEEEQgQwBD0EPgQyBDoEMAAA lookup 37 subtable" uni0930094D0901
Substitution2: "+BBUENAQ4BD0EOARHBD0EMARP +BD8EPgQ0BEEEQgQwBD0EPgQyBDoEMAAA lookup 17 subtable" ayMatra_candraBindudeva
Substitution2: "+BBUENAQ4BD0EOARHBD0EMARP +BD8EPgQ0BEEEQgQwBD0EPgQyBDoEMAAA lookup 16 subtable" uni093A0901
Substitution2: "+BBUENAQ4BD0EOARHBD0EMARP +BD8EPgQ0BEEEQgQwBD0EPgQyBDoEMAAA lookup 15 subtable" uni09450901
Substitution2: "+BBUENAQ4BD0EOARHBD0EMARP +BD8EPgQ0BEEEQgQwBD0EPgQyBDoEMAAA lookup 14 subtable" uni09480901
Substitution2: "+BBUENAQ4BD0EOARHBD0EMARP +BD8EPgQ0BEEEQgQwBD0EPgQyBDoEMAAA lookup 13 subtable" uni09460901
Substitution2: "+BBUENAQ4BD0EOARHBD0EMARP +BD8EPgQ0BEEEQgQwBD0EPgQyBDoEMAAA lookup 12 subtable" uni09470901
EndChar

StartChar: uni0903
Encoding: 2307 2307 105
Width: 252
GlyphClass: 1
Flags: W
LayerCount: 2
Fore
SplineSet
0 555 m 1,0,-1
 -40 612 l 1,1,-1
 -40 623 l 1,2,-1
 252 623 l 1,3,-1
 292 564 l 1,4,-1
 292 555 l 1,5,-1
 0 555 l 1,0,-1
128 319 m 0,6,7
 104 319 104 319 87 332.5 c 128,-1,8
 70 346 70 346 70 381 c 0,9,10
 70 417 70 417 87 430 c 128,-1,11
 104 443 104 443 128 443 c 0,12,13
 151 443 151 443 168.5 430 c 128,-1,14
 186 417 186 417 186 381 c 0,15,16
 186 346 186 346 168.5 332.5 c 128,-1,17
 151 319 151 319 128 319 c 0,6,7
128 54 m 0,18,19
 104 54 104 54 87 67 c 128,-1,20
 70 80 70 80 70 115 c 0,21,22
 70 151 70 151 87 164 c 128,-1,23
 104 177 104 177 128 177 c 0,24,25
 151 177 151 177 168.5 164 c 128,-1,26
 186 151 186 151 186 115 c 0,27,28
 186 80 186 80 168.5 67 c 128,-1,29
 151 54 151 54 128 54 c 0,18,19
EndSplineSet
Substitution2: "+BBUENAQ4BD0EOARHBD0EMARP +BD8EPgQ0BEEEQgQwBD0EPgQyBDoEMAAA lookup 219 subtable" uni0903.001
Substitution2: "+BBUENAQ4BD0EOARHBD0EMARP +BD8EPgQ0BEEEQgQwBD0EPgQyBDoEMAAA lookup 70 subtable" NullMark
EndChar

StartChar: uni094D
Encoding: 2381 2381 106
Width: 0
GlyphClass: 4
Flags: W
AnchorPoint: "+BBEENQQ3BEsEPARPBD0EPQQ+BDUA--20" 0 0 mark 0
AnchorPoint: "+BBEENQQ3BEsEPARPBD0EPQQ+BDUA--14" 0 0 mark 0
AnchorPoint: "+BBEENQQ3BEsEPARPBD0EPQQ+BDUA--10" 0 0 mark 0
AnchorPoint: "+BBEENQQ3BEsEPARPBD0EPQQ+BDUA--7" 0 0 mark 0
LayerCount: 2
Fore
SplineSet
172 -264 m 1,0,1
 120 -199 120 -199 87 -168 c 128,-1,2
 54 -137 54 -137 30.5 -127 c 128,-1,3
 7 -117 7 -117 -18 -117 c 0,4,5
 -53 -117 -53 -117 -79 -127 c 1,6,-1
 -103 -53 l 1,7,8
 -76 -43 -76 -43 -43 -43 c 0,9,10
 -11 -43 -11 -43 14 -51 c 128,-1,11
 39 -59 39 -59 65 -80 c 128,-1,12
 91 -101 91 -101 124 -140 c 128,-1,13
 157 -179 157 -179 205 -241 c 1,14,-1
 172 -264 l 1,0,1
EndSplineSet
Substitution2: "+BBUENAQ4BD0EOARHBD0EMARP +BD8EPgQ0BEEEQgQwBD0EPgQyBDoEMAAA lookup 72 subtable" uni093C094D
EndChar

StartChar: uni093C
Encoding: 2364 2364 107
Width: 0
GlyphClass: 4
Flags: W
AnchorPoint: "+BBEENQQ3BEsEPARPBD0EPQQ+BDUA--22" -254 -130 mark 0
AnchorPoint: "+BBEENQQ3BEsEPARPBD0EPQQ+BDUA--17" -254 -130 mark 0
AnchorPoint: "+BBEENQQ3BEsEPARPBD0EPQQ+BDUA--13" -254 -130 mark 0
AnchorPoint: "+BBEENQQ3BEsEPARPBD0EPQQ+BDUA--9" -254 -130 mark 0
LayerCount: 2
Fore
SplineSet
-253 -184 m 0,0,1
 -306 -184 -306 -184 -306 -130 c 0,2,3
 -306 -77 -306 -77 -253 -77 c 0,4,5
 -202 -77 -202 -77 -202 -130 c 0,6,7
 -202 -184 -202 -184 -253 -184 c 0,0,1
EndSplineSet
Substitution2: "+BBUENAQ4BD0EOARHBD0EMARP +BD8EPgQ0BEEEQgQwBD0EPgQyBDoEMAAA lookup 189 subtable" uni093C.alt
Substitution2: "+BBUENAQ4BD0EOARHBD0EMARP +BD8EPgQ0BEEEQgQwBD0EPgQyBDoEMAAA lookup 95 subtable" uni093C.001
Substitution2: "+BBUENAQ4BD0EOARHBD0EMARP +BD8EPgQ0BEEEQgQwBD0EPgQyBDoEMAAA lookup 78 subtable" uni0944
Substitution2: "+BBUENAQ4BD0EOARHBD0EMARP +BD8EPgQ0BEEEQgQwBD0EPgQyBDoEMAAA lookup 77 subtable" uni0943
Substitution2: "+BBUENAQ4BD0EOARHBD0EMARP +BD8EPgQ0BEEEQgQwBD0EPgQyBDoEMAAA lookup 76 subtable" uni0942
Substitution2: "+BBUENAQ4BD0EOARHBD0EMARP +BD8EPgQ0BEEEQgQwBD0EPgQyBDoEMAAA lookup 75 subtable" uni0941
EndChar

StartChar: uni093D
Encoding: 2365 2365 108
Width: 471
GlyphClass: 1
Flags: W
LayerCount: 2
Fore
SplineSet
264 42 m 0,0,1
 208 42 208 42 160 70.5 c 128,-1,2
 112 99 112 99 75 141 c 128,-1,3
 38 183 38 183 14 223 c 1,4,-1
 50 245 l 1,5,6
 94 181 94 181 143 147.5 c 128,-1,7
 192 114 192 114 246 114 c 0,8,9
 291 114 291 114 316 137 c 128,-1,10
 341 160 341 160 341 198 c 0,11,12
 341 233 341 233 317 264 c 128,-1,13
 293 295 293 295 257.5 325.5 c 128,-1,14
 222 356 222 356 186.5 387.5 c 128,-1,15
 151 419 151 419 127 454.5 c 128,-1,16
 103 490 103 490 103 532 c 0,17,18
 103 567 103 567 129.5 595 c 128,-1,19
 156 623 156 623 213 623 c 2,20,-1
 351 623 l 1,21,-1
 392 564 l 1,22,-1
 392 555 l 1,23,-1
 249 555 l 2,24,25
 213 555 213 555 197.5 542.5 c 128,-1,26
 182 530 182 530 182 506 c 0,27,28
 182 476 182 476 206.5 448 c 128,-1,29
 231 420 231 420 266.5 390.5 c 128,-1,30
 302 361 302 361 338 328 c 128,-1,31
 374 295 374 295 398.5 257.5 c 128,-1,32
 423 220 423 220 423 174 c 0,33,34
 423 115 423 115 379.5 78.5 c 128,-1,35
 336 42 336 42 264 42 c 0,0,1
EndSplineSet
EndChar

StartChar: uni097D
Encoding: 2429 2429 109
Width: 469
GlyphClass: 1
Flags: W
LayerCount: 2
Fore
SplineSet
241 -6 m 1,0,-1
 175 42 l 1,1,-1
 175 268 l 2,2,3
 175 293 175 293 183 320.5 c 128,-1,4
 191 348 191 348 229 387 c 2,5,-1
 293 454 l 2,6,7
 307 468 307 468 315.5 481 c 128,-1,8
 324 494 324 494 324 511 c 0,9,10
 324 531 324 531 308 543 c 128,-1,11
 292 555 292 555 265 555 c 0,12,13
 204 555 204 555 127 502 c 1,14,-1
 78 575 l 1,15,16
 110 598 110 598 147.5 612.5 c 128,-1,17
 185 627 185 627 219 627 c 0,18,19
 244 627 244 627 269 620 c 128,-1,20
 294 613 294 613 322 590 c 0,21,22
 355 563 355 563 370 538.5 c 128,-1,23
 385 514 385 514 385 481 c 0,24,25
 385 441 385 441 350 403 c 2,26,-1
 286 335 l 2,27,28
 273 321 273 321 265 308.5 c 128,-1,29
 257 296 257 296 253.5 279.5 c 128,-1,30
 250 263 250 263 250 235 c 2,31,-1
 250 -6 l 1,32,-1
 241 -6 l 1,0,-1
EndSplineSet
EndChar

StartChar: uni0971
Encoding: 2417 2417 110
Width: 338
GlyphClass: 1
Flags: W
LayerCount: 2
Fore
SplineSet
169 536 m 0,0,1
 148 536 148 536 134 547.5 c 128,-1,2
 120 559 120 559 120 589 c 0,3,4
 120 620 120 620 134 631 c 128,-1,5
 148 642 148 642 169 642 c 0,6,7
 189 642 189 642 203.5 631 c 128,-1,8
 218 620 218 620 218 589 c 0,9,10
 218 559 218 559 203.5 547.5 c 128,-1,11
 189 536 189 536 169 536 c 0,0,1
EndSplineSet
EndChar

StartChar: uni0951
Encoding: 2385 2385 111
Width: 0
GlyphClass: 4
Flags: W
AnchorPoint: "+BBEENQQ3BEsEPARPBD0EPQQ+BDUA--19" -151 623 mark 0
AnchorPoint: "+BBEENQQ3BEsEPARPBD0EPQQ+BDUA--18" -83 623 mark 0
AnchorPoint: "+BBEENQQ3BEsEPARPBD0EPQQ+BDUA--6" -151 623 mark 0
AnchorPoint: "+BBEENQQ3BEsEPARPBD0EPQQ+BDUA--5" -83 623 mark 0
AnchorPoint: "+BBEENQQ3BEsEPARPBD0EPQQ+BDUA--3" -151 623 mark 0
AnchorPoint: "+BBEENQQ3BEsEPARPBD0EPQQ+BDUA--2" -83 623 mark 0
LayerCount: 2
Fore
SplineSet
-151 681 m 1,0,-1
 -151 876 l 1,1,-1
 -92 876 l 1,2,-1
 -92 681 l 1,3,-1
 -151 681 l 1,0,-1
EndSplineSet
Substitution2: "+BBUENAQ4BD0EOARHBD0EMARP +BD8EPgQ0BEEEQgQwBD0EPgQyBDoEMAAA lookup 213 subtable" uni0951.alt05
Substitution2: "+BBUENAQ4BD0EOARHBD0EMARP +BD8EPgQ0BEEEQgQwBD0EPgQyBDoEMAAA lookup 212 subtable" uni0951.alt04
Substitution2: "+BBUENAQ4BD0EOARHBD0EMARP +BD8EPgQ0BEEEQgQwBD0EPgQyBDoEMAAA lookup 211 subtable" uni0951.alt03
Substitution2: "+BBUENAQ4BD0EOARHBD0EMARP +BD8EPgQ0BEEEQgQwBD0EPgQyBDoEMAAA lookup 210 subtable" uni0951.alt02
Substitution2: "+BBUENAQ4BD0EOARHBD0EMARP +BD8EPgQ0BEEEQgQwBD0EPgQyBDoEMAAA lookup 209 subtable" uni0951.alt01
MultipleSubs2: "+BBwEPQQ+BDYENQRBBEIEMgQ1BD0EPQQwBE8A +BD8EPgQ0BEEEQgQwBD0EPgQyBDoEMAAA lookup 69 subtable" uni0951 uni0903
EndChar

StartChar: uni0952
Encoding: 2386 2386 112
Width: 0
GlyphClass: 4
Flags: W
AnchorPoint: "+BBEENQQ3BEsEPARPBD0EPQQ+BDUA--21" -248 0 mark 0
AnchorPoint: "+BBEENQQ3BEsEPARPBD0EPQQ+BDUA--15" -248 0 mark 0
AnchorPoint: "+BBEENQQ3BEsEPARPBD0EPQQ+BDUA--12" -248 0 mark 0
AnchorPoint: "+BBEENQQ3BEsEPARPBD0EPQQ+BDUA--8" -248 0 mark 0
LayerCount: 2
Fore
SplineSet
-461 -144 m 1,0,-1
 -461 -77 l 1,1,-1
 -36 -77 l 1,2,-1
 -36 -144 l 1,3,-1
 -461 -144 l 1,0,-1
EndSplineSet
Substitution2: "+BBUENAQ4BD0EOARHBD0EMARP +BD8EPgQ0BEEEQgQwBD0EPgQyBDoEMAAA lookup 207 subtable" uni0952.001.001
Substitution2: "+BBUENAQ4BD0EOARHBD0EMARP +BD8EPgQ0BEEEQgQwBD0EPgQyBDoEMAAA lookup 206 subtable" uni0952.001
MultipleSubs2: "+BBwEPQQ+BDYENQRBBEIEMgQ1BD0EPQQwBE8A +BD8EPgQ0BEEEQgQwBD0EPgQyBDoEMAAA lookup 69 subtable" uni0952 uni0903
EndChar

StartChar: uni0953
Encoding: 2387 2387 113
Width: 0
GlyphClass: 4
Flags: W
LayerCount: 2
Fore
SplineSet
-117 683 m 1,0,-1
 -250 839 l 1,1,-1
 -209 874 l 1,2,-1
 -76 717 l 1,3,-1
 -117 683 l 1,0,-1
EndSplineSet
EndChar

StartChar: uni0954
Encoding: 2388 2388 114
Width: 0
GlyphClass: 4
Flags: W
LayerCount: 2
Fore
SplineSet
-116 683 m 1,0,-1
 -157 717 l 1,1,-1
 -24 874 l 1,2,-1
 17 839 l 1,3,-1
 -116 683 l 1,0,-1
EndSplineSet
EndChar

StartChar: uni0900
Encoding: 2304 2304 115
Width: 0
GlyphClass: 4
Flags: W
AnchorPoint: "+BBEENQQ3BEsEPARPBD0EPQQ+BDUA--16" -20 623 mark 0
AnchorPoint: "+BBEENQQ3BEsEPARPBD0EPQQ+BDUA--4" -20 623 mark 0
AnchorPoint: "+BBEENQQ3BEsEPARPBD0EPQQ+BDUA--0" -20 623 mark 0
LayerCount: 2
Fore
SplineSet
-33 897 m 0,0,1
 38 897 38 897 90.5 853 c 128,-1,2
 143 809 143 809 159 718 c 1,3,-1
 88 699 l 1,4,5
 76 770 76 770 42.5 801 c 128,-1,6
 9 832 9 832 -41 832 c 0,7,8
 -101 832 -101 832 -136.5 799 c 128,-1,9
 -172 766 -172 766 -192 709 c 1,10,-1
 -230 723 l 1,11,12
 -216 779 -216 779 -185.5 817.5 c 128,-1,13
 -155 856 -155 856 -114.5 876.5 c 128,-1,14
 -74 897 -74 897 -33 897 c 0,0,1
-45 778 m 0,15,16
 -1 778 -1 778 -1 730 c 0,17,18
 -1 683 -1 683 -45 683 c 0,19,20
 -90 683 -90 683 -90 730 c 0,21,22
 -90 778 -90 778 -45 778 c 0,15,16
EndSplineSet
EndChar

StartChar: uni0966
Encoding: 2406 2406 116
Width: 461
GlyphClass: 2
Flags: W
AnchorPoint: "+BBEENQQ3BEsEPARPBD0EPQQ+BDUA--8" 230 0 basechar 0
AnchorPoint: "+BBEENQQ3BEsEPARPBD0EPQQ+BDUA--2" 264 623 basechar 0
LayerCount: 2
Fore
SplineSet
231 104 m 0,0,1
 196 104 196 104 160 122 c 128,-1,2
 124 140 124 140 94 169.5 c 128,-1,3
 64 199 64 199 46 235.5 c 128,-1,4
 28 272 28 272 28 308 c 0,5,6
 28 365 28 365 54.5 410.5 c 128,-1,7
 81 456 81 456 126.5 482.5 c 128,-1,8
 172 509 172 509 230 509 c 0,9,10
 268 509 268 509 304 491 c 128,-1,11
 340 473 340 473 369.5 443.5 c 128,-1,12
 399 414 399 414 416 378 c 128,-1,13
 433 342 433 342 433 306 c 0,14,15
 433 249 433 249 407 203 c 128,-1,16
 381 157 381 157 335.5 130.5 c 128,-1,17
 290 104 290 104 231 104 c 0,0,1
191 175 m 0,18,19
 221 175 221 175 251.5 189.5 c 128,-1,20
 282 204 282 204 308 228 c 128,-1,21
 334 252 334 252 350 282.5 c 128,-1,22
 366 313 366 313 366 345 c 0,23,24
 366 390 366 390 338 414 c 128,-1,25
 310 438 310 438 269 438 c 0,26,27
 238 438 238 438 207 423.5 c 128,-1,28
 176 409 176 409 151 385 c 128,-1,29
 126 361 126 361 111 331.5 c 128,-1,30
 96 302 96 302 96 272 c 0,31,32
 96 224 96 224 124 199.5 c 128,-1,33
 152 175 152 175 191 175 c 0,18,19
EndSplineSet
EndChar

StartChar: uni0967
Encoding: 2407 2407 117
Width: 423
GlyphClass: 2
Flags: W
AnchorPoint: "+BBEENQQ3BEsEPARPBD0EPQQ+BDUA--8" 210 -20 basechar 0
AnchorPoint: "+BBEENQQ3BEsEPARPBD0EPQQ+BDUA--2" 244 623 basechar 0
LayerCount: 2
Fore
SplineSet
281 -63 m 1,0,-1
 207 -7 l 1,1,2
 218 7 218 7 224.5 18 c 128,-1,3
 231 29 231 29 231 43 c 0,4,5
 231 68 231 68 211 95.5 c 128,-1,6
 191 123 191 123 162 149.5 c 128,-1,7
 133 176 133 176 106 198 c 128,-1,8
 79 220 79 220 65 233 c 1,9,10
 80 248 80 248 110 270 c 128,-1,11
 140 292 140 292 173 319 c 1,12,13
 119 359 119 359 86 404.5 c 128,-1,14
 53 450 53 450 53 503 c 0,15,16
 53 534 53 534 68 563 c 128,-1,17
 83 592 83 592 113.5 610.5 c 128,-1,18
 144 629 144 629 191 629 c 0,19,20
 230 629 230 629 259 613 c 128,-1,21
 288 597 288 597 311 572 c 0,22,23
 340 541 340 541 354 513.5 c 128,-1,24
 368 486 368 486 368 447 c 0,25,26
 368 413 368 413 347.5 378.5 c 128,-1,27
 327 344 327 344 295.5 311.5 c 128,-1,28
 264 279 264 279 230 250.5 c 128,-1,29
 196 222 196 222 169 201 c 1,30,31
 187 188 187 188 212.5 170 c 128,-1,32
 238 152 238 152 263.5 129 c 128,-1,33
 289 106 289 106 305.5 80 c 128,-1,34
 322 54 322 54 322 25 c 0,35,36
 322 -3 322 -3 310 -24.5 c 128,-1,37
 298 -46 298 -46 281 -63 c 1,0,-1
131 462 m 0,38,39
 131 431 131 431 150.5 401 c 128,-1,40
 170 371 170 371 208 349 c 1,41,42
 244 382 244 382 270.5 418 c 128,-1,43
 297 454 297 454 297 489 c 0,44,45
 297 520 297 520 277.5 539 c 128,-1,46
 258 558 258 558 226 558 c 0,47,48
 181 558 181 558 156 529 c 128,-1,49
 131 500 131 500 131 462 c 0,38,39
EndSplineSet
EndChar

StartChar: uni0968
Encoding: 2408 2408 118
Width: 459
GlyphClass: 2
Flags: W
AnchorPoint: "+BBEENQQ3BEsEPARPBD0EPQQ+BDUA--8" 225 -20 basechar 0
AnchorPoint: "+BBEENQQ3BEsEPARPBD0EPQQ+BDUA--2" 258 623 basechar 0
LayerCount: 2
Fore
SplineSet
257 -50 m 1,0,-1
 175 197 l 1,1,2
 159 195 159 195 144 195 c 0,3,4
 121 195 121 195 98 204.5 c 128,-1,5
 75 214 75 214 60.5 232.5 c 128,-1,6
 46 251 46 251 46 278 c 0,7,8
 46 301 46 301 63 319 c 128,-1,9
 80 337 80 337 112 337 c 0,10,11
 129 337 129 337 147 327 c 128,-1,12
 165 317 165 317 182 292 c 1,13,14
 223 307 223 307 257 330.5 c 128,-1,15
 291 354 291 354 311.5 384.5 c 128,-1,16
 332 415 332 415 332 451 c 0,17,18
 332 492 332 492 304 519.5 c 128,-1,19
 276 547 276 547 230 547 c 0,20,21
 196 547 196 547 164 534 c 128,-1,22
 132 521 132 521 109 504 c 1,23,-1
 56 575 l 1,24,25
 85 599 85 599 123 613.5 c 128,-1,26
 161 628 161 628 197 628 c 0,27,28
 238 628 238 628 274.5 606 c 128,-1,29
 311 584 311 584 340 551 c 0,30,31
 371 517 371 517 388 476.5 c 128,-1,32
 405 436 405 436 405 394 c 256,33,34
 405 352 405 352 380.5 315 c 128,-1,35
 356 278 356 278 315.5 250 c 128,-1,36
 275 222 275 222 228 208 c 1,37,38
 242 180 242 180 261.5 142 c 128,-1,39
 281 104 281 104 302.5 62 c 128,-1,40
 324 20 324 20 344 -20 c 1,41,-1
 257 -50 l 1,0,-1
EndSplineSet
EndChar

StartChar: uni0969
Encoding: 2409 2409 119
Width: 457
GlyphClass: 2
Flags: W
AnchorPoint: "+BBEENQQ3BEsEPARPBD0EPQQ+BDUA--8" 227 -50 basechar 0
AnchorPoint: "+BBEENQQ3BEsEPARPBD0EPQQ+BDUA--2" 261 623 basechar 0
LayerCount: 2
Fore
SplineSet
230 -86 m 1,0,1
 218 -46 218 -46 205.5 -6.5 c 128,-1,2
 193 33 193 33 184 63 c 1,3,4
 155 65 155 65 123 75.5 c 128,-1,5
 91 86 91 86 68.5 106.5 c 128,-1,6
 46 127 46 127 46 160 c 0,7,8
 46 182 46 182 62.5 197 c 128,-1,9
 79 212 79 212 104 212 c 0,10,11
 126 212 126 212 149.5 196 c 128,-1,12
 173 180 173 180 198 138 c 1,13,14
 263 141 263 141 294.5 169 c 128,-1,15
 326 197 326 197 326 240 c 0,16,17
 326 293 326 293 274 338 c 1,18,19
 244 326 244 326 213 318.5 c 128,-1,20
 182 311 182 311 157 306 c 1,21,-1
 99 383 l 1,22,23
 135 389 135 389 172 398.5 c 128,-1,24
 209 408 209 408 241 421.5 c 128,-1,25
 273 435 273 435 292.5 452.5 c 128,-1,26
 312 470 312 470 312 493 c 0,27,28
 312 522 312 522 292 538.5 c 128,-1,29
 272 555 272 555 240 555 c 0,30,31
 209 555 209 555 173.5 544 c 128,-1,32
 138 533 138 533 111 516 c 1,33,-1
 56 590 l 1,34,35
 86 610 86 610 124 622 c 128,-1,36
 162 634 162 634 199 634 c 0,37,38
 235 634 235 634 266.5 618 c 128,-1,39
 298 602 298 602 329 569 c 0,40,41
 361 536 361 536 373.5 506 c 128,-1,42
 386 476 386 476 386 453 c 0,43,44
 386 423 386 423 366.5 399.5 c 128,-1,45
 347 376 347 376 318 359 c 1,46,47
 327 352 327 352 337 343 c 128,-1,48
 347 334 347 334 357 324 c 0,49,50
 377 305 377 305 393 275.5 c 128,-1,51
 409 246 409 246 409 209 c 0,52,53
 409 165 409 165 385 134.5 c 128,-1,54
 361 104 361 104 323 86.5 c 128,-1,55
 285 69 285 69 241 64 c 1,56,57
 253 45 253 45 271 16.5 c 128,-1,58
 289 -12 289 -12 315 -59 c 1,59,-1
 230 -86 l 1,0,1
EndSplineSet
EndChar

StartChar: uni096A
Encoding: 2410 2410 120
Width: 542
GlyphClass: 2
Flags: W
AnchorPoint: "+BBEENQQ3BEsEPARPBD0EPQQ+BDUA--8" 271 0 basechar 0
AnchorPoint: "+BBEENQQ3BEsEPARPBD0EPQQ+BDUA--2" 305 623 basechar 0
LayerCount: 2
Fore
SplineSet
321 -5 m 0,0,1
 295 -5 295 -5 260 3 c 128,-1,2
 225 11 225 11 189 33 c 0,3,4
 127 70 127 70 107 105 c 128,-1,5
 87 140 87 140 87 179 c 0,6,7
 87 222 87 222 113.5 258.5 c 128,-1,8
 140 295 140 295 179 327 c 1,9,10
 143 349 143 349 113 373.5 c 128,-1,11
 83 398 83 398 64.5 427 c 128,-1,12
 46 456 46 456 46 491 c 256,13,14
 46 526 46 526 60 551 c 128,-1,15
 74 576 74 576 95 593 c 128,-1,16
 116 610 116 610 136.5 620.5 c 128,-1,17
 157 631 157 631 169 635 c 1,18,-1
 229 573 l 1,19,20
 207 562 207 562 184.5 547.5 c 128,-1,21
 162 533 162 533 147 514 c 128,-1,22
 132 495 132 495 132 468 c 0,23,24
 132 437 132 437 158 411 c 128,-1,25
 184 385 184 385 223 361 c 1,26,27
 268 393 268 393 313 422.5 c 128,-1,28
 358 452 358 452 387.5 480 c 128,-1,29
 417 508 417 508 417 538 c 0,30,31
 417 562 417 562 407 576.5 c 128,-1,32
 397 591 397 591 397 592 c 2,33,-1
 426 618 l 1,34,35
 455 600 455 600 475.5 574 c 128,-1,36
 496 548 496 548 496 510 c 0,37,38
 496 469 496 469 466.5 435.5 c 128,-1,39
 437 402 437 402 392 372 c 128,-1,40
 347 342 347 342 303 312 c 1,41,42
 342 288 342 288 377 260 c 128,-1,43
 412 232 412 232 434 198 c 128,-1,44
 456 164 456 164 456 120 c 0,45,46
 456 80 456 80 436 52 c 128,-1,47
 416 24 416 24 385 9.5 c 128,-1,48
 354 -5 354 -5 321 -5 c 0,0,1
174 155 m 0,49,50
 174 112 174 112 203 87.5 c 128,-1,51
 232 63 232 63 269 63 c 0,52,53
 295 63 295 63 319 73.5 c 128,-1,54
 343 84 343 84 359 104.5 c 128,-1,55
 375 125 375 125 375 154 c 0,56,57
 375 192 375 192 340.5 222 c 128,-1,58
 306 252 306 252 258 280 c 1,59,60
 222 253 222 253 198 222.5 c 128,-1,61
 174 192 174 192 174 155 c 0,49,50
EndSplineSet
EndChar

StartChar: uni096B
Encoding: 2411 2411 121
Width: 513
GlyphClass: 2
Flags: W
AnchorPoint: "+BBEENQQ3BEsEPARPBD0EPQQ+BDUA--8" 300 0 basechar 0
AnchorPoint: "+BBEENQQ3BEsEPARPBD0EPQQ+BDUA--2" 334 623 basechar 0
LayerCount: 2
Fore
SplineSet
276 180 m 0,0,1
 234 180 234 180 202 192.5 c 128,-1,2
 170 205 170 205 141 231 c 0,3,4
 98 271 98 271 78 312.5 c 128,-1,5
 58 354 58 354 58 404 c 0,6,7
 58 450 58 450 82.5 511 c 128,-1,8
 107 572 107 572 162 637 c 1,9,-1
 242 589 l 1,10,11
 193 533 193 533 165 473.5 c 128,-1,12
 137 414 137 414 137 354 c 0,13,14
 137 302 137 302 168.5 273.5 c 128,-1,15
 200 245 200 245 239 245 c 0,16,17
 263 245 263 245 287 253 c 128,-1,18
 311 261 311 261 327 280 c 1,19,20
 317 297 317 297 314 313.5 c 128,-1,21
 311 330 311 330 311 341 c 0,22,23
 311 378 311 378 330.5 394.5 c 128,-1,24
 350 411 350 411 373 411 c 0,25,26
 403 411 403 411 423 387 c 128,-1,27
 443 363 443 363 443 326 c 0,28,29
 443 297 443 297 432 272.5 c 128,-1,30
 421 248 421 248 402 229 c 1,31,32
 431 173 431 173 465 117.5 c 128,-1,33
 499 62 499 62 542 4 c 1,34,-1
 460 -41 l 1,35,36
 452 -25 452 -25 438.5 4.5 c 128,-1,37
 425 34 425 34 410 69 c 128,-1,38
 395 104 395 104 381.5 138.5 c 128,-1,39
 368 173 368 173 359 199 c 1,40,41
 320 180 320 180 276 180 c 0,0,1
EndSplineSet
Substitution2: "'locl' +BBsEPgQ6BDAEOwQ4BDcEPgQyBDAEPQQ9BEsENQAA +BEQEPgRABDwESwAA lookup 93 subtable" uni096B.NEP
EndChar

StartChar: uni096C
Encoding: 2412 2412 122
Width: 509
GlyphClass: 2
Flags: W
AnchorPoint: "+BBEENQQ3BEsEPARPBD0EPQQ+BDUA--8" 281 -50 basechar 0
AnchorPoint: "+BBEENQQ3BEsEPARPBD0EPQQ+BDUA--2" 315 623 basechar 0
LayerCount: 2
Fore
SplineSet
422 -86 m 1,0,1
 413 -70 413 -70 399.5 -38.5 c 128,-1,2
 386 -7 386 -7 373.5 26.5 c 128,-1,3
 361 60 361 60 356 80 c 1,4,5
 343 76 343 76 325.5 73 c 128,-1,6
 308 70 308 70 293 70 c 0,7,8
 245 70 245 70 207.5 87 c 128,-1,9
 170 104 170 104 133 139 c 0,10,11
 103 168 103 168 86.5 195.5 c 128,-1,12
 70 223 70 223 70 262 c 0,13,14
 70 297 70 297 87.5 326 c 128,-1,15
 105 355 105 355 136 376 c 1,16,17
 104 401 104 401 83.5 433.5 c 128,-1,18
 63 466 63 466 63 503 c 0,19,20
 63 559 63 559 105 595.5 c 128,-1,21
 147 632 147 632 226 632 c 0,22,23
 249 632 249 632 277 629 c 128,-1,24
 305 626 305 626 331 621 c 1,25,-1
 362 539 l 1,26,27
 335 544 335 544 302.5 548 c 128,-1,28
 270 552 270 552 239 552 c 0,29,30
 200 552 200 552 171 533 c 128,-1,31
 142 514 142 514 142 473 c 0,32,33
 142 449 142 449 154 430 c 128,-1,34
 166 411 166 411 178 398 c 1,35,36
 233 420 233 420 305 421 c 1,37,-1
 335 341 l 1,38,39
 309 340 309 340 277 334 c 128,-1,40
 245 328 245 328 216 314.5 c 128,-1,41
 187 301 187 301 168 279.5 c 128,-1,42
 149 258 149 258 149 226 c 0,43,44
 149 182 149 182 179.5 160 c 128,-1,45
 210 138 210 138 244 138 c 0,46,47
 260 138 260 138 285.5 143.5 c 128,-1,48
 311 149 311 149 333 164 c 1,49,50
 328 183 328 183 328 197 c 0,51,52
 328 234 328 234 347.5 250.5 c 128,-1,53
 367 267 367 267 389 267 c 0,54,55
 419 267 419 267 444 242 c 128,-1,56
 469 217 469 217 469 182 c 0,57,58
 469 151 469 151 449 128.5 c 128,-1,59
 429 106 429 106 399 93 c 1,60,61
 410 73 410 73 427.5 48 c 128,-1,62
 445 23 445 23 464 -1 c 128,-1,63
 483 -25 483 -25 499 -43 c 1,64,-1
 422 -86 l 1,0,1
EndSplineSet
EndChar

StartChar: uni096D
Encoding: 2413 2413 123
Width: 588
GlyphClass: 2
Flags: W
AnchorPoint: "+BBEENQQ3BEsEPARPBD0EPQQ+BDUA--8" 291 0 basechar 0
AnchorPoint: "+BBEENQQ3BEsEPARPBD0EPQQ+BDUA--2" 325 623 basechar 0
LayerCount: 2
Fore
SplineSet
350 29 m 0,0,1
 260 29 260 29 190 91.5 c 128,-1,2
 120 154 120 154 80 285 c 128,-1,3
 40 416 40 416 40 623 c 1,4,-1
 87 633 l 1,5,6
 96 487 96 487 117.5 386 c 128,-1,7
 139 285 139 285 170.5 223.5 c 128,-1,8
 202 162 202 162 241 134 c 128,-1,9
 280 106 280 106 323 106 c 0,10,11
 367 106 367 106 403.5 143.5 c 128,-1,12
 440 181 440 181 454 251 c 1,13,14
 404 253 404 253 351 274 c 0,15,16
 313 289 313 289 280 314 c 128,-1,17
 247 339 247 339 227 374.5 c 128,-1,18
 207 410 207 410 207 456 c 0,19,20
 207 514 207 514 240 545.5 c 128,-1,21
 273 577 273 577 325 577 c 0,22,23
 361 577 361 577 390.5 562 c 128,-1,24
 420 547 420 547 442 528 c 0,25,26
 502 478 502 478 522 417 c 128,-1,27
 542 356 542 356 542 292 c 0,28,29
 542 223 542 223 524.5 173 c 128,-1,30
 507 123 507 123 478 91.5 c 128,-1,31
 449 60 449 60 415.5 44.5 c 128,-1,32
 382 29 382 29 350 29 c 0,0,1
293 438 m 0,33,34
 293 400 293 400 315.5 369.5 c 128,-1,35
 338 339 338 339 376 320 c 128,-1,36
 414 301 414 301 460 296 c 1,37,38
 461 310 461 310 461 325 c 0,39,40
 461 414 461 414 433 463 c 128,-1,41
 405 512 405 512 356 512 c 0,42,43
 328 512 328 512 310.5 491.5 c 128,-1,44
 293 471 293 471 293 438 c 0,33,34
EndSplineSet
EndChar

StartChar: uni096E
Encoding: 2414 2414 124
Width: 497
GlyphClass: 2
Flags: W
AnchorPoint: "+BBEENQQ3BEsEPARPBD0EPQQ+BDUA--8" 254 0 basechar 0
AnchorPoint: "+BBEENQQ3BEsEPARPBD0EPQQ+BDUA--2" 288 623 basechar 0
LayerCount: 2
Fore
SplineSet
259 29 m 0,0,1
 221 29 221 29 186.5 45.5 c 128,-1,2
 152 62 152 62 111 99 c 0,3,4
 34 169 34 169 34 249 c 0,5,6
 34 278 34 278 48.5 308 c 128,-1,7
 63 338 63 338 99 378.5 c 128,-1,8
 135 419 135 419 198.5 478.5 c 128,-1,9
 262 538 262 538 359 626 c 1,10,-1
 426 563 l 1,11,12
 328 476 328 476 267 418.5 c 128,-1,13
 206 361 206 361 173 323.5 c 128,-1,14
 140 286 140 286 128 259.5 c 128,-1,15
 116 233 116 233 116 206 c 0,16,17
 116 160 116 160 146.5 131.5 c 128,-1,18
 177 103 177 103 228 103 c 0,19,20
 273 103 273 103 320 132.5 c 128,-1,21
 367 162 367 162 410 213 c 1,22,-1
 475 153 l 1,23,24
 429 93 429 93 373 61 c 128,-1,25
 317 29 317 29 259 29 c 0,0,1
EndSplineSet
Substitution2: "'locl' +BBsEPgQ6BDAEOwQ4BDcEPgQyBDAEPQQ9BEsENQAA +BEQEPgRABDwESwAA lookup 93 subtable" uni096E.NEP
EndChar

StartChar: uni096F
Encoding: 2415 2415 125
Width: 465
GlyphClass: 2
Flags: W
AnchorPoint: "+BBEENQQ3BEsEPARPBD0EPQQ+BDUA--8" 222 0 basechar 0
AnchorPoint: "+BBEENQQ3BEsEPARPBD0EPQQ+BDUA--2" 256 623 basechar 0
LayerCount: 2
Fore
SplineSet
324 -39 m 1,0,-1
 248 13 l 1,1,2
 295 54 295 54 295 90 c 0,3,4
 295 125 295 125 266.5 157 c 128,-1,5
 238 189 238 189 195 226.5 c 128,-1,6
 152 264 152 264 107 314 c 0,7,8
 76 349 76 349 62 384.5 c 128,-1,9
 48 420 48 420 48 459 c 0,10,11
 48 501 48 501 68 537.5 c 128,-1,12
 88 574 88 574 124 596.5 c 128,-1,13
 160 619 160 619 208 619 c 0,14,15
 286 619 286 619 341 564 c 0,16,17
 397 508 397 508 397 444 c 0,18,19
 397 399 397 399 369.5 367 c 128,-1,20
 342 335 342 335 298.5 316 c 128,-1,21
 255 297 255 297 207 290 c 1,22,23
 214 283 214 283 221.5 276.5 c 128,-1,24
 229 270 229 270 236 263 c 0,25,26
 276 228 276 228 310.5 197.5 c 128,-1,27
 345 167 345 167 367 136.5 c 128,-1,28
 389 106 389 106 389 70 c 0,29,30
 389 45 389 45 375 18.5 c 128,-1,31
 361 -8 361 -8 324 -39 c 1,0,-1
136 430 m 0,32,33
 136 409 136 409 141 391 c 128,-1,34
 146 373 146 373 154 357 c 1,35,36
 202 362 202 362 240 378 c 128,-1,37
 278 394 278 394 300.5 419.5 c 128,-1,38
 323 445 323 445 323 477 c 0,39,40
 323 512 323 512 301.5 533 c 128,-1,41
 280 554 280 554 248 554 c 0,42,43
 211 554 211 554 186 534.5 c 128,-1,44
 161 515 161 515 148.5 486.5 c 128,-1,45
 136 458 136 458 136 430 c 0,32,33
EndSplineSet
Substitution2: "'locl' +BBsEPgQ6BDAEOwQ4BDcEPgQyBDAEPQQ9BEsENQAA +BEQEPgRABDwESwAA lookup 93 subtable" uni096F.NEP
EndChar

StartChar: uni096B.NEP
Encoding: 1114119 -1 126
Width: 515
GlyphClass: 2
Flags: W
AnchorPoint: "+BBEENQQ3BEsEPARPBD0EPQQ+BDUA--8" 267 -80 basechar 0
AnchorPoint: "+BBEENQQ3BEsEPARPBD0EPQQ+BDUA--2" 267 623 basechar 0
LayerCount: 2
Fore
SplineSet
260 -88 m 1,0,-1
 214 60 l 1,1,2
 177 62 177 62 145 74 c 128,-1,3
 113 86 113 86 93.5 107.5 c 128,-1,4
 74 129 74 129 74 158 c 0,5,6
 74 181 74 181 91 197 c 128,-1,7
 108 213 108 213 133 213 c 0,8,9
 165 213 165 213 187 189.5 c 128,-1,10
 209 166 209 166 231 131 c 1,11,12
 272 134 272 134 299 160 c 128,-1,13
 326 186 326 186 332 239 c 2,14,-1
 337 282 l 1,15,16
 322 274 322 274 304 269 c 128,-1,17
 286 264 286 264 267 264 c 0,18,19
 203 264 203 264 143 321 c 0,20,21
 115 349 115 349 101 372 c 128,-1,22
 87 395 87 395 83 423 c 128,-1,23
 79 451 79 451 79 492 c 2,24,-1
 79 622 l 1,25,-1
 160 622 l 1,26,-1
 160 419 l 2,27,28
 160 336 160 336 229 336 c 0,29,30
 258 336 258 336 290 350.5 c 128,-1,31
 322 365 322 365 350 391 c 1,32,-1
 377 622 l 1,33,-1
 460 622 l 1,34,-1
 416 237 l 2,35,36
 407 162 407 162 372.5 118 c 128,-1,37
 338 74 338 74 271 63 c 1,38,-1
 345 -60 l 1,39,-1
 260 -88 l 1,0,-1
EndSplineSet
EndChar

StartChar: uni096E.NEP
Encoding: 1114120 -1 127
Width: 571
GlyphClass: 2
Flags: W
AnchorPoint: "+BBEENQQ3BEsEPARPBD0EPQQ+BDUA--8" 275 0 basechar 0
AnchorPoint: "+BBEENQQ3BEsEPARPBD0EPQQ+BDUA--2" 275 623 basechar 0
LayerCount: 2
Fore
SplineSet
402 -8 m 1,0,-1
 346 64 l 1,1,2
 387 88 387 88 411.5 118.5 c 128,-1,3
 436 149 436 149 436 175 c 0,4,5
 436 206 436 206 399 206 c 0,6,7
 371 206 371 206 339 198 c 128,-1,8
 307 190 307 190 278 190 c 0,9,10
 250 190 250 190 221 205 c 128,-1,11
 192 220 192 220 164 248 c 0,12,13
 105 304 105 304 105 361 c 0,14,15
 105 399 105 399 119.5 440.5 c 128,-1,16
 134 482 134 482 158 525 c 1,17,-1
 62 525 l 1,18,-1
 22 583 l 1,19,-1
 22 593 l 1,20,-1
 489 593 l 1,21,-1
 529 535 l 1,22,-1
 529 525 l 1,23,-1
 271 525 l 1,24,25
 229 470 229 470 205.5 420.5 c 128,-1,26
 182 371 182 371 182 328 c 0,27,28
 182 300 182 300 200 282 c 128,-1,29
 218 264 218 264 248 264 c 0,30,31
 279 264 279 264 311 273.5 c 128,-1,32
 343 283 343 283 374 283 c 0,33,34
 425 283 425 283 470 235 c 0,35,36
 513 188 513 188 513 141 c 0,37,38
 513 100 513 100 482.5 60.5 c 128,-1,39
 452 21 452 21 402 -8 c 1,0,-1
EndSplineSet
EndChar

StartChar: uni096F.NEP
Encoding: 1114121 -1 128
Width: 502
GlyphClass: 2
Flags: W
AnchorPoint: "+BBEENQQ3BEsEPARPBD0EPQQ+BDUA--8" 253 0 basechar 0
AnchorPoint: "+BBEENQQ3BEsEPARPBD0EPQQ+BDUA--2" 253 623 basechar 0
LayerCount: 2
Fore
SplineSet
345 -8 m 1,0,-1
 289 64 l 1,1,2
 330 88 330 88 354.5 119 c 128,-1,3
 379 150 379 150 379 175 c 0,4,5
 379 190 379 190 370.5 197.5 c 128,-1,6
 362 205 362 205 340 205 c 0,7,8
 313 205 313 205 279.5 197.5 c 128,-1,9
 246 190 246 190 216 190 c 0,10,11
 188 190 188 190 159 205 c 128,-1,12
 130 220 130 220 102 248 c 0,13,14
 44 305 44 305 44 365 c 0,15,16
 44 415 44 415 67.5 471 c 128,-1,17
 91 527 91 527 131 582 c 1,18,19
 176 557 176 557 230 539.5 c 128,-1,20
 284 522 284 522 328 522 c 0,21,22
 393 522 393 522 393 573 c 0,23,24
 393 591 393 591 385 609 c 1,25,-1
 427 625 l 1,26,27
 462 579 462 579 462 529 c 0,28,29
 462 487 462 487 434 462.5 c 128,-1,30
 406 438 406 438 358 438 c 0,31,32
 323 438 323 438 287 449.5 c 128,-1,33
 251 461 251 461 194 490 c 1,34,35
 159 446 159 446 140 404.5 c 128,-1,36
 121 363 121 363 121 328 c 0,37,38
 121 300 121 300 139 282 c 128,-1,39
 157 264 157 264 186 264 c 0,40,41
 218 264 218 264 250 274 c 128,-1,42
 282 284 282 284 313 284 c 0,43,44
 367 284 367 284 413 235 c 0,45,46
 436 210 436 210 446 188 c 128,-1,47
 456 166 456 166 456 141 c 0,48,49
 456 100 456 100 425.5 60.5 c 128,-1,50
 395 21 395 21 345 -8 c 1,0,-1
EndSplineSet
EndChar

StartChar: uni0950
Encoding: 2384 2384 129
Width: 917
GlyphClass: 1
Flags: W
LayerCount: 2
Fore
SplineSet
570 739 m 0,0,1
 551 739 551 739 538 749 c 128,-1,2
 525 759 525 759 525 786 c 256,3,4
 525 813 525 813 538 823 c 128,-1,5
 551 833 551 833 570 833 c 0,6,7
 588 833 588 833 601 823 c 128,-1,8
 614 813 614 813 614 786 c 256,9,10
 614 759 614 759 601 749 c 128,-1,11
 588 739 588 739 570 739 c 0,0,1
582 619 m 0,12,13
 541 619 541 619 500.5 639.5 c 128,-1,14
 460 660 460 660 429.5 699 c 128,-1,15
 399 738 399 738 385 793 c 1,16,-1
 423 807 l 1,17,18
 443 751 443 751 479 717.5 c 128,-1,19
 515 684 515 684 574 684 c 0,20,21
 624 684 624 684 657.5 715 c 128,-1,22
 691 746 691 746 704 817 c 1,23,-1
 773 798 l 1,24,25
 757 707 757 707 705 663 c 128,-1,26
 653 619 653 619 582 619 c 0,12,13
334 0 m 0,27,28
 268 0 268 0 213 42 c 128,-1,29
 158 84 158 84 117 152.5 c 128,-1,30
 76 221 76 221 50 300 c 1,31,-1
 95 319 l 1,32,33
 120 248 120 248 151.5 193.5 c 128,-1,34
 183 139 183 139 222 108 c 128,-1,35
 261 77 261 77 308 77 c 0,36,37
 367 77 367 77 394 108.5 c 128,-1,38
 421 140 421 140 421 183 c 0,39,40
 421 218 421 218 404.5 251 c 128,-1,41
 388 284 388 284 359 308 c 1,42,43
 328 292 328 292 284 277 c 1,44,-1
 243 348 l 1,45,46
 333 375 333 375 371.5 414.5 c 128,-1,47
 410 454 410 454 410 490 c 0,48,49
 410 524 410 524 388.5 537 c 128,-1,50
 367 550 367 550 337 550 c 0,51,52
 305 550 305 550 270.5 539.5 c 128,-1,53
 236 529 236 529 208 514 c 1,54,-1
 168 590 l 1,55,56
 205 609 205 609 240.5 618 c 128,-1,57
 276 627 276 627 308 627 c 256,58,59
 340 627 340 627 369 612.5 c 128,-1,60
 398 598 398 598 428 564 c 0,61,62
 471 518 471 518 471 456 c 0,63,64
 471 380 471 380 399 331 c 1,65,66
 407 328 407 328 416 326 c 128,-1,67
 425 324 425 324 434 324 c 0,68,69
 471 324 471 324 496 339 c 128,-1,70
 521 354 521 354 538.5 377.5 c 128,-1,71
 556 401 556 401 571 428 c 128,-1,72
 586 455 586 455 601.5 478.5 c 128,-1,73
 617 502 617 502 638.5 517 c 128,-1,74
 660 532 660 532 691 532 c 256,75,76
 722 532 722 532 747 518.5 c 128,-1,77
 772 505 772 505 794 482 c 0,78,79
 827 449 827 449 847 405.5 c 128,-1,80
 867 362 867 362 867 299 c 0,81,82
 867 255 867 255 851 210.5 c 128,-1,83
 835 166 835 166 800.5 136.5 c 128,-1,84
 766 107 766 107 710 107 c 0,85,86
 678 107 678 107 645.5 124 c 128,-1,87
 613 141 613 141 585 167 c 128,-1,88
 557 193 557 193 539 218 c 1,89,-1
 567 243 l 1,90,91
 592 217 592 217 622 196 c 128,-1,92
 652 175 652 175 689 175 c 0,93,94
 721 175 721 175 742 190.5 c 128,-1,95
 763 206 763 206 775 230.5 c 128,-1,96
 787 255 787 255 792 282.5 c 128,-1,97
 797 310 797 310 797 335 c 0,98,99
 797 370 797 370 789 401 c 128,-1,100
 781 432 781 432 764 452 c 128,-1,101
 747 472 747 472 721 472 c 0,102,103
 696 472 696 472 677.5 451 c 128,-1,104
 659 430 659 430 641 399.5 c 128,-1,105
 623 369 623 369 603 338.5 c 128,-1,106
 583 308 583 308 555.5 287 c 128,-1,107
 528 266 528 266 490 266 c 0,108,109
 463 266 463 266 442 274 c 1,110,111
 466 246 466 246 478 212.5 c 128,-1,112
 490 179 490 179 490 149 c 0,113,114
 490 79 490 79 445.5 39.5 c 128,-1,115
 401 0 401 0 334 0 c 0,27,28
EndSplineSet
EndChar

StartChar: uni0970
Encoding: 2416 2416 130
Width: 482
GlyphClass: 1
Flags: W
LayerCount: 2
Fore
SplineSet
243 280 m 0,0,1
 196 280 196 280 164 299 c 128,-1,2
 132 318 132 318 116 349 c 128,-1,3
 100 380 100 380 100 415 c 0,4,5
 100 474 100 474 144 518 c 0,6,7
 161 535 161 535 185 547 c 128,-1,8
 209 559 209 559 240 559 c 0,9,10
 288 559 288 559 319.5 539.5 c 128,-1,11
 351 520 351 520 366.5 489 c 128,-1,12
 382 458 382 458 382 423 c 0,13,14
 382 361 382 361 333 317 c 0,15,16
 316 302 316 302 294 291 c 128,-1,17
 272 280 272 280 243 280 c 0,0,1
245 319 m 0,18,19
 289 319 289 319 310.5 351 c 128,-1,20
 332 383 332 383 332 420 c 0,21,22
 332 458 332 458 308.5 489.5 c 128,-1,23
 285 521 285 521 239 521 c 0,24,25
 195 521 195 521 173.5 489.5 c 128,-1,26
 152 458 152 458 152 420 c 256,27,28
 152 382 152 382 175.5 350.5 c 128,-1,29
 199 319 199 319 245 319 c 0,18,19
EndSplineSet
EndChar

StartChar: uni0964
Encoding: 2404 2404 131
Width: 369
GlyphClass: 1
Flags: W
LayerCount: 2
Fore
SplineSet
254 -6 m 1,0,-1
 194 38 l 1,1,-1
 194 623 l 1,2,-1
 204 623 l 1,3,-1
 264 579 l 1,4,-1
 264 -6 l 1,5,-1
 254 -6 l 1,0,-1
EndSplineSet
EndChar

StartChar: uni1CD0
Encoding: 7376 7376 133
Width: 0
GlyphClass: 4
Flags: W
AnchorPoint: "Vedic letter" 0 800 mark 0
LayerCount: 2
Fore
SplineSet
-308 991 m 1,0,-1
 -377 1041 l 1,1,-1
 -191 1263 l 1,2,-1
 8 1024 l 1,3,-1
 -21 995 l 1,4,-1
 -163 1162 l 1,5,-1
 -308 991 l 1,0,-1
EndSplineSet
MultipleSubs2: "+BBwEPQQ+BDYENQRBBEIEMgQ1BD0EPQQwBE8A +BD8EPgQ0BEEEQgQwBD0EPgQyBDoEMAAA lookup 69 subtable" uni1CD0 uni0903
EndChar

StartChar: uni1CD1
Encoding: 7377 7377 134
Width: 0
GlyphClass: 4
Flags: W
AnchorPoint: "Vedic letter" 0 800 mark 0
LayerCount: 2
Fore
SplineSet
-308 991 m 1,0,-1
 -377 1041 l 1,1,-1
 -191 1263 l 1,2,-1
 8 1024 l 1,3,-1
 -21 995 l 1,4,-1
 -163 1162 l 1,5,-1
 -308 991 l 1,0,-1
-139 919 m 1,6,-1
 -192 938 l 1,7,-1
 -192 1105 l 1,8,-1
 -183 1105 l 1,9,-1
 -129 1085 l 1,10,-1
 -129 919 l 1,11,-1
 -139 919 l 1,6,-1
EndSplineSet
MultipleSubs2: "+BBwEPQQ+BDYENQRBBEIEMgQ1BD0EPQQwBE8A +BD8EPgQ0BEEEQgQwBD0EPgQyBDoEMAAA lookup 69 subtable" uni1CD1 uni0903
EndChar

StartChar: uni1CD2
Encoding: 7378 7378 135
Width: 0
GlyphClass: 4
Flags: W
AnchorPoint: "Vedic letter" 0 800 mark 0
LayerCount: 2
Fore
SplineSet
-322 1084 m 1,0,-1
 -361 1142 l 1,1,-1
 -361 1152 l 1,2,-1
 -37 1152 l 1,3,-1
 3 1094 l 1,4,-1
 3 1084 l 1,5,-1
 -322 1084 l 1,0,-1
EndSplineSet
MultipleSubs2: "+BBwEPQQ+BDYENQRBBEIEMgQ1BD0EPQQwBE8A +BD8EPgQ0BEEEQgQwBD0EPgQyBDoEMAAA lookup 69 subtable" uni1CD2 uni0903
EndChar

StartChar: uni1CD3
Encoding: 7379 7379 136
Width: 291
GlyphClass: 1
Flags: W
LayerCount: 2
Fore
SplineSet
159 659 m 1,0,-1
 188 896 l 1,1,-1
 242 896 l 1,2,-1
 212 659 l 1,3,-1
 159 659 l 1,0,-1
49 659 m 1,4,-1
 78 896 l 1,5,-1
 132 896 l 1,6,-1
 103 659 l 1,7,-1
 49 659 l 1,4,-1
EndSplineSet
MultipleSubs2: "+BBwEPQQ+BDYENQRBBEIEMgQ1BD0EPQQwBE8A +BD8EPgQ0BEEEQgQwBD0EPgQyBDoEMAAA lookup 69 subtable" uni1CD3 uni0903
EndChar

StartChar: uni1CD4
Encoding: 7380 7380 137
Width: 0
GlyphClass: 4
Flags: W
LayerCount: 2
Fore
SplineSet
-124 363 m 1,0,-1
 -164 421 l 1,1,-1
 -164 431 l 1,2,-1
 124 431 l 1,3,-1
 164 373 l 1,4,-1
 164 363 l 1,5,-1
 -124 363 l 1,0,-1
EndSplineSet
MultipleSubs2: "+BBwEPQQ+BDYENQRBBEIEMgQ1BD0EPQQwBE8A +BD8EPgQ0BEEEQgQwBD0EPgQyBDoEMAAA lookup 69 subtable" uni1CD4 uni0903
EndChar

StartChar: uni1CD5
Encoding: 7381 7381 138
Width: 0
GlyphClass: 4
Flags: W
AnchorPoint: "+BBEENQQ3BEsEPARPBD0EPQQ+BDUA--21" -251 0 mark 0
AnchorPoint: "+BBEENQQ3BEsEPARPBD0EPQQ+BDUA--15" -251 0 mark 0
AnchorPoint: "+BBEENQQ3BEsEPARPBD0EPQQ+BDUA--12" -251 0 mark 0
AnchorPoint: "+BBEENQQ3BEsEPARPBD0EPQQ+BDUA--8" -251 0 mark 0
LayerCount: 2
Fore
SplineSet
-143 -262 m 0,0,1
 -195 -262 -195 -262 -232 -224 c 1,2,3
 -265 -261 -265 -261 -319 -261 c 0,4,5
 -357 -261 -357 -261 -390.5 -243.5 c 128,-1,6
 -424 -226 -424 -226 -444.5 -196.5 c 128,-1,7
 -465 -167 -465 -167 -465 -132 c 0,8,9
 -465 -110 -465 -110 -455 -85.5 c 128,-1,10
 -445 -61 -445 -61 -431 -41 c 1,11,-1
 -359 -86 l 1,12,13
 -378 -112 -378 -112 -386 -132.5 c 128,-1,14
 -394 -153 -394 -153 -394 -169 c 0,15,16
 -394 -191 -394 -191 -379 -202.5 c 128,-1,17
 -364 -214 -364 -214 -347 -214 c 0,18,19
 -321 -214 -321 -214 -298.5 -193.5 c 128,-1,20
 -276 -173 -276 -173 -276 -131 c 2,21,-1
 -276 -73 l 1,22,-1
 -207 -103 l 1,23,-1
 -207 -156 l 2,24,25
 -207 -174 -207 -174 -213 -190 c 1,26,27
 -190 -206 -190 -206 -158 -206 c 0,28,29
 -129 -206 -129 -206 -110.5 -187.5 c 128,-1,30
 -92 -169 -92 -169 -92 -141 c 0,31,32
 -92 -123 -92 -123 -99 -105 c 128,-1,33
 -106 -87 -106 -87 -123 -68 c 1,34,-1
 -92 -44 l 1,35,36
 -69 -68 -69 -68 -53.5 -97.5 c 128,-1,37
 -38 -127 -38 -127 -38 -159 c 0,38,39
 -38 -202 -38 -202 -65 -232 c 128,-1,40
 -92 -262 -92 -262 -143 -262 c 0,0,1
EndSplineSet
Substitution2: "+BBUENAQ4BD0EOARHBD0EMARP +BD8EPgQ0BEEEQgQwBD0EPgQyBDoEMAAA lookup 207 subtable" uni1CD5.001.001
Substitution2: "+BBUENAQ4BD0EOARHBD0EMARP +BD8EPgQ0BEEEQgQwBD0EPgQyBDoEMAAA lookup 206 subtable" uni1CD5.001
MultipleSubs2: "+BBwEPQQ+BDYENQRBBEIEMgQ1BD0EPQQwBE8A +BD8EPgQ0BEEEQgQwBD0EPgQyBDoEMAAA lookup 69 subtable" uni1CD5 uni0903
EndChar

StartChar: uni1CD6
Encoding: 7382 7382 139
Width: 0
GlyphClass: 4
Flags: W
AnchorPoint: "+BBEENQQ3BEsEPARPBD0EPQQ+BDUA--21" -249 0 mark 0
AnchorPoint: "+BBEENQQ3BEsEPARPBD0EPQQ+BDUA--15" -249 0 mark 0
AnchorPoint: "+BBEENQQ3BEsEPARPBD0EPQQ+BDUA--12" -249 0 mark 0
AnchorPoint: "+BBEENQQ3BEsEPARPBD0EPQQ+BDUA--8" -249 0 mark 0
LayerCount: 2
Fore
SplineSet
-389 -229 m 1,0,-1
 -432 -161 l 1,1,-1
 -432 -21 l 1,2,-1
 -422 -21 l 1,3,-1
 -364 -62 l 1,4,-1
 -364 -154 l 1,5,-1
 -110 -154 l 1,6,-1
 -67 -219 l 1,7,-1
 -67 -229 l 1,8,-1
 -389 -229 l 1,0,-1
EndSplineSet
Substitution2: "+BBUENAQ4BD0EOARHBD0EMARP +BD8EPgQ0BEEEQgQwBD0EPgQyBDoEMAAA lookup 207 subtable" uni1CD6.001.001
Substitution2: "+BBUENAQ4BD0EOARHBD0EMARP +BD8EPgQ0BEEEQgQwBD0EPgQyBDoEMAAA lookup 206 subtable" uni1CD6.001
MultipleSubs2: "+BBwEPQQ+BDYENQRBBEIEMgQ1BD0EPQQwBE8A +BD8EPgQ0BEEEQgQwBD0EPgQyBDoEMAAA lookup 69 subtable" uni1CD6 uni0903
EndChar

StartChar: uni1CD7
Encoding: 7383 7383 140
Width: 0
GlyphClass: 4
Flags: W
AnchorPoint: "+BBEENQQ3BEsEPARPBD0EPQQ+BDUA--21" -264 0 mark 0
AnchorPoint: "+BBEENQQ3BEsEPARPBD0EPQQ+BDUA--15" -264 0 mark 0
AnchorPoint: "+BBEENQQ3BEsEPARPBD0EPQQ+BDUA--12" -264 0 mark 0
AnchorPoint: "+BBEENQQ3BEsEPARPBD0EPQQ+BDUA--8" -264 0 mark 0
LayerCount: 2
Fore
SplineSet
-118 -193 m 1,0,-1
 -75 -259 l 1,1,-1
 -75 -269 l 1,2,-1
 -324 -269 l 2,3,4
 -356 -269 -356 -269 -386 -249 c 128,-1,5
 -416 -229 -416 -229 -435 -199 c 128,-1,6
 -454 -169 -454 -169 -454 -140 c 0,7,8
 -454 -92 -454 -92 -412 -64.5 c 128,-1,9
 -370 -37 -370 -37 -312 -33 c 1,10,-1
 -287 -107 l 1,11,12
 -333 -110 -333 -110 -363 -128.5 c 128,-1,13
 -393 -147 -393 -147 -393 -171 c 0,14,15
 -393 -193 -393 -193 -366 -193 c 2,16,-1
 -118 -193 l 1,0,-1
EndSplineSet
Substitution2: "+BBUENAQ4BD0EOARHBD0EMARP +BD8EPgQ0BEEEQgQwBD0EPgQyBDoEMAAA lookup 207 subtable" uni1CD7.001.001
Substitution2: "+BBUENAQ4BD0EOARHBD0EMARP +BD8EPgQ0BEEEQgQwBD0EPgQyBDoEMAAA lookup 206 subtable" uni1CD7.001
MultipleSubs2: "+BBwEPQQ+BDYENQRBBEIEMgQ1BD0EPQQwBE8A +BD8EPgQ0BEEEQgQwBD0EPgQyBDoEMAAA lookup 69 subtable" uni1CD7 uni0903
EndChar

StartChar: uni1CD8
Encoding: 7384 7384 141
Width: 0
GlyphClass: 4
Flags: W
AnchorPoint: "+BBEENQQ3BEsEPARPBD0EPQQ+BDUA--21" -126 0 mark 0
AnchorPoint: "+BBEENQQ3BEsEPARPBD0EPQQ+BDUA--15" -126 0 mark 0
AnchorPoint: "+BBEENQQ3BEsEPARPBD0EPQQ+BDUA--12" -126 0 mark 0
AnchorPoint: "+BBEENQQ3BEsEPARPBD0EPQQ+BDUA--8" -126 0 mark 0
LayerCount: 2
Fore
SplineSet
-122 -269 m 0,0,1
 -199 -269 -199 -269 -247 -220.5 c 128,-1,2
 -295 -172 -295 -172 -311 -87 c 1,3,-1
 -271 -76 l 1,4,5
 -260 -135 -260 -135 -225 -169.5 c 128,-1,6
 -190 -204 -190 -204 -135 -204 c 0,7,8
 -85 -204 -85 -204 -52 -174.5 c 128,-1,9
 -19 -145 -19 -145 -12 -76 c 1,10,-1
 58 -95 l 1,11,12
 46 -183 46 -183 -3.5 -226 c 128,-1,13
 -53 -269 -53 -269 -122 -269 c 0,0,1
EndSplineSet
Substitution2: "+BBUENAQ4BD0EOARHBD0EMARP +BD8EPgQ0BEEEQgQwBD0EPgQyBDoEMAAA lookup 207 subtable" uni1CD8.001.001
Substitution2: "+BBUENAQ4BD0EOARHBD0EMARP +BD8EPgQ0BEEEQgQwBD0EPgQyBDoEMAAA lookup 206 subtable" uni1CD8.001
MultipleSubs2: "+BBwEPQQ+BDYENQRBBEIEMgQ1BD0EPQQwBE8A +BD8EPgQ0BEEEQgQwBD0EPgQyBDoEMAAA lookup 69 subtable" uni1CD8 uni0903
EndChar

StartChar: uni1CD9
Encoding: 7385 7385 142
Width: 0
GlyphClass: 4
Flags: W
AnchorPoint: "+BBEENQQ3BEsEPARPBD0EPQQ+BDUA--21" -243 0 mark 0
AnchorPoint: "+BBEENQQ3BEsEPARPBD0EPQQ+BDUA--15" -243 0 mark 0
AnchorPoint: "+BBEENQQ3BEsEPARPBD0EPQQ+BDUA--12" -243 0 mark 0
AnchorPoint: "+BBEENQQ3BEsEPARPBD0EPQQ+BDUA--8" -243 0 mark 0
LayerCount: 2
Fore
SplineSet
-367 -294 m 1,0,-1
 -436 -247 l 1,1,-1
 -250 -38 l 1,2,-1
 -51 -263 l 1,3,-1
 -80 -290 l 1,4,-1
 -222 -133 l 1,5,-1
 -367 -294 l 1,0,-1
EndSplineSet
Substitution2: "+BBUENAQ4BD0EOARHBD0EMARP +BD8EPgQ0BEEEQgQwBD0EPgQyBDoEMAAA lookup 207 subtable" uni1CD9.001.001
Substitution2: "+BBUENAQ4BD0EOARHBD0EMARP +BD8EPgQ0BEEEQgQwBD0EPgQyBDoEMAAA lookup 206 subtable" uni1CD9.001
MultipleSubs2: "+BBwEPQQ+BDYENQRBBEIEMgQ1BD0EPQQwBE8A +BD8EPgQ0BEEEQgQwBD0EPgQyBDoEMAAA lookup 69 subtable" uni1CD9 uni0903
EndChar

StartChar: uni1CDA
Encoding: 7386 7386 143
Width: 0
GlyphClass: 4
Flags: W
AnchorPoint: "+BBEENQQ3BEsEPARPBD0EPQQ+BDUA--19" -200 623 mark 0
AnchorPoint: "+BBEENQQ3BEsEPARPBD0EPQQ+BDUA--18" -82 623 mark 0
AnchorPoint: "+BBEENQQ3BEsEPARPBD0EPQQ+BDUA--6" -200 623 mark 0
AnchorPoint: "+BBEENQQ3BEsEPARPBD0EPQQ+BDUA--5" -82 623 mark 0
AnchorPoint: "+BBEENQQ3BEsEPARPBD0EPQQ+BDUA--3" -200 623 mark 0
AnchorPoint: "+BBEENQQ3BEsEPARPBD0EPQQ+BDUA--2" -82 623 mark 0
LayerCount: 2
Fore
SplineSet
-200 681 m 1,0,-1
 -200 876 l 1,1,-1
 -147 876 l 1,2,-1
 -147 681 l 1,3,-1
 -200 681 l 1,0,-1
-95 681 m 1,4,-1
 -95 876 l 1,5,-1
 -42 876 l 1,6,-1
 -42 681 l 1,7,-1
 -95 681 l 1,4,-1
EndSplineSet
Substitution2: "+BBUENAQ4BD0EOARHBD0EMARP +BD8EPgQ0BEEEQgQwBD0EPgQyBDoEMAAA lookup 213 subtable" doubleSvaritavedic.alt05
Substitution2: "+BBUENAQ4BD0EOARHBD0EMARP +BD8EPgQ0BEEEQgQwBD0EPgQyBDoEMAAA lookup 212 subtable" doubleSvaritavedic.alt04
Substitution2: "+BBUENAQ4BD0EOARHBD0EMARP +BD8EPgQ0BEEEQgQwBD0EPgQyBDoEMAAA lookup 211 subtable" doubleSvaritavedic.alt03
Substitution2: "+BBUENAQ4BD0EOARHBD0EMARP +BD8EPgQ0BEEEQgQwBD0EPgQyBDoEMAAA lookup 210 subtable" doubleSvaritavedic.alt02
Substitution2: "+BBUENAQ4BD0EOARHBD0EMARP +BD8EPgQ0BEEEQgQwBD0EPgQyBDoEMAAA lookup 209 subtable" doubleSvaritavedic.alt01
MultipleSubs2: "+BBwEPQQ+BDYENQRBBEIEMgQ1BD0EPQQwBE8A +BD8EPgQ0BEEEQgQwBD0EPgQyBDoEMAAA lookup 69 subtable" uni1CDA uni0903
EndChar

StartChar: uni1CDB
Encoding: 7387 7387 144
Width: 0
GlyphClass: 4
Flags: W
AnchorPoint: "+BBEENQQ3BEsEPARPBD0EPQQ+BDUA--18" -91 623 mark 0
AnchorPoint: "+BBEENQQ3BEsEPARPBD0EPQQ+BDUA--5" -91 623 mark 0
AnchorPoint: "+BBEENQQ3BEsEPARPBD0EPQQ+BDUA--2" -91 623 mark 0
LayerCount: 2
Fore
SplineSet
-258 681 m 1,0,-1
 -258 876 l 1,1,-1
 -205 876 l 1,2,-1
 -205 681 l 1,3,-1
 -258 681 l 1,0,-1
-156 681 m 1,4,-1
 -156 876 l 1,5,-1
 -103 876 l 1,6,-1
 -103 681 l 1,7,-1
 -156 681 l 1,4,-1
-54 681 m 1,8,-1
 -54 876 l 1,9,-1
 -1 876 l 1,10,-1
 -1 681 l 1,11,-1
 -54 681 l 1,8,-1
EndSplineSet
MultipleSubs2: "+BBwEPQQ+BDYENQRBBEIEMgQ1BD0EPQQwBE8A +BD8EPgQ0BEEEQgQwBD0EPgQyBDoEMAAA lookup 69 subtable" uni1CDB uni0903
EndChar

StartChar: uni1CDC
Encoding: 7388 7388 145
Width: 0
GlyphClass: 4
Flags: W
AnchorPoint: "+BBEENQQ3BEsEPARPBD0EPQQ+BDUA--21" -122 0 mark 0
AnchorPoint: "+BBEENQQ3BEsEPARPBD0EPQQ+BDUA--15" -122 0 mark 0
AnchorPoint: "+BBEENQQ3BEsEPARPBD0EPQQ+BDUA--12" -122 0 mark 0
AnchorPoint: "+BBEENQQ3BEsEPARPBD0EPQQ+BDUA--8" -122 0 mark 0
LayerCount: 2
Fore
SplineSet
-94 -257 m 1,0,-1
 -160 -209 l 1,1,-1
 -160 -26 l 1,2,-1
 -150 -26 l 1,3,-1
 -84 -74 l 1,4,-1
 -84 -257 l 1,5,-1
 -94 -257 l 1,0,-1
EndSplineSet
Substitution2: "+BBUENAQ4BD0EOARHBD0EMARP +BD8EPgQ0BEEEQgQwBD0EPgQyBDoEMAAA lookup 207 subtable" uni1CDC.001.001
Substitution2: "+BBUENAQ4BD0EOARHBD0EMARP +BD8EPgQ0BEEEQgQwBD0EPgQyBDoEMAAA lookup 206 subtable" uni1CDC.001
MultipleSubs2: "+BBwEPQQ+BDYENQRBBEIEMgQ1BD0EPQQwBE8A +BD8EPgQ0BEEEQgQwBD0EPgQyBDoEMAAA lookup 69 subtable" uni1CDC uni0903
EndChar

StartChar: uni1CDD
Encoding: 7389 7389 146
Width: 0
GlyphClass: 4
Flags: W
AnchorPoint: "+BBEENQQ3BEsEPARPBD0EPQQ+BDUA--21" -122 0 mark 0
AnchorPoint: "+BBEENQQ3BEsEPARPBD0EPQQ+BDUA--15" -122 0 mark 0
AnchorPoint: "+BBEENQQ3BEsEPARPBD0EPQQ+BDUA--12" -122 0 mark 0
AnchorPoint: "+BBEENQQ3BEsEPARPBD0EPQQ+BDUA--8" -122 0 mark 0
LayerCount: 2
Fore
SplineSet
-123 -242 m 1,0,-1
 -194 -170 l 1,1,-1
 -123 -98 l 1,2,-1
 -51 -170 l 1,3,-1
 -123 -242 l 1,0,-1
EndSplineSet
Substitution2: "+BBUENAQ4BD0EOARHBD0EMARP +BD8EPgQ0BEEEQgQwBD0EPgQyBDoEMAAA lookup 207 subtable" uni1CDD.001.001
Substitution2: "+BBUENAQ4BD0EOARHBD0EMARP +BD8EPgQ0BEEEQgQwBD0EPgQyBDoEMAAA lookup 206 subtable" uni1CDD.001
MultipleSubs2: "+BBwEPQQ+BDYENQRBBEIEMgQ1BD0EPQQwBE8A +BD8EPgQ0BEEEQgQwBD0EPgQyBDoEMAAA lookup 69 subtable" uni1CDD uni0903
EndChar

StartChar: uni1CE0
Encoding: 7392 7392 149
Width: 430
GlyphClass: 1
Flags: W
LayerCount: 2
Fore
SplineSet
183 671 m 1,0,1
 125 676 125 676 83 703 c 128,-1,2
 41 730 41 730 41 778 c 0,3,4
 41 807 41 807 60 837 c 128,-1,5
 79 867 79 867 109 887 c 128,-1,6
 139 907 139 907 171 907 c 2,7,-1
 420 907 l 1,8,-1
 420 897 l 1,9,-1
 377 832 l 1,10,-1
 129 832 l 2,11,12
 102 832 102 832 102 810 c 0,13,14
 102 785 102 785 132 766.5 c 128,-1,15
 162 748 162 748 208 745 c 1,16,-1
 183 671 l 1,0,1
EndSplineSet
MultipleSubs2: "+BBwEPQQ+BDYENQRBBEIEMgQ1BD0EPQQwBE8A +BD8EPgQ0BEEEQgQwBD0EPgQyBDoEMAAA lookup 69 subtable" uni1CE0 uni0903
EndChar

StartChar: uni1CE1
Encoding: 7393 7393 150
Width: 396
GlyphClass: 1
Flags: W
LayerCount: 2
Fore
SplineSet
110 -159 m 0,0,1
 76 -159 76 -159 38.5 -148 c 128,-1,2
 1 -137 1 -137 -40 -101 c 1,3,-1
 -17 -62 l 1,4,5
 36 -85 36 -85 78 -85 c 0,6,7
 112 -85 112 -85 135 -73 c 128,-1,8
 158 -61 158 -61 170 -30 c 128,-1,9
 182 1 182 1 182 58 c 0,10,11
 182 122 182 122 175.5 196.5 c 128,-1,12
 169 271 169 271 160 349 c 128,-1,13
 151 427 151 427 144.5 502 c 128,-1,14
 138 577 138 577 138 642 c 0,15,16
 138 740 138 740 175 789.5 c 128,-1,17
 212 839 212 839 280 839 c 0,18,19
 327 839 327 839 365.5 810 c 128,-1,20
 404 781 404 781 428 709 c 1,21,-1
 392 694 l 1,22,23
 374 730 374 730 350 746 c 128,-1,24
 326 762 326 762 298 762 c 0,25,26
 259 762 259 762 236.5 734 c 128,-1,27
 214 706 214 706 214 629 c 0,28,29
 214 567 214 567 221 492.5 c 128,-1,30
 228 418 228 418 236.5 338.5 c 128,-1,31
 245 259 245 259 252 182 c 128,-1,32
 259 105 259 105 259 38 c 0,33,34
 259 -33 259 -33 239 -76.5 c 128,-1,35
 219 -120 219 -120 185.5 -139.5 c 128,-1,36
 152 -159 152 -159 110 -159 c 0,0,1
EndSplineSet
EndChar

StartChar: uni1CE3
Encoding: 7395 7395 152
Width: 179
GlyphClass: 1
Flags: W
LayerCount: 2
Fore
SplineSet
-22 617 m 1,0,1
 12 592 12 592 49.5 554.5 c 128,-1,2
 87 517 87 517 113.5 471 c 128,-1,3
 140 425 140 425 140 373 c 0,4,5
 140 314 140 314 97 277.5 c 128,-1,6
 54 241 54 241 -16 241 c 2,7,-1
 -144 241 l 1,8,-1
 -186 303 l 1,9,-1
 -186 313 l 1,10,-1
 -36 313 l 2,11,12
 10 313 10 313 36 337 c 128,-1,13
 62 361 62 361 62 403 c 0,14,15
 62 454 62 454 27 501 c 128,-1,16
 -8 548 -8 548 -52 583 c 1,17,-1
 -22 617 l 1,0,1
EndSplineSet
EndChar

StartChar: uni1CE4
Encoding: 7396 7396 153
Width: 191
GlyphClass: 1
Flags: W
LayerCount: 2
Fore
SplineSet
191 241 m 2,0,1
 167 241 167 241 140.5 253 c 128,-1,2
 114 265 114 265 91 286 c 128,-1,3
 68 307 68 307 53.5 332.5 c 128,-1,4
 39 358 39 358 39 385 c 0,5,6
 39 439 39 439 81.5 500 c 128,-1,7
 124 561 124 561 201 617 c 1,8,-1
 258 553 l 1,9,10
 190 504 190 504 153.5 453 c 128,-1,11
 117 402 117 402 117 355 c 0,12,13
 117 336 117 336 129.5 324.5 c 128,-1,14
 142 313 142 313 171 313 c 2,15,-1
 326 313 l 1,16,-1
 365 252 l 1,17,-1
 365 241 l 1,18,-1
 191 241 l 2,0,1
EndSplineSet
MultipleSubs2: "+BBwEPQQ+BDYENQRBBEIEMgQ1BD0EPQQwBE8A +BD8EPgQ0BEEEQgQwBD0EPgQyBDoEMAAA lookup 69 subtable" uni1CE4 uni0903.001
EndChar

StartChar: uni1CE5
Encoding: 7397 7397 154
Width: 179
GlyphClass: 1
Flags: W
LayerCount: 2
Fore
SplineSet
201 -63 m 1,0,1
 168 -37 168 -37 130 0 c 128,-1,2
 92 37 92 37 65.5 83.5 c 128,-1,3
 39 130 39 130 39 181 c 0,4,5
 39 240 39 240 82 276.5 c 128,-1,6
 125 313 125 313 195 313 c 2,7,-1
 323 313 l 1,8,-1
 365 251 l 1,9,-1
 365 241 l 1,10,-1
 215 241 l 2,11,12
 169 241 169 241 143 217 c 128,-1,13
 117 193 117 193 117 151 c 0,14,15
 117 100 117 100 152 53 c 128,-1,16
 187 6 187 6 231 -29 c 1,17,-1
 201 -63 l 1,0,1
EndSplineSet
MultipleSubs2: "+BBwEPQQ+BDYENQRBBEIEMgQ1BD0EPQQwBE8A +BD8EPgQ0BEEEQgQwBD0EPgQyBDoEMAAA lookup 69 subtable" uni1CE5 uni0903.001
EndChar

StartChar: uni1CE6
Encoding: 7398 7398 155
Width: 179
GlyphClass: 1
Flags: W
LayerCount: 2
Fore
SplineSet
-12 313 m 2,0,1
 12 313 12 313 38.5 301 c 128,-1,2
 65 289 65 289 88 268 c 128,-1,3
 111 247 111 247 125.5 221.5 c 128,-1,4
 140 196 140 196 140 169 c 0,5,6
 140 115 140 115 97.5 54 c 128,-1,7
 55 -7 55 -7 -22 -63 c 1,8,-1
 -79 1 l 1,9,10
 -11 50 -11 50 25.5 101.5 c 128,-1,11
 62 153 62 153 62 199 c 0,12,13
 62 219 62 219 49.5 230 c 128,-1,14
 37 241 37 241 8 241 c 2,15,-1
 -147 241 l 1,16,-1
 -186 302 l 1,17,-1
 -186 313 l 1,18,-1
 -12 313 l 2,0,1
EndSplineSet
EndChar

StartChar: uni1CE7
Encoding: 7399 7399 156
Width: 287
GlyphClass: 1
Flags: W
LayerCount: 2
Fore
SplineSet
6 764 m 0,0,1
 56 764 56 764 99 739 c 128,-1,2
 142 714 142 714 176 676 c 128,-1,3
 210 638 210 638 232 598 c 1,4,-1
 197 577 l 1,5,6
 160 633 160 633 117 663.5 c 128,-1,7
 74 694 74 694 25 694 c 0,8,9
 -13 694 -13 694 -34.5 674 c 128,-1,10
 -56 654 -56 654 -56 621 c 0,11,12
 -56 590 -56 590 -35 563 c 128,-1,13
 -14 536 -14 536 17.5 509.5 c 128,-1,14
 49 483 49 483 80.5 455.5 c 128,-1,15
 112 428 112 428 133 396.5 c 128,-1,16
 154 365 154 365 154 328 c 0,17,18
 154 295 154 295 129.5 269.5 c 128,-1,19
 105 244 105 244 53 244 c 2,20,-1
 -137 244 l 1,21,-1
 -176 301 l 1,22,-1
 -176 311 l 1,23,-1
 19 311 l 2,24,25
 76 311 76 311 76 353 c 0,26,27
 76 379 76 379 54.5 403.5 c 128,-1,28
 33 428 33 428 1.5 454 c 128,-1,29
 -30 480 -30 480 -62 508.5 c 128,-1,30
 -94 537 -94 537 -115.5 571 c 128,-1,31
 -137 605 -137 605 -137 645 c 0,32,33
 -137 699 -137 699 -97.5 731.5 c 128,-1,34
 -58 764 -58 764 6 764 c 0,0,1
EndSplineSet
EndChar

StartChar: uni1CE8
Encoding: 7400 7400 157
Width: 212
GlyphClass: 1
Flags: W
LayerCount: 2
Fore
SplineSet
196 -209 m 0,0,1
 146 -209 146 -209 103 -184 c 128,-1,2
 60 -159 60 -159 26.5 -121 c 128,-1,3
 -7 -83 -7 -83 -30 -43 c 1,4,-1
 5 -22 l 1,5,6
 42 -78 42 -78 85 -108.5 c 128,-1,7
 128 -139 128 -139 177 -139 c 0,8,9
 215 -139 215 -139 236.5 -119 c 128,-1,10
 258 -99 258 -99 258 -66 c 0,11,12
 258 -35 258 -35 237 -8 c 128,-1,13
 216 19 216 19 184.5 45.5 c 128,-1,14
 153 72 153 72 121.5 99.5 c 128,-1,15
 90 127 90 127 69 158.5 c 128,-1,16
 48 190 48 190 48 227 c 0,17,18
 48 260 48 260 72.5 285.5 c 128,-1,19
 97 311 97 311 149 311 c 2,20,-1
 339 311 l 1,21,-1
 378 254 l 1,22,-1
 378 244 l 1,23,-1
 183 244 l 2,24,25
 126 244 126 244 126 202 c 0,26,27
 126 177 126 177 147.5 152 c 128,-1,28
 169 127 169 127 200.5 101.5 c 128,-1,29
 232 76 232 76 264 47 c 128,-1,30
 296 18 296 18 317.5 -15.5 c 128,-1,31
 339 -49 339 -49 339 -90 c 0,32,33
 339 -144 339 -144 299.5 -176.5 c 128,-1,34
 260 -209 260 -209 196 -209 c 0,0,1
EndSplineSet
MultipleSubs2: "+BBwEPQQ+BDYENQRBBEIEMgQ1BD0EPQQwBE8A +BD8EPgQ0BEEEQgQwBD0EPgQyBDoEMAAA lookup 69 subtable" uni1CE8 uni0903.001
EndChar

StartChar: uni1CE9
Encoding: 7401 7401 158
Width: 809
GlyphClass: 2
Flags: W
AnchorPoint: "+BBEENQQ3BEsEPARPBD0EPQQ+BDUA--8" 404 -6 basechar 0
AnchorPoint: "+BBEENQQ3BEsEPARPBD0EPQQ+BDUA--2" 441 623 basechar 0
AnchorPoint: "+BBEENQQ3BEsEPARPBD0EPQQ+BDUA--0" 421 623 basechar 0
LayerCount: 2
Fore
SplineSet
415 -5 m 0,0,1
 337 -5 337 -5 270.5 23 c 128,-1,2
 204 51 204 51 154.5 101.5 c 128,-1,3
 105 152 105 152 77 219.5 c 128,-1,4
 49 287 49 287 49 365 c 0,5,6
 49 435 49 435 73 494.5 c 128,-1,7
 97 554 97 554 143.5 590.5 c 128,-1,8
 190 627 190 627 255 627 c 0,9,10
 317 627 317 627 354.5 585 c 128,-1,11
 392 543 392 543 392 481 c 0,12,13
 392 428 392 428 342.5 393 c 128,-1,14
 293 358 293 358 213 346 c 1,15,-1
 187 428 l 1,16,17
 247 433 247 433 289 460.5 c 128,-1,18
 331 488 331 488 331 528 c 0,19,20
 331 573 331 573 280 573 c 0,21,22
 234 573 234 573 199.5 536.5 c 128,-1,23
 165 500 165 500 146.5 442 c 128,-1,24
 128 384 128 384 128 319 c 0,25,26
 128 192 128 192 192.5 126 c 128,-1,27
 257 60 257 60 381 60 c 0,28,29
 452 60 452 60 510.5 86.5 c 128,-1,30
 569 113 569 113 611 158.5 c 128,-1,31
 653 204 653 204 676 260.5 c 128,-1,32
 699 317 699 317 699 376 c 0,33,34
 699 480 699 480 671 520.5 c 128,-1,35
 643 561 643 561 597 561 c 0,36,37
 567 561 567 561 544.5 541.5 c 128,-1,38
 522 522 522 522 522 490 c 0,39,40
 522 449 522 449 561.5 424.5 c 128,-1,41
 601 400 601 400 659 396 c 1,42,-1
 656 356 l 1,43,44
 603 357 603 357 555 378 c 128,-1,45
 507 399 507 399 477 435.5 c 128,-1,46
 447 472 447 472 447 517 c 0,47,48
 447 564 447 564 480 595.5 c 128,-1,49
 513 627 513 627 566 627 c 0,50,51
 628 627 628 627 671 589.5 c 128,-1,52
 714 552 714 552 737 485.5 c 128,-1,53
 760 419 760 419 760 332 c 0,54,55
 760 230 760 230 717.5 154.5 c 128,-1,56
 675 79 675 79 597.5 37 c 128,-1,57
 520 -5 520 -5 415 -5 c 0,0,1
EndSplineSet
EndChar

StartChar: uni1CEA
Encoding: 7402 7402 159
Width: 756
GlyphClass: 2
Flags: W
AnchorPoint: "+BBEENQQ3BEsEPARPBD0EPQQ+BDUA--8" 397 -6 basechar 0
AnchorPoint: "+BBEENQQ3BEsEPARPBD0EPQQ+BDUA--2" 434 623 basechar 0
AnchorPoint: "+BBEENQQ3BEsEPARPBD0EPQQ+BDUA--0" 414 623 basechar 0
LayerCount: 2
Fore
SplineSet
408 -5 m 0,0,1
 351 -5 351 -5 297.5 11 c 128,-1,2
 244 27 244 27 201 56 c 128,-1,3
 158 85 158 85 132.5 126 c 128,-1,4
 107 167 107 167 107 216 c 0,5,6
 107 257 107 257 125 285 c 128,-1,7
 143 313 143 313 170 335 c 128,-1,8
 197 357 197 357 224 379.5 c 128,-1,9
 251 402 251 402 269 431.5 c 128,-1,10
 287 461 287 461 287 504 c 0,11,12
 287 561 287 561 230 561 c 0,13,14
 190 561 190 561 164 537.5 c 128,-1,15
 138 514 138 514 138 483 c 0,16,17
 138 464 138 464 150 445.5 c 128,-1,18
 162 427 162 427 189 412 c 1,19,-1
 172 388 l 1,20,21
 117 411 117 411 90 450 c 128,-1,22
 63 489 63 489 63 526 c 0,23,24
 63 567 63 567 95 598 c 128,-1,25
 127 629 127 629 188 629 c 0,26,27
 217 629 217 629 247 614 c 128,-1,28
 277 599 277 599 302 574 c 128,-1,29
 327 549 327 549 342.5 518.5 c 128,-1,30
 358 488 358 488 358 458 c 0,31,32
 358 418 358 418 339.5 387 c 128,-1,33
 321 356 321 356 294 329 c 128,-1,34
 267 302 267 302 240 277.5 c 128,-1,35
 213 253 213 253 194.5 226.5 c 128,-1,36
 176 200 176 200 176 168 c 0,37,38
 176 111 176 111 231 86.5 c 128,-1,39
 286 62 286 62 382 62 c 0,40,41
 482 62 482 62 533.5 99 c 128,-1,42
 585 136 585 136 585 200 c 0,43,44
 585 237 585 237 570 267 c 128,-1,45
 555 297 555 297 533.5 323 c 128,-1,46
 512 349 512 349 490 375 c 128,-1,47
 468 401 468 401 453 430 c 128,-1,48
 438 459 438 459 438 495 c 0,49,50
 438 561 438 561 482.5 597 c 128,-1,51
 527 633 527 633 591 633 c 0,52,53
 628 633 628 633 660 614 c 128,-1,54
 692 595 692 595 712 564.5 c 128,-1,55
 732 534 732 534 732 497 c 0,56,57
 732 456 732 456 699 430 c 128,-1,58
 666 404 666 404 608 393 c 1,59,-1
 574 467 l 1,60,61
 596 470 596 470 619 479 c 128,-1,62
 642 488 642 488 657.5 503 c 128,-1,63
 673 518 673 518 673 537 c 0,64,65
 673 551 673 551 663 561.5 c 128,-1,66
 653 572 653 572 630 572 c 0,67,68
 587 572 587 572 553.5 545.5 c 128,-1,69
 520 519 520 519 520 472 c 0,70,71
 520 438 520 438 534.5 409.5 c 128,-1,72
 549 381 549 381 571 355 c 128,-1,73
 593 329 593 329 614.5 300.5 c 128,-1,74
 636 272 636 272 650.5 238.5 c 128,-1,75
 665 205 665 205 665 161 c 0,76,77
 665 116 665 116 635 78.5 c 128,-1,78
 605 41 605 41 548 18 c 128,-1,79
 491 -5 491 -5 408 -5 c 0,0,1
EndSplineSet
EndChar

StartChar: uni1CEB
Encoding: 7403 7403 160
Width: 779
GlyphClass: 2
Flags: W
AnchorPoint: "+BBEENQQ3BEsEPARPBD0EPQQ+BDUA--8" 414 -6 basechar 0
AnchorPoint: "+BBEENQQ3BEsEPARPBD0EPQQ+BDUA--2" 451 623 basechar 0
AnchorPoint: "+BBEENQQ3BEsEPARPBD0EPQQ+BDUA--0" 431 623 basechar 0
LayerCount: 2
Fore
SplineSet
432 -5 m 0,0,1
 349 -5 349 -5 282 25.5 c 128,-1,2
 215 56 215 56 176 106.5 c 128,-1,3
 137 157 137 157 137 216 c 0,4,5
 137 257 137 257 153.5 285 c 128,-1,6
 170 313 170 313 194.5 335 c 128,-1,7
 219 357 219 357 244 379.5 c 128,-1,8
 269 402 269 402 285.5 431.5 c 128,-1,9
 302 461 302 461 302 504 c 0,10,11
 302 561 302 561 246 561 c 0,12,13
 206 561 206 561 180 537.5 c 128,-1,14
 154 514 154 514 154 484 c 0,15,16
 154 465 154 465 166 446 c 128,-1,17
 178 427 178 427 206 412 c 1,18,-1
 187 381 l 1,19,20
 132 407 132 407 105 446.5 c 128,-1,21
 78 486 78 486 78 523 c 0,22,23
 78 566 78 566 110.5 597.5 c 128,-1,24
 143 629 143 629 204 629 c 0,25,26
 233 629 233 629 262.5 614 c 128,-1,27
 292 599 292 599 317 574 c 128,-1,28
 342 549 342 549 357.5 518.5 c 128,-1,29
 373 488 373 488 373 458 c 0,30,31
 373 417 373 417 356 385 c 128,-1,32
 339 353 339 353 314.5 327 c 128,-1,33
 290 301 290 301 265 276.5 c 128,-1,34
 240 252 240 252 223 226 c 128,-1,35
 206 200 206 200 206 168 c 0,36,37
 206 120 206 120 255 91.5 c 128,-1,38
 304 63 304 63 389 63 c 0,39,40
 452 63 452 63 506 86.5 c 128,-1,41
 560 110 560 110 600.5 151.5 c 128,-1,42
 641 193 641 193 664 249 c 128,-1,43
 687 305 687 305 687 371 c 0,44,45
 687 448 687 448 661.5 477.5 c 128,-1,46
 636 507 636 507 597 507 c 0,47,48
 565 507 565 507 537.5 486 c 128,-1,49
 510 465 510 465 510 428 c 0,50,51
 510 397 510 397 529.5 379 c 128,-1,52
 549 361 549 361 579.5 352 c 128,-1,53
 610 343 610 343 643 337 c 1,54,-1
 637 301 l 1,55,56
 588 306 588 306 541.5 324 c 128,-1,57
 495 342 495 342 465 375.5 c 128,-1,58
 435 409 435 409 435 460 c 256,59,60
 435 511 435 511 471 542 c 128,-1,61
 507 573 507 573 560 573 c 0,62,63
 617 573 617 573 659.5 541.5 c 128,-1,64
 702 510 702 510 726 453.5 c 128,-1,65
 750 397 750 397 750 321 c 0,66,67
 750 226 750 226 709.5 152.5 c 128,-1,68
 669 79 669 79 597.5 37 c 128,-1,69
 526 -5 526 -5 432 -5 c 0,0,1
EndSplineSet
EndChar

StartChar: uni1CEC
Encoding: 7404 7404 161
Width: 801
GlyphClass: 2
Flags: W
AnchorPoint: "+BBEENQQ3BEsEPARPBD0EPQQ+BDUA--8" 451 -6 basechar 0
AnchorPoint: "+BBEENQQ3BEsEPARPBD0EPQQ+BDUA--2" 451 623 basechar 0
AnchorPoint: "+BBEENQQ3BEsEPARPBD0EPQQ+BDUA--0" 431 623 basechar 0
LayerCount: 2
Fore
SplineSet
410 -5 m 0,0,1
 333 -5 333 -5 271 25.5 c 128,-1,2
 209 56 209 56 173 106.5 c 128,-1,3
 137 157 137 157 137 216 c 0,4,5
 137 257 137 257 153.5 285 c 128,-1,6
 170 313 170 313 194.5 335 c 128,-1,7
 219 357 219 357 244 379.5 c 128,-1,8
 269 402 269 402 285.5 431.5 c 128,-1,9
 302 461 302 461 302 504 c 0,10,11
 302 561 302 561 246 561 c 0,12,13
 206 561 206 561 180 537.5 c 128,-1,14
 154 514 154 514 154 484 c 0,15,16
 154 465 154 465 166 446 c 128,-1,17
 178 427 178 427 206 412 c 1,18,-1
 187 381 l 1,19,20
 132 407 132 407 105 446.5 c 128,-1,21
 78 486 78 486 78 523 c 0,22,23
 78 566 78 566 110.5 597.5 c 128,-1,24
 143 629 143 629 204 629 c 0,25,26
 233 629 233 629 262.5 614 c 128,-1,27
 292 599 292 599 317 574 c 128,-1,28
 342 549 342 549 357.5 518.5 c 128,-1,29
 373 488 373 488 373 458 c 0,30,31
 373 417 373 417 356 385 c 128,-1,32
 339 353 339 353 314.5 327 c 128,-1,33
 290 301 290 301 265 276.5 c 128,-1,34
 240 252 240 252 223 226 c 128,-1,35
 206 200 206 200 206 168 c 0,36,37
 206 120 206 120 249 91.5 c 128,-1,38
 292 63 292 63 367 63 c 0,39,40
 429 63 429 63 482 89 c 128,-1,41
 535 115 535 115 575 162 c 128,-1,42
 615 209 615 209 636 271 c 1,43,44
 579 291 579 291 532 317.5 c 128,-1,45
 485 344 485 344 457.5 378.5 c 128,-1,46
 430 413 430 413 430 460 c 0,47,48
 430 511 430 511 463 542 c 128,-1,49
 496 573 496 573 545 573 c 0,50,51
 598 573 598 573 637.5 545 c 128,-1,52
 677 517 677 517 699 467 c 128,-1,53
 721 417 721 417 721 350 c 0,54,55
 721 317 721 317 717 285 c 1,56,57
 783 255 783 255 816.5 217.5 c 128,-1,58
 850 180 850 180 850 125 c 0,59,60
 850 84 850 84 831 49.5 c 128,-1,61
 812 15 812 15 783 -5 c 1,62,-1
 709 54 l 1,63,64
 740 71 740 71 757.5 97.5 c 128,-1,65
 775 124 775 124 775 150 c 0,66,67
 775 186 775 186 758 207.5 c 128,-1,68
 741 229 741 229 709 244 c 1,69,70
 690 169 690 169 648 113 c 128,-1,71
 606 57 606 57 545 26 c 128,-1,72
 484 -5 484 -5 410 -5 c 0,0,1
510 426 m 0,73,74
 510 397 510 397 529 376.5 c 128,-1,75
 548 356 548 356 579 340.5 c 128,-1,76
 610 325 610 325 648 312 c 1,77,78
 657 355 657 355 657 400 c 0,79,80
 657 461 657 461 639 484 c 128,-1,81
 621 507 621 507 592 507 c 0,82,83
 562 507 562 507 536 485.5 c 128,-1,84
 510 464 510 464 510 426 c 0,73,74
EndSplineSet
EndChar

StartChar: uni1CED
Encoding: 7405 7405 162
Width: 0
GlyphClass: 4
Flags: W
AnchorPoint: "+BBEENQQ3BEsEPARPBD0EPQQ+BDUA--21" -25 0 mark 0
AnchorPoint: "+BBEENQQ3BEsEPARPBD0EPQQ+BDUA--15" -25 0 mark 0
AnchorPoint: "+BBEENQQ3BEsEPARPBD0EPQQ+BDUA--12" -25 0 mark 0
AnchorPoint: "+BBEENQQ3BEsEPARPBD0EPQQ+BDUA--8" -25 0 mark 0
LayerCount: 2
Fore
SplineSet
-168 -70 m 1,0,-1
 -138 -34 l 1,1,-1
 118 -224 l 1,2,-1
 89 -255 l 1,3,-1
 -168 -70 l 1,0,-1
EndSplineSet
Substitution2: "+BBUENAQ4BD0EOARHBD0EMARP +BD8EPgQ0BEEEQgQwBD0EPgQyBDoEMAAA lookup 207 subtable" uni1CED.001.001
Substitution2: "+BBUENAQ4BD0EOARHBD0EMARP +BD8EPgQ0BEEEQgQwBD0EPgQyBDoEMAAA lookup 206 subtable" uni1CED.001
MultipleSubs2: "+BBwEPQQ+BDYENQRBBEIEMgQ1BD0EPQQwBE8A +BD8EPgQ0BEEEQgQwBD0EPgQyBDoEMAAA lookup 69 subtable" uni1CED uni0903
EndChar

StartChar: uni1CEE
Encoding: 7406 7406 163
Width: 538
GlyphClass: 2
Flags: W
AnchorPoint: "+BBEENQQ3BEsEPARPBD0EPQQ+BDUA--2" 314 625 basechar 0
LayerCount: 2
Fore
SplineSet
298 -5 m 0,0,1
 233 -5 233 -5 181.5 23.5 c 128,-1,2
 130 52 130 52 100 98 c 128,-1,3
 70 144 70 144 70 196 c 0,4,5
 70 235 70 235 88.5 268.5 c 128,-1,6
 107 302 107 302 141 326 c 1,7,8
 105 360 105 360 84 399 c 128,-1,9
 63 438 63 438 63 479 c 0,10,11
 63 548 63 548 109.5 587.5 c 128,-1,12
 156 627 156 627 236 627 c 0,13,14
 260 627 260 627 284 624.5 c 128,-1,15
 308 622 308 622 331 616 c 1,16,-1
 362 534 l 1,17,18
 313 547 313 547 258 547 c 0,19,20
 208 547 208 547 175 520.5 c 128,-1,21
 142 494 142 494 142 449 c 0,22,23
 142 422 142 422 153 398 c 128,-1,24
 164 374 164 374 184 351 c 1,25,26
 236 375 236 375 305 383 c 1,27,-1
 335 300 l 1,28,29
 238 289 238 289 193.5 252 c 128,-1,30
 149 215 149 215 149 160 c 0,31,32
 149 117 149 117 180 90 c 128,-1,33
 211 63 211 63 254 63 c 0,34,35
 301 63 301 63 333 88 c 1,36,37
 328 107 328 107 328 122 c 0,38,39
 328 152 328 152 346.5 172 c 128,-1,40
 365 192 365 192 399 192 c 0,41,42
 432 192 432 192 450.5 170.5 c 128,-1,43
 469 149 469 149 469 117 c 0,44,45
 469 81 469 81 445 53.5 c 128,-1,46
 421 26 421 26 382 10.5 c 128,-1,47
 343 -5 343 -5 298 -5 c 0,0,1
452 281 m 1,48,-1
 380 353 l 1,49,-1
 452 424 l 1,50,-1
 523 353 l 1,51,-1
 452 281 l 1,48,-1
EndSplineSet
EndChar

StartChar: uni1CEF
Encoding: 7407 7407 164
Width: 460
GlyphClass: 2
Flags: W
AnchorPoint: "+BBEENQQ3BEsEPARPBD0EPQQ+BDUA--2" 278 625 basechar 0
LayerCount: 2
Fore
SplineSet
277 -5 m 0,0,1
 229 -5 229 -5 185.5 17.5 c 128,-1,2
 142 40 142 40 114 80.5 c 128,-1,3
 86 121 86 121 86 174 c 0,4,5
 86 210 86 210 106.5 247.5 c 128,-1,6
 127 285 127 285 169 312 c 1,7,8
 122 338 122 338 92 378.5 c 128,-1,9
 62 419 62 419 62 466 c 0,10,11
 62 530 62 530 101 566.5 c 128,-1,12
 140 603 140 603 203 618.5 c 128,-1,13
 266 634 266 634 339 634 c 1,14,-1
 375 555 l 1,15,16
 309 555 309 555 251 542.5 c 128,-1,17
 193 530 193 530 156.5 504 c 128,-1,18
 120 478 120 478 120 435 c 0,19,20
 120 405 120 405 141 387.5 c 128,-1,21
 162 370 162 370 195 362.5 c 128,-1,22
 228 355 228 355 264 355 c 0,23,24
 295 355 295 355 332.5 361.5 c 128,-1,25
 370 368 370 368 400 380 c 1,26,-1
 422 299 l 1,27,28
 402 292 402 292 375 286 c 128,-1,29
 348 280 348 280 321 279 c 0,30,31
 290 274 290 274 257.5 262.5 c 128,-1,32
 225 251 225 251 197 233.5 c 128,-1,33
 169 216 169 216 152 193.5 c 128,-1,34
 135 171 135 171 135 145 c 0,35,36
 135 106 135 106 168.5 90 c 128,-1,37
 202 74 202 74 248 74 c 0,38,39
 275 74 275 74 300 81 c 128,-1,40
 325 88 325 88 340.5 100 c 128,-1,41
 356 112 356 112 356 125 c 0,42,43
 356 139 356 139 344.5 143.5 c 128,-1,44
 333 148 333 148 314 148 c 0,45,46
 290 148 290 148 260 140 c 1,47,-1
 238 215 l 1,48,49
 264 221 264 221 284 221 c 0,50,51
 319 221 319 221 346 203.5 c 128,-1,52
 373 186 373 186 388.5 156.5 c 128,-1,53
 404 127 404 127 404 92 c 0,54,55
 404 49 404 49 366 22 c 128,-1,56
 328 -5 328 -5 277 -5 c 0,0,1
292 385 m 1,57,-1
 226 451 l 1,58,-1
 292 517 l 1,59,-1
 357 451 l 1,60,-1
 292 385 l 1,57,-1
EndSplineSet
EndChar

StartChar: uni1CF0
Encoding: 7408 7408 165
Width: 536
GlyphClass: 2
Flags: W
AnchorPoint: "+BBEENQQ3BEsEPARPBD0EPQQ+BDUA--2" 311 625 basechar 0
LayerCount: 2
Fore
SplineSet
282 -5 m 0,0,1
 219 -5 219 -5 163.5 22.5 c 128,-1,2
 108 50 108 50 73.5 96.5 c 128,-1,3
 39 143 39 143 39 201 c 0,4,5
 39 248 39 248 68.5 280.5 c 128,-1,6
 98 313 98 313 145 330.5 c 128,-1,7
 192 348 192 348 247 348 c 0,8,9
 251 348 251 348 254 348 c 1,10,11
 247 375 247 375 227.5 396 c 128,-1,12
 208 417 208 417 186 437 c 128,-1,13
 164 457 164 457 148 480.5 c 128,-1,14
 132 504 132 504 132 536 c 0,15,16
 132 581 132 581 160.5 606.5 c 128,-1,17
 189 632 189 632 239 632 c 0,18,19
 296 632 296 632 332 597 c 128,-1,20
 368 562 368 562 394 505 c 1,21,-1
 359 490 l 1,22,23
 335 531 335 531 312.5 547 c 128,-1,24
 290 563 290 563 262 563 c 0,25,26
 237 563 237 563 222.5 550 c 128,-1,27
 208 537 208 537 208 512 c 0,28,29
 208 488 208 488 219.5 472.5 c 128,-1,30
 231 457 231 457 247 442 c 128,-1,31
 263 427 263 427 277.5 404.5 c 128,-1,32
 292 382 292 382 296 344 c 1,33,34
 351 335 351 335 394 307.5 c 128,-1,35
 437 280 437 280 462 239.5 c 128,-1,36
 487 199 487 199 487 150 c 0,37,38
 487 79 487 79 431 37 c 128,-1,39
 375 -5 375 -5 282 -5 c 0,0,1
452 330 m 1,40,-1
 380 401 l 1,41,-1
 452 473 l 1,42,-1
 523 401 l 1,43,-1
 452 330 l 1,40,-1
251 46 m 0,44,45
 295 46 295 46 331.5 65.5 c 128,-1,46
 368 85 368 85 390 118 c 128,-1,47
 412 151 412 151 412 192 c 0,48,49
 412 240 412 240 375 267.5 c 128,-1,50
 338 295 338 295 281 295 c 0,51,52
 235 295 235 295 196 277.5 c 128,-1,53
 157 260 157 260 134 228.5 c 128,-1,54
 111 197 111 197 111 156 c 0,55,56
 111 121 111 121 131 96.5 c 128,-1,57
 151 72 151 72 183.5 59 c 128,-1,58
 216 46 216 46 251 46 c 0,44,45
EndSplineSet
EndChar

StartChar: uni1CF1
Encoding: 7409 7409 166
Width: 500
GlyphClass: 1
Flags: W
LayerCount: 2
Fore
SplineSet
300 -63 m 1,0,-1
 242 0 l 1,1,2
 310 49 310 49 347 100.5 c 128,-1,3
 384 152 384 152 384 199 c 0,4,5
 384 219 384 219 371.5 230 c 128,-1,6
 359 241 359 241 330 241 c 2,7,-1
 191 241 l 2,8,9
 167 241 167 241 140.5 253 c 128,-1,10
 114 265 114 265 91 285.5 c 128,-1,11
 68 306 68 306 53.5 331.5 c 128,-1,12
 39 357 39 357 39 384 c 0,13,14
 39 439 39 439 81.5 500 c 128,-1,15
 124 561 124 561 201 616 c 1,16,-1
 258 552 l 1,17,18
 190 503 190 503 153.5 452 c 128,-1,19
 117 401 117 401 117 354 c 0,20,21
 117 335 117 335 129.5 323.5 c 128,-1,22
 142 312 142 312 171 312 c 2,23,-1
 310 312 l 2,24,25
 334 312 334 312 360.5 300 c 128,-1,26
 387 288 387 288 410 267.5 c 128,-1,27
 433 247 433 247 447 221.5 c 128,-1,28
 461 196 461 196 461 169 c 0,29,30
 461 114 461 114 419 53.5 c 128,-1,31
 377 -7 377 -7 300 -63 c 1,0,-1
324 369 m 1,32,-1
 252 440 l 1,33,-1
 324 512 l 1,34,-1
 396 440 l 1,35,-1
 324 369 l 1,32,-1
176 41 m 1,36,-1
 104 112 l 1,37,-1
 176 184 l 1,38,-1
 248 112 l 1,39,-1
 176 41 l 1,36,-1
EndSplineSet
EndChar

StartChar: uni1CF2
Encoding: 7410 7410 167
Width: 486
GlyphClass: 1
Flags: W
LayerCount: 2
Fore
SplineSet
247 307 m 0,0,1
 162 307 162 307 109 355.5 c 128,-1,2
 56 404 56 404 39 489 c 1,3,-1
 79 500 l 1,4,5
 92 441 92 441 131.5 406.5 c 128,-1,6
 171 372 171 372 235 372 c 0,7,8
 293 372 293 372 330.5 401.5 c 128,-1,9
 368 431 368 431 377 500 c 1,10,-1
 447 481 l 1,11,12
 434 393 434 393 379 350 c 128,-1,13
 324 307 324 307 247 307 c 0,0,1
109 62 m 1,14,-1
 39 81 l 1,15,16
 53 170 53 170 108 212 c 128,-1,17
 163 254 163 254 239 254 c 0,18,19
 325 254 325 254 377.5 206 c 128,-1,20
 430 158 430 158 447 73 c 1,21,-1
 407 62 l 1,22,23
 395 121 395 121 355 155.5 c 128,-1,24
 315 190 315 190 251 190 c 0,25,26
 194 190 194 190 156 160 c 128,-1,27
 118 130 118 130 109 62 c 1,14,-1
EndSplineSet
EndChar

